SplineFontDB: 3.2
FontName: MononokiFork-Bold-Italic
FullName: Mononoki Fork Bold Italic
FamilyName: MononokiFork
Weight: Bold
Copyright: Modifications:\nCopyright (c) 2020-2021, Marvin Dostal\n\nOriginal author:\nCopyright (c) 2013-2017, Matthias Tellen matthias.tellen@googlemail.com\n\nLicensed under SIL OPEN FONT LICENSE Version 1.1 - 26 February 2007
Version: 2.0
ItalicAngle: -9
UnderlinePosition: 0
UnderlineWidth: 0
Ascent: 819
Descent: 205
InvalidEm: 1
UFOAscent: 750
UFODescent: -250
LayerCount: 2
Layer: 0 0 "Back" 1
Layer: 1 0 "Fore" 0
FSType: 0
OS2Version: 3
OS2_WeightWidthSlopeOnly: 0
OS2_UseTypoMetrics: 0
CreationTime: 1593379981
ModificationTime: 1611244501
PfmFamily: 17
TTFWeight: 700
TTFWidth: 5
LineGap: 0
VLineGap: 0
OS2TypoAscent: 0
OS2TypoAOffset: 1
OS2TypoDescent: 0
OS2TypoDOffset: 1
OS2TypoLinegap: 0
OS2WinAscent: 900
OS2WinAOffset: 0
OS2WinDescent: 250
OS2WinDOffset: 0
HheadAscent: 0
HheadAOffset: 1
HheadDescent: 0
HheadDOffset: 1
OS2CapHeight: 700
OS2XHeight: 500
OS2Vendor: 'PfEd'
Lookup: 260 0 0 "'mark' Mark Positioning lookup 0" { "'mark' Mark Positioning lookup 0-2"  } ['mark' ('DFLT' <'dflt' > 'cyrl' <'dflt' > 'grek' <'dflt' > 'latn' <'dflt' > 'mong' <'dflt' > ) ]
MarkAttachClasses: 1
DEI: 91125
LangName: 1033
Encoding: UnicodeBmp
UnicodeInterp: none
NameList: Adobe Glyph List
DisplaySize: -48
AntiAlias: 1
FitToEm: 0
BeginPrivate: 3
BlueValues 31 [-15 0 500 516 700 716 750 766]
StemSnapH 4 [97]
StemSnapV 5 [105]
EndPrivate
Grid
-650 272 m 25
 1300 272 l 1049
-651 349 m 1
 1300 349 l 1049
EndSplineSet
AnchorClass2: "mark-topright" "'mark' Mark Positioning lookup 0-2" "mark-top" "'mark' Mark Positioning lookup 0-2" "mark-bottom" "'mark' Mark Positioning lookup 0-2" "mark-ogonek" "'mark' Mark Positioning lookup 0-2" "mark-centerright" "'mark' Mark Positioning lookup 0-2" "bottomright"""  "topright"""  "center"""  "topleft"""  "bottom"""  "top"""  "ogonek""" 
BeginChars: 65591 847

StartChar: A
Encoding: 65 65 0
GlifName: A_
Width: 575
VWidth: 0
Flags: W
AnchorPoint: "mark-top" 360 700 basechar 0
AnchorPoint: "mark-bottom" 248 0 basechar 0
AnchorPoint: "mark-ogonek" 487 0 basechar 0
LayerCount: 2
Fore
SplineSet
75.2888695687 27.0059149413 m 2
 67.9128849225 9.4041333993 52.6377822856 0 34 0 c 2
 -1 0 l 2
 -8.1043676774 0 -14.6350093104 1.3318487303 -20.1131480359 4.89755437894 c 0
 -27.2638567199 9.42355281655 -30.8467478799 17.1151314149 -30.8467478799 24.9873642915 c 0
 -30.8467478799 30.2228860872 -29.5254362075 35.4120944004 -27.2629745618 40.7550917411 c 2
 214.755437609 617.442351348 l 2
 240.20830974 677.256840596 292.173633929 710 355 710 c 0
 417.134079371 710 473.38708865 677.461211501 478.958456271 614.603973509 c 2
 532.947235404 37.9703946608 l 2
 533.137425355 36.3557989182 533.234058681 34.7557270196 533.234058681 33.1713121273 c 0
 533.234058681 13.0493098844 517.026726271 0 497 0 c 2
 461 0 l 2
 453.001860693 0 445.45562633 1.62336254546 439.253697584 6.15923167002 c 0
 431.328842037 11.6841471565 427.724463662 20.4717324736 427.031046506 30.0277664807 c 2
 409.867292567 210 l 1
 153.715223248 210 l 1
 75.2888695687 27.0059149413 l 2
374.050885177 596.546108075 m 2
 372.743244226 607.509819558 362.937198273 614 349 614 c 0
 334.494790051 614 319.549755147 606.271327291 315.38159444 594.16006788 c 2
 192.931314624 306 l 1
 401.058678912 306 l 1
 374.050885177 596.546108075 l 2
EndSplineSet
PickledDataWithLists: "(dp0
Vcom.schriftgestaltung.Glyphs.lastChange
p1
V2016-06-09 18:44:34 +0000
p2
s."
EndChar

StartChar: A.hex
Encoding: 65537 -1 1
GlifName: A_.hex
Width: 575
VWidth: 0
Flags: W
LayerCount: 2
Fore
SplineSet
112.299505596 892.614380323 m 0
 120.429383125 886.024900642 124 875.92286565 124 865 c 2
 124 819 l 2
 124 807.680679758 120.49077603 797.434582054 112.147103874 790.935300585 c 0
 105.638298075 785.865283436 97.5384556952 784 89 784 c 2
 54 784 l 2
 42.6806797579 784 32.4345820537 787.50922397 25.9353005852 795.852896126 c 0
 20.8652834364 802.361701925 19 810.461544305 19 819 c 2
 19 865 l 2
 19 875.92286565 22.5706168755 886.024900642 30.700494404 892.614380323 c 0
 37.0967468189 897.798711228 45.2466187476 900 54 900 c 2
 89 900 l 2
 97.7533812524 900 105.903253181 897.798711228 112.299505596 892.614380323 c 0
404.614380323 888.299505596 m 0
 409.798711228 881.903253181 412 873.753381252 412 865 c 2
 412 819 l 2
 412 807.680679758 408.49077603 797.434582054 400.147103874 790.935300585 c 0
 393.638298075 785.865283436 385.538455695 784 377 784 c 2
 342 784 l 2
 330.680679758 784 320.434582054 787.50922397 313.935300585 795.852896126 c 0
 308.865283436 802.361701925 307 810.461544305 307 819 c 2
 307 865 l 2
 307 873.753381252 309.201288772 881.903253181 314.385619677 888.299505596 c 0
 320.975099358 896.429383125 331.07713435 900 342 900 c 2
 377 900 l 2
 387.92286565 900 398.024900642 896.429383125 404.614380323 888.299505596 c 0
EndSplineSet
Refer: 0 65 N 1 0 0 1 0 0 2
PickledDataWithLists: "(dp0
Vcom.schriftgestaltung.Glyphs.lastChange
p1
V2016-06-09 18:35:33 +0000
p2
s."
EndChar

StartChar: AE
Encoding: 198 198 2
GlifName: A_E_
Width: 575
VWidth: 0
Flags: W
LayerCount: 2
Fore
SplineSet
357.689411191 97 m 1
 466 97 l 2
 473.939234031 97 481.220598652 95.4227073959 487.079995564 90.9867372194 c 0
 494.665470392 85.2440062497 497.369337461 76.3043514462 497.369337461 67.5483645575 c 0
 497.369337461 65.1770998415 497.269483095 62.5290310486 496.83273321 60.1705816706 c 2
 491.883150938 33.4428374017 l 2
 490.477166706 22.7196287696 485.765656872 13.1475243634 477.258153689 7.03244622983 c 0
 470.47947997 2.16002731343 462.116938086 0 453 0 c 2
 273 0 l 2
 265.24594172 0 258.005421498 1.69033884321 252.18366008 6.14330752159 c 0
 244.691666645 11.5240825288 241.666666667 19.915362532 241.666666667 28.4770740234 c 0
 241.666666667 30.470687894 241.825656145 32.5206935061 242.098012924 34.5665745744 c 2
 263.287522656 160 l 1
 132.738210819 160 l 1
 75.3831427122 26.8462732587 l 1
 68.8554772088 8.82839098278 52.2382268969 3.5527136788e-15 34 0 c 2
 -1 0 l 2
 -8.1043676774 0 -14.6350093104 1.3318487303 -20.1131480359 4.89755437894 c 0
 -27.2638567199 9.42175757078 -30.8467478799 17.11028529 -30.8467478799 24.9793956308 c 0
 -30.8467478799 30.2128407469 -29.5254362075 35.3999907509 -27.2629745618 40.7408687817 c 2
 214.755437609 617.199384306 l 2
 240.569887442 677.839521989 291.72782159 700 359 700 c 2
 553 700 l 2
 560.346394927 700 567.311838272 698.68206353 573.208369124 694.765349043 c 0
 580.929759009 689.636489314 584.621463857 680.895430723 584.621463857 671.569942486 c 0
 584.621463857 668.899430545 584.357763906 666.176382353 583.86749871 663.366191217 c 2
 579.908890693 637.635239103 l 2
 577.489350608 617.705894153 563.294804861 604 541 604 c 2
 440.54216682 604 l 1
 408.709587635 413 l 1
 499 413 l 2
 506.522546594 413 513.578100122 411.431904254 519.403898735 407.360923582 c 0
 526.942865767 402.092806519 530.621463857 393.434283282 530.621463857 384.260814262 c 0
 530.621463857 381.663081929 530.357973325 379.030947821 529.865239728 376.345910004 c 0
 528.525611146 367.303417071 527.51149008 358.123816594 525.828657273 349.148708291 c 0
 522.103994235 329.283838751 507.691337025 316 487 316 c 2
 393.55688107 316 l 1
 357.689411191 97 l 1
315.346784661 603.430671599 m 2
 171.947421591 256 l 1
 278.469811907 256 l 1
 337.052809707 622.616179776 l 1
 325.874456612 619.796668372 318.696002702 612.920122714 315.346784661 603.430671599 c 2
EndSplineSet
PickledDataWithLists: "(dp0
Vcom.schriftgestaltung.Glyphs.lastChange
p1
V2016-06-09 18:35:33 +0000
p2
s."
EndChar

StartChar: B
Encoding: 66 66 13
GlifName: B_
Width: 575
VWidth: 0
Flags: W
AnchorPoint: "mark-top" 360 700 basechar 0
AnchorPoint: "mark-bottom" 248 0 basechar 0
LayerCount: 2
Fore
SplineSet
517 216.805555556 m 0
 517 74.9377115154 384.329219739 0 224 0 c 2
 87 0 l 2
 79.2950231806 0 72.2037747859 1.46793691809 66.3465163924 5.50814359662 c 0
 58.7138080629 10.6027674587 55.325 18.9881129515 55.325 27.5429070339 c 0
 55.325 30.2207130871 55.6154848609 32.9289722904 56.1445685145 35.6985977079 c 2
 149.287789219 604 l 1
 123 604 l 2
 115.295023181 604 108.203774786 605.467936918 102.346516392 609.508143597 c 0
 94.7138080629 614.773016187 91.325 623.438577539 91.325 632.27925 c 0
 91.325 635.038869035 91.6138763902 637.829784623 92.1401734602 640.68367789 c 0
 93.4755895848 649.3638827 94.6266434719 658.10125769 96.1523277986 666.746802208 c 0
 98.1204634404 677.899570845 103.065297707 687.421710874 111.59533517 693.376642688 c 0
 118.330057785 698.078241495 126.419494482 700 135 700 c 2
 315 700 l 2
 369.338474345 700 417.113475894 691.894372276 454.113613172 672.890108895 c 0
 500.76630561 648.928034162 529 607.320888901 529 547.361111111 c 0
 529 475.455413565 488.717727525 408.047320317 424.265888911 370.512559702 c 1
 483.846044157 342.223097402 516.999999966 286.748084031 517 216.805555556 c 0
222.709587635 413 m 1
 268 413 l 2
 367.934229553 413 432 453.933836119 432 521.328358209 c 0
 432 552.212128909 419.188477004 573.170029533 393.545720524 586.785343485 c 0
 372.696300629 597.855580719 342.408998744 604 303 604 c 2
 254.54216682 604 l 1
 222.709587635 413 l 1
237 97 m 2
 346.347787657 97 421 137.407361768 421 219.410480349 c 0
 421 260.692643067 402.247260557 284.697921714 371.610206036 299.162532939 c 0
 346.751354321 310.899092839 313.322701793 316 276 316 c 2
 207.55688107 316 l 1
 171.689411191 97 l 1
 237 97 l 2
EndSplineSet
PickledDataWithLists: "(dp0
Vcom.schriftgestaltung.Glyphs.lastChange
p1
V2016-06-09 18:35:33 +0000
p2
s."
EndChar

StartChar: B.hex
Encoding: 65538 -1 14
GlifName: B_.hex
Width: 575
VWidth: 0
Flags: W
LayerCount: 2
Fore
SplineSet
212.299505596 892.614380323 m 0
 220.429383125 886.024900642 224 875.92286565 224 865 c 2
 224 819 l 2
 224 807.680679758 220.49077603 797.434582054 212.147103874 790.935300585 c 0
 205.638298075 785.865283436 197.538455695 784 189 784 c 2
 154 784 l 2
 142.680679758 784 132.434582054 787.50922397 125.935300585 795.852896126 c 0
 120.865283436 802.361701925 119 810.461544305 119 819 c 2
 119 865 l 2
 119 875.92286565 122.570616875 886.024900642 130.700494404 892.614380323 c 0
 137.096746819 897.798711228 145.246618748 900 154 900 c 2
 189 900 l 2
 197.753381252 900 205.903253181 897.798711228 212.299505596 892.614380323 c 0
504.614380323 888.299505596 m 0
 509.798711228 881.903253181 512 873.753381252 512 865 c 2
 512 819 l 2
 512 807.680679758 508.49077603 797.434582054 500.147103874 790.935300585 c 0
 493.638298075 785.865283436 485.538455695 784 477 784 c 2
 442 784 l 2
 430.680679758 784 420.434582054 787.50922397 413.935300585 795.852896126 c 0
 408.865283436 802.361701925 407 810.461544305 407 819 c 2
 407 865 l 2
 407 873.753381252 409.201288772 881.903253181 414.385619677 888.299505596 c 0
 420.975099358 896.429383125 431.07713435 900 442 900 c 2
 477 900 l 2
 487.92286565 900 498.024900642 896.429383125 504.614380323 888.299505596 c 0
648.614380323 888.299505596 m 0
 653.798711228 881.903253181 656 873.753381252 656 865 c 2
 656 819 l 2
 656 807.680679758 652.49077603 797.434582054 644.147103874 790.935300585 c 0
 637.638298075 785.865283436 629.538455695 784 621 784 c 2
 586 784 l 2
 574.680679758 784 564.434582054 787.50922397 557.935300585 795.852896126 c 0
 552.865283436 802.361701925 551 810.461544305 551 819 c 2
 551 865 l 2
 551 875.92286565 554.570616875 886.024900642 562.700494404 892.614380323 c 0
 569.096746819 897.798711228 577.246618748 900 586 900 c 2
 621 900 l 2
 631.92286565 900 642.024900642 896.429383125 648.614380323 888.299505596 c 0
EndSplineSet
Refer: 13 66 N 1 0 0 1 0 0 2
PickledDataWithLists: "(dp0
Vcom.schriftgestaltung.Glyphs.lastChange
p1
V2016-06-09 18:35:33 +0000
p2
s."
EndChar

StartChar: C
Encoding: 67 67 16
GlifName: C_
Width: 575
VWidth: 0
Flags: W
AnchorPoint: "mark-top" 360 700 basechar 0
AnchorPoint: "mark-bottom" 248 0 basechar 0
LayerCount: 2
Fore
SplineSet
202.868764307 386.811332099 m 0
 185.863266408 286.53342476 182 255.374185127 182 221.620938628 c 0
 182 156.048245933 202.454429841 119.762472156 229.717571359 99.9955155886 c 0
 251.727940955 84.037045816 279.625309798 78 308 78 c 0
 337.439372662 78 373.357242328 84.6796444404 418.609783372 100.410452187 c 0
 423.457926117 102.218053408 433.43382581 103.475792893 433.884242578 103.475217796 c 0
 448.365236834 103.456728302 458.280663982 93.116073721 461.702242193 79.4297608764 c 2
 467.684464485 55.5008717108 l 2
 468.66589291 51.7966297356 469.2 48.0875955301 469.2 44.384 c 0
 469.2 28.8617777257 459.187709171 16.5521742603 443.612693142 10.6729828365 c 0
 396.223635743 -8.27177204181 302.043073715 -20.2025563566 296.659676205 -20.2025563566 c 1
 296.748214504 -20.179837111 296.861471281 -20.0289817268 297 -20 c 1
 249.740002502 -20 200.696471364 -9.54440124996 160.442838389 18.1613975022 c 0
 109.851126761 52.9826962844 75 114.274760852 75 210.68 c 0
 75 249.721894799 80.1413635713 283.378048625 97.1258704598 390.347139067 c 0
 137.813060906 637.860880949 290.444419705 710 413 710 c 0
 459.492539366 710 504.92741695 699.641404555 550.038142289 679.150440609 c 0
 561.342453493 674.26511166 568.679117351 664.58814195 568.679117628 652.825829137 c 0
 568.679117628 645.872268937 566.447514099 638.492060338 562.644154205 631.972014805 c 2
 548.735548116 608.128690082 l 2
 541.875277493 595.372438433 530.889930402 586.524782204 517.100338323 586.524782204 c 0
 512.065784072 586.524782204 507.095827614 587.675762758 502.266917067 589.719165266 c 0
 461.095826574 605.386609072 405.059880683 610.692522215 399 612 c 1
 357.298837922 612 311.351022229 599.233336966 273.190948129 557.063964521 c 0
 242.555678066 523.209991651 216.450899074 469.585324949 202.868764307 386.811332099 c 0
EndSplineSet
PickledDataWithLists: "(dp0
Vcom.schriftgestaltung.Glyphs.lastChange
p1
V2016-06-09 18:35:33 +0000
p2
s."
EndChar

StartChar: C.hex
Encoding: 65539 -1 17
GlifName: C_.hex
Width: 575
VWidth: 0
Flags: W
LayerCount: 2
Fore
SplineSet
212.299505596 892.614380323 m 0
 220.429383125 886.024900642 224 875.92286565 224 865 c 2
 224 819 l 2
 224 807.680679758 220.49077603 797.434582054 212.147103874 790.935300585 c 0
 205.638298075 785.865283436 197.538455695 784 189 784 c 2
 154 784 l 2
 142.680679758 784 132.434582054 787.50922397 125.935300585 795.852896126 c 0
 120.865283436 802.361701925 119 810.461544305 119 819 c 2
 119 865 l 2
 119 875.92286565 122.570616875 886.024900642 130.700494404 892.614380323 c 0
 137.096746819 897.798711228 145.246618748 900 154 900 c 2
 189 900 l 2
 197.753381252 900 205.903253181 897.798711228 212.299505596 892.614380323 c 0
360.614380323 888.299505596 m 0
 365.798711228 881.903253181 368 873.753381252 368 865 c 2
 368 819 l 2
 368 807.680679758 364.49077603 797.434582054 356.147103874 790.935300585 c 0
 349.638298075 785.865283436 341.538455695 784 333 784 c 2
 298 784 l 2
 286.680679758 784 276.434582054 787.50922397 269.935300585 795.852896126 c 0
 264.865283436 802.361701925 263 810.461544305 263 819 c 2
 263 865 l 2
 263 873.753381252 265.201288772 881.903253181 270.385619677 888.299505596 c 0
 276.975099358 896.429383125 287.07713435 900 298 900 c 2
 333 900 l 2
 343.92286565 900 354.024900642 896.429383125 360.614380323 888.299505596 c 0
EndSplineSet
Refer: 16 67 N 1 0 0 1 0 0 2
PickledDataWithLists: "(dp0
Vcom.schriftgestaltung.Glyphs.lastChange
p1
V2016-06-09 18:35:33 +0000
p2
s."
EndChar

StartChar: D
Encoding: 68 68 23
GlifName: D_
Width: 575
VWidth: 0
Flags: W
AnchorPoint: "mark-top" 360 700 basechar 0
AnchorPoint: "mark-bottom" 248 0 basechar 0
LayerCount: 2
Fore
SplineSet
133 700 m 2
 185 700 l 2
 386.830521485 700 556 656.512847952 556 469.583333333 c 0
 556 429.837390655 551.862053878 401.857108163 537.880253683 319.325648676 c 0
 518.808662752 200.439832663 478.740949086 114.329060023 401.36986154 61.7105861726 c 0
 339.63744995 19.7276518751 255.684452277 0 143 0 c 2
 89 0 l 2
 69.8579313012 0 55.4294326642 12.1601653122 55.4294326642 30.1290344054 c 0
 55.4294326642 32.5519193022 55.6747511012 34.9988374016 56.1447972975 37.4678328266 c 2
 149.28163732 604 l 1
 125 604 l 2
 105.857931301 604 91.4294326642 616.562819793 91.4294326642 635.126684551 c 0
 91.4294326642 637.621039291 91.6730374166 640.14004959 92.1398716223 642.681715944 c 0
 95.3054802755 663.258172189 95.8156379039 684.470959486 110.607133871 694.331956797 c 0
 117.175342761 698.710762724 124.852884926 700 133 700 c 2
434.142392394 333.689524703 m 1
 449.157249135 421.776684245 451 441.691239137 451 473 c 0
 451 524.605831951 435.26742057 557.715531348 396.33657099 579.803599802 c 0
 366.013140423 597.008105157 320.217155377 607.546349736 255.456227515 611.511902936 c 1
 171.776588957 86.3500333653 l 1
 266.586349236 89.8965312051 326.948940595 110.848204342 367.045159672 156.224634844 c 0
 400.642825066 194.2467268 421.349948722 251.207607941 434.142392394 333.689524703 c 1
EndSplineSet
PickledDataWithLists: "(dp0
Vcom.schriftgestaltung.Glyphs.lastChange
p1
V2016-06-09 18:46:00 +0000
p2
s."
EndChar

StartChar: D.hex
Encoding: 65540 -1 24
GlifName: D_.hex
Width: 575
VWidth: 0
Flags: W
LayerCount: 2
Fore
SplineSet
143.299505596 892.614380323 m 0
 151.429383125 886.024900642 155 875.92286565 155 865 c 2
 155 819 l 2
 155 807.680679758 151.49077603 797.434582054 143.147103874 790.935300585 c 0
 136.638298075 785.865283436 128.538455695 784 120 784 c 2
 85 784 l 2
 73.6806797579 784 63.4345820537 787.50922397 56.9353005852 795.852896126 c 0
 51.8652834364 802.361701925 50 810.461544305 50 819 c 2
 50 865 l 2
 50 875.92286565 53.5706168755 886.024900642 61.700494404 892.614380323 c 0
 68.0967468189 897.798711228 76.2466187476 900 85 900 c 2
 120 900 l 2
 128.753381252 900 136.903253181 897.798711228 143.299505596 892.614380323 c 0
291.614380323 888.299505596 m 0
 296.798711228 881.903253181 299 873.753381252 299 865 c 2
 299 819 l 2
 299 807.680679758 295.49077603 797.434582054 287.147103874 790.935300585 c 0
 280.638298075 785.865283436 272.538455695 784 264 784 c 2
 229 784 l 2
 217.680679758 784 207.434582054 787.50922397 200.935300585 795.852896126 c 0
 195.865283436 802.361701925 194 810.461544305 194 819 c 2
 194 865 l 2
 194 875.92286565 197.570616875 886.024900642 205.700494404 892.614380323 c 0
 212.096746819 897.798711228 220.246618748 900 229 900 c 2
 264 900 l 2
 274.92286565 900 285.024900642 896.429383125 291.614380323 888.299505596 c 0
579.614380323 888.299505596 m 0
 584.798711228 881.903253181 587 873.753381252 587 865 c 2
 587 819 l 2
 587 807.680679758 583.49077603 797.434582054 575.147103874 790.935300585 c 0
 568.638298075 785.865283436 560.538455695 784 552 784 c 2
 517 784 l 2
 505.680679758 784 495.434582054 787.50922397 488.935300585 795.852896126 c 0
 483.865283436 802.361701925 482 810.461544305 482 819 c 2
 482 865 l 2
 482 873.753381252 484.201288772 881.903253181 489.385619677 888.299505596 c 0
 495.975099358 896.429383125 506.07713435 900 517 900 c 2
 552 900 l 2
 562.92286565 900 573.024900642 896.429383125 579.614380323 888.299505596 c 0
EndSplineSet
Refer: 23 68 N 1 0 0 1 0 0 2
PickledDataWithLists: "(dp0
Vcom.schriftgestaltung.Glyphs.lastChange
p1
V2016-06-09 18:35:33 +0000
p2
s."
EndChar

StartChar: E
Encoding: 69 69 27
GlifName: E_
Width: 575
VWidth: 0
Flags: W
AnchorPoint: "mark-top" 360 700 basechar 0
AnchorPoint: "mark-bottom" 248 0 basechar 0
AnchorPoint: "mark-ogonek" 442 0 basechar 0
LayerCount: 2
Fore
SplineSet
154.689411191 97 m 1
 464 97 l 2
 471.704976819 97 478.796225214 95.5320630819 484.653483608 91.4918564034 c 0
 492.286191937 86.2269838134 495.675 77.5614224612 495.675 68.72075 c 0
 495.675 65.9703515357 495.3880508 63.188865308 494.865094053 60.3449266941 c 0
 493.529034637 51.3265256389 492.431162528 42.2263096416 490.847672201 33.2531977922 c 0
 488.87953656 22.100429155 483.934702293 12.5782891259 475.40466483 6.62335731227 c 0
 468.669942215 1.92175850547 460.580505518 0 452 0 c 2
 70 0 l 2
 62.2950231806 0 55.2037747859 1.46793691809 49.3465163924 5.50814359662 c 0
 41.7138080629 10.6242633435 38.325 19.0449893523 38.325 27.6358789097 c 0
 38.325 30.3247701241 38.6154387632 33.0442381273 39.1444425718 35.8253190266 c 2
 39.1444425718 35.8253190266 142.123519559 667.332018231 142.152327799 667.499197335 c 0
 144.12046344 678.336857484 149.065297707 687.589960537 157.59533517 693.376642688 c 0
 164.330057785 698.078241495 172.419494482 700 181 700 c 2
 540 700 l 2
 547.704976819 700 554.796225214 698.532063082 560.653483608 694.491856403 c 0
 568.286191937 689.226983813 571.675 680.561422461 571.675 671.72075 c 0
 571.675 668.961130965 571.38612361 666.170215377 570.85982654 663.31632211 c 0
 569.524410415 654.6361173 568.373356528 645.89874231 566.847672201 637.253197792 c 0
 564.87953656 626.100429155 559.934702293 616.578289126 551.40466483 610.623357312 c 0
 544.669942215 605.921758505 536.580505518 604 528 604 c 2
 237.54216682 604 l 1
 205.709587635 413 l 1
 472 413 l 2
 479.704976819 413 486.796225214 411.532063082 492.653483608 407.491856403 c 0
 500.286191937 402.226983813 503.675 393.561422461 503.675 384.72075 c 0
 503.675 381.970351536 503.3880508 379.188865308 502.865094053 376.344926694 c 0
 501.529034637 367.326525639 500.431162528 358.226309642 498.847672201 349.253197792 c 0
 496.87953656 338.100429155 491.934702293 328.578289126 483.40466483 322.623357312 c 0
 476.669942215 317.921758505 468.580505518 316 460 316 c 2
 190.55688107 316 l 1
 154.689411191 97 l 1
EndSplineSet
PickledDataWithLists: "(dp0
Vcom.schriftgestaltung.Glyphs.lastChange
p1
V2016-06-09 18:35:33 +0000
p2
s."
EndChar

StartChar: E.hex
Encoding: 65541 -1 28
GlifName: E_.hex
Width: 575
VWidth: 0
Flags: W
LayerCount: 2
Fore
SplineSet
212.299505596 892.614380323 m 0
 220.429383125 886.024900642 224 875.92286565 224 865 c 2
 224 819 l 2
 224 807.680679758 220.49077603 797.434582054 212.147103874 790.935300585 c 0
 205.638298075 785.865283436 197.538455695 784 189 784 c 2
 154 784 l 2
 142.680679758 784 132.434582054 787.50922397 125.935300585 795.852896126 c 0
 120.865283436 802.361701925 119 810.461544305 119 819 c 2
 119 865 l 2
 119 875.92286565 122.570616875 886.024900642 130.700494404 892.614380323 c 0
 137.096746819 897.798711228 145.246618748 900 154 900 c 2
 189 900 l 2
 197.753381252 900 205.903253181 897.798711228 212.299505596 892.614380323 c 0
360.614380323 888.299505596 m 0
 365.798711228 881.903253181 368 873.753381252 368 865 c 2
 368 819 l 2
 368 807.680679758 364.49077603 797.434582054 356.147103874 790.935300585 c 0
 349.638298075 785.865283436 341.538455695 784 333 784 c 2
 298 784 l 2
 286.680679758 784 276.434582054 787.50922397 269.935300585 795.852896126 c 0
 264.865283436 802.361701925 263 810.461544305 263 819 c 2
 263 865 l 2
 263 873.753381252 265.201288772 881.903253181 270.385619677 888.299505596 c 0
 276.975099358 896.429383125 287.07713435 900 298 900 c 2
 333 900 l 2
 343.92286565 900 354.024900642 896.429383125 360.614380323 888.299505596 c 0
504.614380323 888.299505596 m 0
 509.798711228 881.903253181 512 873.753381252 512 865 c 2
 512 819 l 2
 512 807.680679758 508.49077603 797.434582054 500.147103874 790.935300585 c 0
 493.638298075 785.865283436 485.538455695 784 477 784 c 2
 442 784 l 2
 430.680679758 784 420.434582054 787.50922397 413.935300585 795.852896126 c 0
 408.865283436 802.361701925 407 810.461544305 407 819 c 2
 407 865 l 2
 407 873.753381252 409.201288772 881.903253181 414.385619677 888.299505596 c 0
 420.975099358 896.429383125 431.07713435 900 442 900 c 2
 477 900 l 2
 487.92286565 900 498.024900642 896.429383125 504.614380323 888.299505596 c 0
EndSplineSet
Refer: 27 69 N 1 0 0 1 0 0 2
PickledDataWithLists: "(dp0
Vcom.schriftgestaltung.Glyphs.lastChange
p1
V2016-06-09 18:35:33 +0000
p2
s."
EndChar

StartChar: Eth
Encoding: 208 208 39
GlifName: E_th
Width: 575
VWidth: 0
Flags: W
LayerCount: 2
Fore
SplineSet
249.828657273 335.148708291 m 0
 246.103994235 315.283838751 231.691337025 302 211 302 c 2
 -12 302 l 2
 -19.5225465941 302 -26.5781001216 303.568095746 -32.4038987349 307.639076418 c 0
 -39.9428657668 312.907193481 -43.6214638571 321.565716718 -43.6214638571 330.739185738 c 0
 -43.6214638571 333.346188692 -43.3560893132 335.9878394 -42.8599556628 338.68283859 c 0
 -39.9634085862 357.510394589 -39.0353752175 376.076624482 -28.2583878258 387.649723117 c 0
 -21.0743321088 395.364475152 -11.0000294986 399 0 399 c 2
 223 399 l 2
 230.522546594 399 237.578100122 397.431904254 243.403898735 393.360923582 c 0
 250.942865767 388.092806519 254.621463857 379.434283282 254.621463857 370.260814262 c 0
 254.621463857 367.663081929 254.357973325 365.030947821 253.865239728 362.345910004 c 0
 252.525611146 353.303417071 251.51149008 344.123816594 249.828657273 335.148708291 c 0
EndSplineSet
Refer: 23 68 N 1 0 0 1 -10 0 2
PickledDataWithLists: "(dp0
Vcom.schriftgestaltung.Glyphs.lastChange
p1
V2016-06-09 18:35:33 +0000
p2
s."
EndChar

StartChar: Euro
Encoding: 8364 8364 40
GlifName: E_uro
Width: 575
VWidth: 0
Flags: HMW
LayerCount: 2
Fore
SplineSet
89 375 m 2
 81.2459417201 375 74.0054214977 376.690338843 68.1836600799 381.143307522 c 0
 60.6916666446 386.873808948 57.6666666667 395.810484791 57.6666666667 404.92866941 c 0
 57.6666666667 407.160241276 57.7574681883 409.678669809 58.1766491622 411.879369923 c 2
 62.1140129449 432.550529782 l 1
 64.5955445242 452.374341924 78.7698255891 466 101 466 c 2
 111.025073804 466 l 1
 122.889986262 516.531525189 142.016219407 570.709569858 177.919267041 616.252146882 c 0
 225.319528053 676.378798528 301.504348766 720 424 720 c 0
 457.416500942 720 511.997484101 717.987841743 571.851291709 706.828657273 c 0
 586.206005458 704.137148445 597.454545455 694.618598867 597.454545455 679.731780616 c 0
 597.454545455 674.676918987 596.316970502 669.693733122 594.380930103 664.530958724 c 0
 591.021856685 655.461460495 587.879721787 646.269041437 584.288869569 637.291910891 c 0
 578.035094344 621.657472828 564.998077032 611.318093403 548.63499145 611.318093403 c 0
 545.813652382 611.318093403 542.972386365 611.61167444 540.121968284 612.17604634 c 0
 485.968769167 622.01513732 436.472049834 623.999999564 412 624 c 0
 333.029419931 624 287.882571943 599.782265354 259.155572363 563.530464063 c 0
 238.224870431 537.117136585 225.593438224 503.290812115 216.563050358 466 c 1
 481 466 l 2
 488.566385009 466 495.720286136 464.585305681 501.629160808 460.27968946 c 0
 509.321745652 454.674338199 512.333333333 445.639751688 512.333333333 436.334705075 c 0
 512.333333333 434.044085027 512.257903414 431.4020311 511.823350838 429.120630077 c 2
 507.879266036 408.414184871 l 1
 505.142929495 387.748106249 489.229131266 375 469 375 c 2
 89 375 l 2
179.286599236 206.957272459 m 0
 179.286599236 152.497843225 192.420480067 119.631505203 219.433083864 100.424368567 c 0
 241.39775867 84.8065290819 274.706861276 77 322 77 c 0
 349.506795766 77 398.000612478 78.9764119242 454.295681664 87.8560362454 c 0
 457.26759651 88.4060247878 463.170497456 88.7454679353 463.354492102 88.7454335052 c 0
 471.794100335 88.7438542361 480.031575354 85.8343624922 485.598058216 79.0901641358 c 0
 489.971170116 73.7918213911 492.04558736 67.2651581146 492.951947946 60.0142734257 c 2
 495 33.3895967234 l 1
 495 33 l 2
 495 12.9866263068 483.340533624 -3.03687810121 461.797548635 -6.8385813346 c 0
 394.988218345 -18.9857322964 341.261977337 -20 310 -20 c 0
 203.305263803 -20 140.788633035 13.2493731245 107.077781983 62.878756912 c 0
 80.3215306864 102.26952347 72.5512578946 150.242479252 72.5512578946 196.635137297 c 0
 72.5512578946 209.240942815 73.1309454249 221.755267264 74.0871451422 234 c 1
 67 234 l 2
 59.4774534059 234 52.4218998784 235.568095746 46.5961012651 239.639076418 c 0
 39.0571342332 244.907193481 35.3785361429 253.565716718 35.3785361429 262.739185738 c 0
 35.3785361429 265.328290078 35.64027929 267.951568051 36.129858229 270.627337849 c 0
 37.1336249805 277.65370511 37.9200757299 284.764040485 39.1523277986 291.746802208 c 0
 41.1204634404 302.899570845 46.065297707 312.421710874 54.5953351698 318.376642688 c 0
 61.3300577849 323.078241495 69.4194944819 325 78 325 c 2
 458 325 l 2
 465.346394927 325 472.311838272 323.68206353 478.208369124 319.765349043 c 0
 485.929759009 314.636489314 489.621463857 305.895430723 489.621463857 296.569942486 c 0
 489.621463857 293.916933876 489.361209314 291.212075433 488.877109533 288.421436484 c 0
 487.867475152 281.353995821 487.142064781 274.153548333 485.828657273 267.148708291 c 0
 482.103994235 247.283838751 467.691337025 234 447 234 c 2
 180.259178839 234 l 1
 179.613506702 224.481520788 179.286599236 215.469454484 179.286599236 206.957272459 c 0
EndSplineSet
PickledDataWithLists: "(dp0
Vcom.schriftgestaltung.Glyphs.lastChange
p1
V2015-12-22 14:04:06 +0000
p2
s."
EndChar

StartChar: F
Encoding: 70 70 41
GlifName: F_
Width: 575
VWidth: 0
Flags: W
AnchorPoint: "mark-top" 360 700 basechar 0
AnchorPoint: "mark-bottom" 248 0 basechar 0
LayerCount: 2
Fore
SplineSet
157.59533517 693.376642688 m 0
 164.330057785 698.078241495 172.419494482 700 181 700 c 2
 562 700 l 2
 569.704976819 700 576.796225214 698.532063082 582.653483608 694.491856403 c 0
 590.286191937 689.226983813 593.675 680.561422461 593.675 671.72075 c 0
 593.675 668.961130965 593.38612361 666.170215377 592.85982654 663.31632211 c 0
 591.524410415 654.6361173 590.373356528 645.89874231 588.847672201 637.253197792 c 0
 586.87953656 626.100429155 581.934702293 616.578289126 573.40466483 610.623357312 c 0
 566.669942215 605.921758505 558.580505518 604 550 604 c 2
 237.560060541 604 l 1
 200.685060541 378 l 1
 488 378 l 2
 495.704976819 378 502.796225214 376.532063082 508.653483608 372.491856403 c 0
 516.286191937 367.226983813 519.675 358.561422461 519.675 349.72075 c 0
 519.675 346.961130965 519.38612361 344.170215377 518.85982654 341.31632211 c 0
 517.524410415 332.6361173 516.373356528 323.89874231 514.847672201 315.253197792 c 0
 512.87953656 304.100429155 507.934702293 294.578289126 499.40466483 288.623357312 c 0
 492.669942215 283.921758505 484.580505518 282 476 282 c 2
 185.519639072 282 l 1
 143.847672201 32.3200506282 l 2
 141.87953656 21.5580907317 136.934702293 12.3696199174 128.40466483 6.62335731227 c 0
 121.669942215 1.92175850547 113.580505518 0 105 0 c 2
 70 0 l 2
 62.2950231806 0 55.2037747859 1.46793691809 49.3465163924 5.50814359662 c 0
 41.7138080629 10.6242633435 38.325 19.0449893523 38.325 27.6358789097 c 0
 38.325 30.3247701241 38.6154387632 33.0442381273 39.1444425718 35.8253190266 c 2
 39.1444425718 35.8253190266 142.123519559 667.332018231 142.152327799 667.499197335 c 0
 144.12046344 678.336857484 149.065297707 687.589960537 157.59533517 693.376642688 c 0
EndSplineSet
PickledDataWithLists: "(dp0
Vcom.schriftgestaltung.Glyphs.lastChange
p1
V2016-06-09 18:35:33 +0000
p2
s."
EndChar

StartChar: F.hex
Encoding: 65542 -1 42
GlifName: F_.hex
Width: 575
VWidth: 0
Flags: W
LayerCount: 2
Fore
SplineSet
212.299505596 892.614380323 m 0
 220.429383125 886.024900642 224 875.92286565 224 865 c 2
 224 819 l 2
 224 807.680679758 220.49077603 797.434582054 212.147103874 790.935300585 c 0
 205.638298075 785.865283436 197.538455695 784 189 784 c 2
 154 784 l 2
 142.680679758 784 132.434582054 787.50922397 125.935300585 795.852896126 c 0
 120.865283436 802.361701925 119 810.461544305 119 819 c 2
 119 865 l 2
 119 875.92286565 122.570616875 886.024900642 130.700494404 892.614380323 c 0
 137.096746819 897.798711228 145.246618748 900 154 900 c 2
 189 900 l 2
 197.753381252 900 205.903253181 897.798711228 212.299505596 892.614380323 c 0
360.614380323 888.299505596 m 0
 365.798711228 881.903253181 368 873.753381252 368 865 c 2
 368 819 l 2
 368 807.680679758 364.49077603 797.434582054 356.147103874 790.935300585 c 0
 349.638298075 785.865283436 341.538455695 784 333 784 c 2
 298 784 l 2
 286.680679758 784 276.434582054 787.50922397 269.935300585 795.852896126 c 0
 264.865283436 802.361701925 263 810.461544305 263 819 c 2
 263 865 l 2
 263 873.753381252 265.201288772 881.903253181 270.385619677 888.299505596 c 0
 276.975099358 896.429383125 287.07713435 900 298 900 c 2
 333 900 l 2
 343.92286565 900 354.024900642 896.429383125 360.614380323 888.299505596 c 0
504.614380323 888.299505596 m 0
 509.798711228 881.903253181 512 873.753381252 512 865 c 2
 512 819 l 2
 512 807.680679758 508.49077603 797.434582054 500.147103874 790.935300585 c 0
 493.638298075 785.865283436 485.538455695 784 477 784 c 2
 442 784 l 2
 430.680679758 784 420.434582054 787.50922397 413.935300585 795.852896126 c 0
 408.865283436 802.361701925 407 810.461544305 407 819 c 2
 407 865 l 2
 407 873.753381252 409.201288772 881.903253181 414.385619677 888.299505596 c 0
 420.975099358 896.429383125 431.07713435 900 442 900 c 2
 477 900 l 2
 487.92286565 900 498.024900642 896.429383125 504.614380323 888.299505596 c 0
648.614380323 888.299505596 m 0
 653.798711228 881.903253181 656 873.753381252 656 865 c 2
 656 819 l 2
 656 807.680679758 652.49077603 797.434582054 644.147103874 790.935300585 c 0
 637.638298075 785.865283436 629.538455695 784 621 784 c 2
 586 784 l 2
 574.680679758 784 564.434582054 787.50922397 557.935300585 795.852896126 c 0
 552.865283436 802.361701925 551 810.461544305 551 819 c 2
 551 865 l 2
 551 875.92286565 554.570616875 886.024900642 562.700494404 892.614380323 c 0
 569.096746819 897.798711228 577.246618748 900 586 900 c 2
 621 900 l 2
 631.92286565 900 642.024900642 896.429383125 648.614380323 888.299505596 c 0
EndSplineSet
Refer: 41 70 N 1 0 0 1 0 0 2
PickledDataWithLists: "(dp0
Vcom.schriftgestaltung.Glyphs.lastChange
p1
V2016-06-09 18:35:33 +0000
p2
s."
EndChar

StartChar: G
Encoding: 71 71 43
GlifName: G_
Width: 575
VWidth: 0
Flags: W
AnchorPoint: "mark-top" 360 700 basechar 0
AnchorPoint: "mark-bottom" 248 0 basechar 0
LayerCount: 2
Fore
SplineSet
336.741612174 387.649723117 m 0
 343.925667891 395.364475152 353.999970501 399 365 399 c 2
 497 399 l 2
 504.704976819 399 511.796225214 397.566280726 517.653483608 393.620251359 c 0
 525.286191937 388.478103072 528.675 380.014536157 528.675 371.379939977 c 0
 528.675 368.678262011 528.38475317 365.945872004 527.856081817 363.151606868 c 2
 476.888169629 47.8792300812 l 2
 474.40497706 31.0790073631 463.495006019 17.5931913292 446.738607628 10.9839233785 c 0
 393.749451853 -9.91672130764 343.510308609 -20 297 -20 c 0
 249.739577636 -20 200.704633238 -9.54507101586 160.455463956 18.0672713632 c 0
 109.868385146 52.771782412 75 113.824088719 75 209.706666667 c 0
 75 249.700253565 80.142148311 283.382990946 97.1258704598 390.347139067 c 0
 137.813060906 637.860880949 290.444419705 710 413 710 c 0
 459.492539366 710 504.92741695 699.641404555 550.038142289 679.150440609 c 0
 561.342453493 674.26511166 568.679117351 664.58814195 568.679117628 652.825829137 c 0
 568.679117628 645.872268937 566.447514099 638.492060338 562.644154205 631.972014805 c 2
 548.735548116 608.128690082 l 2
 541.875277493 595.372438433 530.889930402 586.524782204 517.100338323 586.524782204 c 0
 512.065784072 586.524782204 507.095827614 587.675762758 502.266917067 589.719165266 c 0
 461.095826574 605.386609072 405.059880683 610.692522215 399 612 c 1
 357.298837922 612 311.351022229 599.233336966 273.190948129 557.063964521 c 0
 242.555678066 523.209991651 216.450899074 469.585324949 202.868764307 386.811332099 c 0
 185.863266408 286.53342476 182 255.374185127 182 221.620938628 c 0
 182 156.048245933 202.454429841 119.762472156 229.717571359 99.9955155886 c 0
 251.727940955 84.037045816 279.625309798 78 308 78 c 0
 327.287294901 78 350.411058904 81.1504102926 377.165431998 87.611111418 c 1
 413.258130441 302 l 1
 353 302 l 2
 345.295023181 302 338.203774786 303.467936918 332.346516392 307.508143597 c 0
 324.713808063 312.773016187 321.325 321.438577539 321.325 330.27925 c 0
 321.325 333.038869035 321.61387639 335.829784623 322.14017346 338.68367789 c 0
 325.036685305 357.511004878 325.964755221 376.076764555 336.741612174 387.649723117 c 0
EndSplineSet
PickledDataWithLists: "(dp0
Vcom.schriftgestaltung.Glyphs.lastChange
p1
V2016-06-09 18:35:33 +0000
p2
s."
EndChar

StartChar: Gamma
Encoding: 915 915 44
GlifName: G_amma
Width: 575
VWidth: 0
Flags: W
AnchorPoint: "mark-top" 360 700 basechar 0
LayerCount: 2
Fore
SplineSet
142.59533517 693.376642688 m 0
 149.330057785 698.078241495 157.419494482 700 166 700 c 2
 551 700 l 2
 558.541504747 700 565.533173788 698.771159083 571.454822479 694.891821229 c 0
 579.269088472 689.772608752 582.675 681.02491968 582.675 672.045875 c 0
 582.675 669.221825327 582.387860778 666.345440469 581.867419095 663.36567372 c 2
 577.909022799 637.636097792 l 2
 576.548399441 626.39941709 571.834827932 616.625702923 563.104640251 610.595048189 c 0
 556.227268683 605.844285099 547.919237224 604 539 604 c 2
 222.540257525 604 l 1
 128.900612698 32.7168998744 l 2
 127.51649757 22.2886082861 122.801226358 12.9740323004 114.258153689 7.03244622983 c 0
 107.47947997 2.16002731343 99.1169380856 0 90 0 c 2
 55 0 l 2
 47.2459417201 0 40.0054214977 1.69033884321 34.1836600799 6.14330752159 c 0
 26.6916666446 11.7117548944 23.6666666667 20.3957086048 23.6666666667 29.2560381665 c 0
 23.6666666667 31.3189599918 23.8255843989 33.4400976635 24.0979164932 35.5571835781 c 2
 127.152327799 667.499873059 l 2
 129.12046344 678.33725021 134.065297707 687.590111641 142.59533517 693.376642688 c 0
EndSplineSet
PickledDataWithLists: "(dp0
Vcom.schriftgestaltung.Glyphs.lastChange
p1
V2015-12-22 16:32:37 +0000
p2
s."
EndChar

StartChar: H
Encoding: 72 72 46
GlifName: H_
Width: 575
VWidth: 0
Flags: W
AnchorPoint: "mark-top" 360 700 basechar 0
AnchorPoint: "mark-bottom" 248 0 basechar 0
LayerCount: 2
Fore
SplineSet
494.59533517 693.376642688 m 0
 501.330057785 698.078241495 509.419494482 700 518 700 c 2
 553 700 l 2
 560.704976819 700 567.796225214 698.532063082 573.653483608 694.491856403 c 0
 581.286191937 689.375736657 584.675 680.955010648 584.675 672.36412109 c 0
 584.675 669.675229876 584.384561237 666.955761873 583.855557428 664.174680973 c 2
 583.855557428 664.174680973 480.876480441 32.6679817693 480.847672201 32.5008026647 c 0
 478.87953656 21.663142516 473.934702293 12.4100394631 465.40466483 6.62335731227 c 0
 458.669942215 1.92175850547 450.580505518 0 442 0 c 2
 407 0 l 2
 399.295023181 0 392.203774786 1.46793691809 386.346516392 5.50814359662 c 0
 378.713808063 10.6122527207 375.325 19.0132102 375.325 27.5839317514 c 0
 375.325 30.2674946512 375.615651904 32.9815849438 376.145024883 35.7571999665 c 2
 423.282078198 323 l 1
 174.53610362 323 l 1
 126.847672201 32.4372741936 l 2
 124.87953656 21.6262202252 119.934702293 12.3958333054 111.40466483 6.62335731227 c 0
 104.669942215 1.92175850547 96.5805055181 0 88 0 c 2
 53 0 l 2
 45.2950231806 0 38.2037747859 1.46793691809 32.3465163924 5.50814359662 c 0
 24.7138080629 10.6242633435 21.325 19.0449893523 21.325 27.6358789097 c 0
 21.325 30.3247701241 21.6154387632 33.0442381273 22.1444425718 35.8253190266 c 2
 22.1444425718 35.8253190266 125.123519559 667.332018231 125.152327799 667.499197335 c 0
 127.12046344 678.336857484 132.065297707 687.589960537 140.59533517 693.376642688 c 0
 147.330057785 698.078241495 155.419494482 700 164 700 c 2
 199 700 l 2
 206.704976819 700 213.796225214 698.532063082 219.653483608 694.491856403 c 0
 227.286191937 689.412046144 230.675 681.051082662 230.675 672.521163294 c 0
 230.675 669.851310164 230.384551407 667.151096223 229.855530572 664.389704065 c 2
 189.710971077 420 l 1
 438.458840244 420 l 1
 479.152327799 667.686535286 l 2
 481.12046344 678.445736954 486.065297707 687.631852817 494.59533517 693.376642688 c 0
EndSplineSet
PickledDataWithLists: "(dp0
Vcom.schriftgestaltung.Glyphs.lastChange
p1
V2016-06-09 18:35:33 +0000
p2
s."
EndChar

StartChar: I
Encoding: 73 73 48
GlifName: I_
Width: 575
VWidth: 0
Flags: W
AnchorPoint: "mark-top" 360 700 basechar 0
AnchorPoint: "mark-bottom" 248 0 basechar 0
AnchorPoint: "mark-ogonek" 416 0 basechar 0
LayerCount: 2
Fore
SplineSet
167.59533517 693.376642688 m 0
 174.330057785 698.078241495 182.419494482 700 191 700 c 2
 526 700 l 2
 533.704976819 700 540.796225214 698.532063082 546.653483608 694.491856403 c 0
 554.286191937 689.226983813 557.675 680.561422461 557.675 671.72075 c 0
 557.675 668.961130965 557.38612361 666.170215377 556.85982654 663.31632211 c 0
 555.524410415 654.6361173 554.373356528 645.89874231 552.847672201 637.253197792 c 0
 550.87953656 626.100429155 545.934702293 616.578289126 537.40466483 610.623357312 c 0
 530.669942215 605.921758505 522.580505518 604 514 604 c 2
 397.551861793 604 l 1
 314.696285925 97 l 1
 438 97 l 2
 445.704976819 97 452.796225214 95.5320630819 458.653483608 91.4918564034 c 0
 466.286191937 86.2269838134 469.675 77.5614224612 469.675 68.72075 c 0
 469.675 65.9703515357 469.3880508 63.188865308 468.865094053 60.3449266941 c 0
 467.529034637 51.3265256389 466.431162528 42.2263096416 464.847672201 33.2531977922 c 0
 462.87953656 22.100429155 457.934702293 12.5782891259 449.40466483 6.62335731227 c 0
 442.669942215 1.92175850547 434.580505518 0 426 0 c 2
 71 0 l 2
 63.2950231806 0 56.2037747859 1.46793691809 50.3465163924 5.50814359662 c 0
 42.7138080629 10.7730161866 39.325 19.4385775388 39.325 28.27925 c 0
 39.325 31.0296484643 39.6119492001 33.811134692 40.1349059473 36.6550733059 c 0
 41.4709653629 45.6734743611 42.5688374722 54.7736903584 44.1523277986 63.7468022078 c 0
 46.1204634404 74.899570845 51.065297707 84.4217108741 59.5953351698 90.3766426877 c 0
 66.3300577849 95.0782414945 74.4194944819 97 83 97 c 2
 209.448138207 97 l 1
 292.303714075 604 l 1
 179 604 l 2
 171.295023181 604 164.203774786 605.467936918 158.346516392 609.508143597 c 0
 150.713808063 614.773016187 147.325 623.438577539 147.325 632.27925 c 0
 147.325 635.038869035 147.61387639 637.829784623 148.14017346 640.68367789 c 0
 149.475589585 649.3638827 150.626643472 658.10125769 152.152327799 666.746802208 c 0
 154.12046344 677.899570845 159.065297707 687.421710874 167.59533517 693.376642688 c 0
EndSplineSet
PickledDataWithLists: "(dp0
Vcom.schriftgestaltung.Glyphs.lastChange
p1
V2016-06-09 18:35:33 +0000
p2
s."
EndChar

StartChar: IJ
Encoding: 306 306 49
GlifName: I_J_
Width: 575
VWidth: 0
Flags: W
LayerCount: 2
Fore
SplineSet
122.116591687 666.530396366 m 0
 124.986678772 685.980170579 138.826681554 700 161 700 c 2
 296 700 l 2
 303.346394927 700 310.311838272 698.68206353 316.208369124 694.765349043 c 0
 323.929759009 689.636489314 327.621463857 680.895430723 327.621463857 671.569942486 c 0
 327.621463857 668.899430545 327.357763906 666.176382353 326.86749871 663.366191217 c 2
 322.908890693 637.635239103 l 2
 320.489350608 617.705894153 306.294804861 604 284 604 c 2
 267.551861793 604 l 1
 184.696285925 97 l 1
 208 97 l 2
 215.939234031 97 223.220598652 95.4227073959 229.079995564 90.9867372194 c 0
 236.665470392 85.2440062497 239.369337461 76.3043514462 239.369337461 67.5483645575 c 0
 239.369337461 65.1770998415 239.269483095 62.5290310486 238.83273321 60.1705816706 c 2
 233.883150938 33.4428374017 l 2
 232.477166706 22.7196287696 227.765656872 13.1475243634 219.258153689 7.03244622983 c 0
 212.47947997 2.16002731343 204.116938086 0 195 0 c 2
 40 0 l 2
 32.2459417201 0 25.0054214977 1.69033884321 19.1836600799 6.14330752159 c 0
 11.6916666446 11.8738089476 8.66666666667 20.8104847908 8.66666666667 29.9286694102 c 0
 8.66666666667 32.1476281141 8.76014893786 34.6309819268 9.1672667902 36.8294183294 c 2
 14.1171966377 63.5590395061 l 1
 16.8433279701 84.2408819634 32.7621336793 97 53 97 c 2
 79.4481382065 97 l 1
 162.303714075 604 l 1
 149 604 l 2
 141.24594172 604 134.005421498 605.690338843 128.18366008 610.143307522 c 0
 120.691666645 615.873808948 117.666666667 624.810484791 117.666666667 633.92866941 c 0
 117.666666667 636.002177722 117.809474523 638.105653178 118.077605998 640.250704981 c 0
 119.105743012 649.039070792 120.771801527 657.789260322 122.116591687 666.530396366 c 0
384.171342727 666.851291709 m 0
 387.896005765 686.716161249 402.308662975 700 423 700 c 2
 536 700 l 2
 543.541504747 700 550.533173788 698.771159083 556.454822479 694.891821229 c 0
 564.269088472 689.916025789 567.675 681.413407154 567.675 672.685914444 c 0
 567.675 669.934339762 567.386469491 667.13164961 566.863636994 664.227866329 c 2
 479.876549953 129.71571161 l 2
 470.70540346 73.4447439123 447.900601129 38.6599687764 410.885560133 20.0242805163 c 0
 381.682658349 5.32171206528 345.298789543 1 302 1 c 0
 294.004962483 1 286.631930769 2.41148290843 280.473444993 6.49602165222 c 0
 272.412191138 11.84254755 268.698992424 20.8893222638 268.698992424 30.4181873838 c 0
 268.698992424 32.4842831913 268.790380316 34.7942313681 269.16726679 36.8294183294 c 2
 274.117196638 63.5590395061 l 1
 276.84332797 84.2408819634 292.762133679 97 313 97 c 0
 328.758932831 97 342.257902732 98.7553749183 352.171404426 103.058300768 c 0
 364.151183892 108.258088322 372.213886658 116.87804573 375.123299201 135.071535358 c 2
 452.291042057 604 l 1
 411 604 l 2
 403.433614991 604 396.279713864 605.414694319 390.370839192 609.72031054 c 0
 382.678254348 615.325661801 379.666666667 624.360248312 379.666666667 633.665294925 c 0
 379.666666667 635.871926895 379.768096978 638.265180755 380.116591687 640.530396366 c 0
 381.46384113 649.287517744 382.539807638 658.149771237 384.171342727 666.851291709 c 0
EndSplineSet
PickledDataWithLists: "(dp0
Vcom.schriftgestaltung.Glyphs.lastChange
p1
V2016-06-09 18:35:33 +0000
p2
s."
EndChar

StartChar: J
Encoding: 74 74 57
GlifName: J_
Width: 575
VWidth: 0
Flags: W
AnchorPoint: "mark-top" 360 700 basechar 0
AnchorPoint: "mark-bottom" 248 0 basechar 0
LayerCount: 2
Fore
SplineSet
244.59533517 693.376642688 m 0
 251.330057785 698.078241495 259.419494482 700 268 700 c 2
 536 700 l 2
 543.704976819 700 550.796225214 698.532063082 556.653483608 694.491856403 c 0
 564.286191937 689.372323545 567.675 680.945979826 567.675 672.349359037 c 0
 567.675 669.660182573 567.384886827 666.940443223 566.856446994 664.159136382 c 2
 503.878768956 275.33918174 l 2
 484.137153021 153.029176046 433.685208799 77.7168774605 362.782818086 35.5976946893 c 0
 306.267221316 2.02490926055 237.965467849 -10 164 -10 c 0
 133.558664158 -10 86.9010853346 -7.98011065265 34.0286521322 3.19403555843 c 0
 19.8657043994 5.89282702963 8.91222446282 15.6449026066 8.91222446282 30.2108802571 c 0
 8.91222446282 35.7951758247 10.3594671779 41.3302252494 12.8083124677 46.9427568607 c 2
 23.7097178058 72.7097149324 l 2
 29.9325288983 89.0955545344 43.1047532176 98.7454335052 59.4090420656 98.7454335052 c 0
 62.5277951674 98.7454335052 65.6731868695 98.4245519308 68.9688776276 97.8058759412 c 0
 113.05166753 88.9893179608 155.598024392 87 176 87 c 0
 260.601296333 87 313.555622772 111.629632431 347.621792172 151.859304677 c 0
 375.039327136 184.237422465 390.829073865 227.866434077 399.122201715 279.133781525 c 2
 452.299412994 604 l 1
 256 604 l 2
 248.295023181 604 241.203774786 605.467936918 235.346516392 609.508143597 c 0
 227.713808063 614.773016187 224.325 623.438577539 224.325 632.27925 c 0
 224.325 635.038869035 224.61387639 637.829784623 225.14017346 640.68367789 c 0
 226.475589585 649.3638827 227.626643472 658.10125769 229.152327799 666.746802208 c 0
 231.12046344 677.899570845 236.065297707 687.421710874 244.59533517 693.376642688 c 0
EndSplineSet
PickledDataWithLists: "(dp0
Vcom.schriftgestaltung.Glyphs.lastChange
p1
V2016-06-09 18:35:33 +0000
p2
s."
EndChar

StartChar: K
Encoding: 75 75 59
GlifName: K_
Width: 575
VWidth: 0
Flags: W
AnchorPoint: "mark-top" 360 700 basechar 0
AnchorPoint: "mark-bottom" 248 0 basechar 0
LayerCount: 2
Fore
SplineSet
489.520343739 26.8707418224 m 0
 489.520343739 9.29927919353 472.716799035 0 455 0 c 2
 403 0 l 2
 384.332446507 0 373.929597549 8.94190154969 367.249164917 21.1590633976 c 2
 197.156389568 323 l 1
 190.519427919 323 l 1
 143.847672201 33.2531977922 l 2
 141.87953656 22.100429155 136.934702293 12.5782891259 128.40466483 6.62335731227 c 0
 121.669942215 1.92175850547 113.580505518 0 105 0 c 2
 70 0 l 2
 62.2950231806 0 55.2037747859 1.46793691809 49.3465163924 5.50814359662 c 0
 41.7138080629 10.6242633435 38.325 19.0449893523 38.325 27.6358789097 c 0
 38.325 30.3247701241 38.6154387632 33.0442381273 39.1444425718 35.8253190266 c 2
 39.1444425718 35.8253190266 142.123519559 667.332018231 142.152327799 667.499197335 c 0
 144.12046344 678.336857484 149.065297707 687.589960537 157.59533517 693.376642688 c 0
 164.330057785 698.078241495 172.419494482 700 181 700 c 2
 216 700 l 2
 223.704976819 700 230.796225214 698.532063082 236.653483608 694.491856403 c 0
 244.286191937 689.226983813 247.675 680.561422461 247.675 671.72075 c 0
 247.675 668.957978959 247.38546333 666.163839831 246.858022219 663.306542809 c 2
 205.679828955 399 l 1
 211.46170963 399 l 1
 458.599566687 681.722805146 l 2
 469.984702983 694.246455073 482.495883772 700 498 700 c 2
 551 700 l 2
 565.36339652 700 580.66127887 693.657960109 580.66127887 678.163380263 c 0
 580.66127887 669.723906232 576.284829066 661.93278167 569.398257999 654.572724925 c 2
 292.370752638 358.498214172 l 1
 483.514396481 44.9627357026 l 2
 487.322841786 39.1867362861 489.520343739 33.0903108195 489.520343739 26.8707418224 c 0
EndSplineSet
PickledDataWithLists: "(dp0
Vcom.schriftgestaltung.Glyphs.lastChange
p1
V2016-06-09 18:35:33 +0000
p2
s."
EndChar

StartChar: L
Encoding: 76 76 61
GlifName: L_
Width: 575
VWidth: 0
Flags: W
AnchorPoint: "mark-top" 360 700 basechar 0
AnchorPoint: "mark-bottom" 248 0 basechar 0
AnchorPoint: "mark-topright" 461 700 basechar 0
AnchorPoint: "mark-centerright" 394 400 basechar 0
LayerCount: 2
Fore
SplineSet
154.69593244 97 m 1
 502 97 l 2
 509.704976819 97 516.796225214 95.5320630819 522.653483608 91.4918564034 c 0
 530.286191937 86.2269838134 533.675 77.5614224612 533.675 68.72075 c 0
 533.675 65.9703515357 533.3880508 63.188865308 532.865094053 60.3449266941 c 0
 531.529034637 51.3265256389 530.431162528 42.2263096416 528.847672201 33.2531977922 c 0
 526.87953656 22.100429155 521.934702293 12.5782891259 513.40466483 6.62335731227 c 0
 506.669942215 1.92175850547 498.580505518 0 490 0 c 2
 70 0 l 2
 62.2950231806 0 55.2037747859 1.46793691809 49.3465163924 5.50814359662 c 0
 41.7138080629 10.6242633435 38.325 19.0449893523 38.325 27.6358789097 c 0
 38.325 30.3247701241 38.6154387632 33.0442381273 39.1444425718 35.8253190266 c 2
 39.1444425718 35.8253190266 142.123519559 667.332018231 142.152327799 667.499197335 c 0
 144.12046344 678.336857484 149.065297707 687.589960537 157.59533517 693.376642688 c 0
 164.330057785 698.078241495 172.419494482 700 181 700 c 2
 216 700 l 2
 223.704976819 700 230.796225214 698.532063082 236.653483608 694.491856403 c 0
 244.286191937 689.397508251 247.675 681.012616555 247.675 672.45828544 c 0
 247.675 669.782821063 247.384991572 667.076955129 246.856733188 664.309852262 c 2
 154.69593244 97 l 1
EndSplineSet
PickledDataWithLists: "(dp0
Vcom.schriftgestaltung.Glyphs.lastChange
p1
V2016-06-09 18:35:33 +0000
p2
s."
EndChar

StartChar: Lambda
Encoding: 923 923 63
GlifName: L_ambda
Width: 575
VWidth: 0
Flags: W
AnchorPoint: "mark-top" 360 700 basechar 0
LayerCount: 2
Fore
SplineSet
214.755437609 617.442351348 m 2
 240.266250629 677.393002229 292.47576404 710 361 710 c 0
 390.859582747 710 416.398230753 703.601046409 436.27953059 690.297756888 c 0
 461.323583213 674.011739494 475.980802849 647.691959165 478.958456271 614.1237513 c 2
 532.947235404 37.9407264068 l 2
 533.137425355 36.3273922323 533.234058681 34.7285705535 533.234058681 33.1453936473 c 0
 533.234058681 13.0391137765 517.026726271 0 497 0 c 2
 461 0 l 2
 451.023532962 0 441.72473062 2.67779298204 435.347387049 9.77496566455 c 0
 430.341388374 15.3460058082 428.108291734 22.2905362916 427.06020094 29.903246242 c 2
 374.053991725 596.515361228 l 2
 373.200826002 603.325862696 370.496484844 607.340271079 366.151015282 610.067404226 c 0
 362.515344764 612.349081141 356.937189953 614 349 614 c 0
 331.011174161 614 319.770892228 606.219092787 315.35030024 594.089192898 c 2
 75.3760862193 27.6043221433 l 1
 68.8435080152 9.07771916294 52.2316586311 0 34 0 c 2
 -1 0 l 2
 -8.1043676774 0 -14.6350093104 1.3318487303 -20.1131480359 4.89755437894 c 0
 -27.2638567199 9.42355281655 -30.8467478799 17.1151314149 -30.8467478799 24.9873642915 c 0
 -30.8467478799 30.2228860872 -29.5254362075 35.4120944004 -27.2629745618 40.7550917411 c 2
 214.755437609 617.442351348 l 2
EndSplineSet
PickledDataWithLists: "(dp0
Vcom.schriftgestaltung.Glyphs.lastChange
p1
V2015-12-22 12:18:02 +0000
p2
s."
EndChar

StartChar: Lslash
Encoding: 321 321 66
GlifName: L_slash
Width: 575
VWidth: 0
Flags: W
LayerCount: 2
Fore
SplineSet
314.248445754 516.578040094 m 0
 324.925038112 516.578040094 335.486960639 513.125522765 341.382205884 506.989695413 c 0
 346.42439547 499.332150198 351.68490648 491.77603701 356.522902595 483.989350286 c 0
 360.111255886 479.79639087 361.852668257 475.168168743 361.852668257 470.574421159 c 0
 361.852668257 457.530576149 354.790230798 445.46105765 343.683056257 437.771475276 c 0
 254.530383681 378.008444657 165.392094643 318.231030499 76.2303245427 258.477097405 c 0
 69.4030289313 254.275684721 62.0534791156 252.063641624 54.7795892259 252.063641624 c 0
 44.6238094241 252.063641624 34.8574672366 256.62446483 28.7853207529 265.298959806 c 0
 23.4176590495 273.014973505 17.887579432 280.642027058 12.6735301715 288.463100949 c 0
 9.02878379891 293.930220508 7.38765962172 300.121554959 7.38765962172 306.201398062 c 0
 7.38765962172 319.618701668 14.919831887 332.337786611 26.3171389637 340.228229971 c 0
 115.469987105 397.485685079 204.606489322 454.758713979 293.769675457 512.006319428 c 0
 300.30458902 515.042601811 307.335808392 516.578040094 314.248445754 516.578040094 c 0
EndSplineSet
Refer: 61 76 N 1 0 0 1 0 0 2
PickledDataWithLists: "(dp0
Vcom.schriftgestaltung.Glyphs.lastChange
p1
V2016-06-09 18:35:33 +0000
p2
s."
EndChar

StartChar: M
Encoding: 77 77 67
GlifName: M_
Width: 575
VWidth: 0
Flags: W
AnchorPoint: "mark-top" 360 700 basechar 0
AnchorPoint: "mark-bottom" 248 0 basechar 0
LayerCount: 2
Fore
SplineSet
554 700 m 2
 572 700 l 2
 580.015633879 700 587.268726126 698.57415824 593.281135947 694.581028039 c 0
 601.153078607 689.499220037 604.671662409 680.979441355 604.671662409 672.315764494 c 0
 604.671662409 669.680813636 604.390581628 667.023356496 603.882553059 664.311905764 c 2
 519.911904203 32.7257652173 l 2
 517.129290205 12.440267684 498.075721801 0 479 0 c 2
 445 0 l 2
 435.417917669 0 426.586323476 3.35269008028 420.920049135 10.4971281868 c 0
 416.480373939 16.0949836292 414.665282064 23.0341252406 414.665282064 30.1632442259 c 0
 414.665282064 32.1786681118 414.808167975 34.2149234138 415.080597344 36.2754426789 c 2
 472.8873096 508.8223762 l 1
 350.440268293 322.635779144 l 2
 340.809581573 307.075392123 326.790343083 300 310 300 c 2
 282 300 l 2
 274.751280458 300 267.929603836 301.108786212 261.865452105 304.479595349 c 0
 254.141313786 308.773121826 249.198347547 316.198191943 246.488706493 324.902283305 c 2
 182.720633473 511.172180811 l 1
 90.8058759412 33.0311223724 l 2
 87.0164704249 14.084094791 72.0409360416 0 52 0 c 2
 17 0 l 2
 -0.310014433321 0 -14.5748051223 11.2656527457 -14.5748051223 28.6303362544 c 0
 -14.5748051223 31.0446451926 -14.3286460106 33.3987728999 -13.8228243587 35.8576281517 c 2
 110.171342727 667.772089162 l 2
 111.733892728 675.874200281 114.855238152 683.363518124 120.573788236 689.207740969 c 0
 127.844030852 696.637756859 138.168981521 700 150 700 c 2
 168 700 l 2
 202.266428625 700 221.914855121 683.843041698 230.493624843 657.149609213 c 2
 314.901344211 411.346909957 l 1
 480.625151637 659.464474749 l 2
 498.268678661 686.980151691 523.025002155 700 554 700 c 2
EndSplineSet
PickledDataWithLists: "(dp0
Vcom.schriftgestaltung.Glyphs.lastChange
p1
V2016-06-09 18:35:33 +0000
p2
s."
EndChar

StartChar: N
Encoding: 78 78 69
GlifName: N_
Width: 575
VWidth: 0
Flags: W
AnchorPoint: "mark-top" 360 700 basechar 0
AnchorPoint: "mark-bottom" 248 0 basechar 0
LayerCount: 2
Fore
SplineSet
480.108159672 666.480362899 m 2
 482.836852069 686.399350989 499.380946611 700 519 700 c 2
 554 700 l 2
 561.549063504 700 568.486299009 698.766265502 574.36527554 695.003720522 c 0
 582.122979099 690.178967204 585.675 681.844783716 585.675 673.290839636 c 0
 585.675 670.621101086 585.381599734 667.92110946 584.852917494 665.146375858 c 2
 584.852917494 665.146375858 479.872141834 32.6421577299 479.847672201 32.5013463332 c 0
 477.87953656 21.6634584922 472.934702293 12.4101610376 464.40466483 6.62335731227 c 0
 457.669942215 1.92175850547 449.580505518 0 441 0 c 2
 423 0 l 2
 388.518730089 0 369.998883313 16.4757803057 360.559336074 42.6967448608 c 2
 201.700819505 496.182393901 l 1
 128.847672201 33.2531977922 l 0
 126.87953656 22.100429155 121.934702293 12.5782891259 113.40466483 6.62335731227 c 0
 106.669942215 1.92175850547 98.5805055181 0 90 0 c 2
 55 0 l 2
 47.2950231806 0 40.2037747859 1.46793691809 34.3465163924 5.50814359662 c 0
 26.7138080629 10.6242633435 23.325 19.0449893523 23.325 27.6358789097 c 0
 23.325 30.3247701241 23.6154387632 33.0442381273 24.1444425718 35.8253190266 c 2
 24.1444425718 35.8253190266 127.123519559 667.332018231 127.152327799 667.499197335 c 0
 129.12046344 678.336857484 134.065297707 687.589960537 142.59533517 693.376642688 c 0
 149.330057785 698.078241495 157.419494482 700 166 700 c 2
 186 700 l 2
 220.270169414 700 239.919083379 683.839556796 248.496399187 657.140975087 c 2
 404.531281901 200.115726901 l 1
 480.108159672 666.480362899 l 2
EndSplineSet
PickledDataWithLists: "(dp0
Vcom.schriftgestaltung.Glyphs.lastChange
p1
V2016-06-09 18:35:33 +0000
p2
s."
EndChar

StartChar: O
Encoding: 79 79 74
GlifName: O_
Width: 575
VWidth: 0
Flags: W
AnchorPoint: "mark-top" 360 700 basechar 0
AnchorPoint: "mark-bottom" 248 0 basechar 0
LayerCount: 2
Fore
SplineSet
101.119334802 455.614387512 m 0
 127.661764213 621.490775887 232.297296772 710 356 710 c 0
 463.139138252 710 545 640.947495527 545 514.432432432 c 0
 545 485.321327138 541.581213812 464.672745888 526.622803678 372.896982993 c 0
 521.307312772 340.284343765 514.516216225 298.61791554 505.87782457 244.367966964 c 0
 479.344062259 80.5316383537 375.819992407 -10 252 -10 c 0
 150.589898547 -10 67.248082005 50.4452220012 62.0074939978 166.701293253 c 0
 61.8015169709 171.911955337 61.6879722365 176.950760616 61.6879722365 182.004301219 c 0
 61.6879722365 219.918370771 67.955677989 256.899710156 87.8567347486 375.98389012 c 0
 91.7382832813 399.210346362 96.1345085421 425.515229903 101.119334802 455.614387512 c 0
168.956668154 179.428466832 m 0
 175.478552673 118.389487048 219.225162401 87 264 87 c 0
 321.855404686 87 383.508961855 142.853542424 401.126968998 248.468538728 c 0
 406.229747784 279.194823242 410.670297205 305.798799029 414.531539755 328.932081898 c 0
 434.894667721 450.930633709 439 476.272863885 439 497.424131627 c 0
 439 574.416046102 392.511623601 614 344 614 c 0
 286.168588271 614 223.486754679 557.157342469 205.873031002 451.568024343 c 0
 199.480443934 412.855224936 194.057523749 380.519441458 189.484926635 353.2538173 c 0
 173.315534032 256.838460656 167.920200264 223.977614933 167.920200264 199.171579164 c 0
 167.920200264 192.529223657 168.28843701 186.349301367 168.956668154 179.428466832 c 0
EndSplineSet
PickledDataWithLists: "(dp0
Vcom.schriftgestaltung.Glyphs.lastChange
p1
V2016-06-09 18:35:33 +0000
p2
s."
EndChar

StartChar: OE
Encoding: 338 338 75
GlifName: O_E_
Width: 575
VWidth: 0
Flags: W
LayerCount: 2
Fore
SplineSet
357.689411191 97 m 1
 466 97 l 2
 473.939234031 97 481.220598652 95.4227073959 487.079995564 90.9867372194 c 0
 494.665470392 85.2440062497 497.369337461 76.3043514462 497.369337461 67.5483645575 c 0
 497.369337461 65.1770998415 497.269483095 62.5290310486 496.83273321 60.1705816706 c 2
 491.883150938 33.4428374017 l 2
 490.477166706 22.7196287696 485.765656872 13.1475243634 477.258153689 7.03244622983 c 0
 470.47947997 2.16002731343 462.116938086 0 453 0 c 2
 248 0 l 2
 178.923162589 0 130.398053819 24.0466513959 101.66647959 65.5508996063 c 0
 78.8571109594 98.5002148658 69 141.23513165 69 189.583333333 c 0
 69 224.438077152 74.0857332873 254.290418348 98.1241995559 397.983967695 c 0
 100.587283079 412.707420089 103.241658409 428.573256109 106.120496025 445.817906167 c 0
 129.486573104 591.009290917 210.47400274 700 359 700 c 2
 553 700 l 2
 560.346394927 700 567.311838272 698.68206353 573.208369124 694.765349043 c 0
 580.929759009 689.636489314 584.621463857 680.895430723 584.621463857 671.569942486 c 0
 584.621463857 668.899430545 584.357763906 666.176382353 583.86749871 663.366191217 c 2
 579.908890693 637.635239103 l 2
 577.489350608 617.705894153 563.294804861 604 541 604 c 2
 440.54216682 604 l 1
 408.709587635 413 l 1
 499 413 l 2
 506.522546594 413 513.578100122 411.431904254 519.403898735 407.360923582 c 0
 526.942865767 402.092806519 530.621463857 393.434283282 530.621463857 384.260814262 c 0
 530.621463857 381.663081929 530.357973325 379.030947821 529.865239728 376.345910004 c 0
 528.525611146 367.303417071 527.51149008 358.123816594 525.828657273 349.148708291 c 0
 522.103994235 329.283838751 507.691337025 316 487 316 c 2
 393.55688107 316 l 1
 357.689411191 97 l 1
201.327204504 386.129157835 m 0
 178.019830673 241.528611735 175 222.24723161 175 196 c 0
 175 167.239704315 179.700639895 142.098602988 190.051479173 123.695477282 c 0
 201.731147676 102.929778785 220.622312296 89.2922234806 252.48950265 87.2630970999 c 1
 335.220680658 613.47186885 l 1
 259.660920168 606.554755371 225.089881437 532.600146193 210.869417835 445.381302764 c 0
 207.361488688 423.566368382 204.193564481 403.912251756 201.327204504 386.129157835 c 0
EndSplineSet
PickledDataWithLists: "(dp0
Vcom.schriftgestaltung.Glyphs.lastChange
p1
V2016-06-09 18:35:33 +0000
p2
s."
EndChar

StartChar: Oslash
Encoding: 216 216 83
GlifName: O_slash
Width: 575
VWidth: 0
Flags: W
LayerCount: 2
Fore
SplineSet
10.5199315498 -40.6996739508 m 2
 85.1856032894 78.0751529262 l 1
 69.5490913866 106.532855949 61.6879722365 139.810619653 61.6879722365 181.42008115 c 0
 61.6879722365 219.376102105 67.955677989 256.398360839 87.8567347486 375.614305831 c 0
 91.7382832813 398.866461832 96.1345085421 425.200451369 101.119334802 455.332913287 c 0
 127.661764213 621.392841633 232.297296772 710 356 710 c 0
 396.449674267 710 433.594467396 700.033078028 464.136673502 680.118200387 c 1
 517.46375331 767.208578342 l 2
 524.296093165 778.374802053 534.202653676 786.415089105 546.551768324 786.415089105 c 0
 552.327917734 786.415089105 557.867246785 784.642620911 562.965124873 781.680749405 c 2
 562.965124873 781.680749405 585.909910405 768.711957583 586.027985195 768.644154205 c 0
 595.569992054 763.077983536 602.096214102 753.789689027 602.096214102 742.592447595 c 0
 602.096214102 735.482313551 599.657172838 728.526331081 595.534561989 721.788669315 c 2
 525.606735426 610.625143651 l 1
 538.174403729 583.585556249 545 551.483907241 545 514.660863964 c 0
 545 485.537078495 541.581213812 464.879503166 526.622803678 373.063764714 c 0
 521.307312772 340.43692012 514.516216225 298.752342891 505.87782457 244.478764201 c 0
 479.344062259 80.5710719956 375.819992407 -10 252 -10 c 0
 214.799104883 -10 179.943854502 -1.81778784746 150.370400336 14.7750088655 c 1
 88.4200064548 -86.3984154618 l 2
 81.4194473342 -97.2881740938 71.6466073278 -105.373841463 59.2786737799 -105.373841463 c 0
 53.5651338038 -105.373841463 48.0861734716 -103.6155108 43.0348923214 -100.680759124 c 2
 43.0348923214 -100.680759124 20.090089595 -87.7119575828 19.9720148053 -87.6441542046 c 0
 10.43043393 -82.0782320274 3.76700051381 -72.755074587 3.76700051381 -61.4491910627 c 0
 3.76700051381 -54.3330185513 6.25367618717 -47.3657799486 10.5199315498 -40.6996739508 c 2
189.484926633 343.358326484 m 0
 175.983552835 259.796643498 169.9940454 222.227946124 168.385050731 197.115550275 c 1
 406.807665327 586.492127957 l 1
 389.613468372 604.630574902 352.565105769 610.248740782 344 614 c 1
 286.168588271 614 223.486754679 555.000125864 205.873031002 445.40362299 c 0
 199.480443934 405.221647129 194.057523748 371.658699189 189.484926633 343.358326484 c 0
401.126968998 254.59637701 m 0
 411.261004683 317.934100044 433.533464702 456.00883291 436.760180636 482.488496219 c 1
 206.955908198 107.186844191 l 1
 223.402684185 93.89330441 257.558941774 89.2793708292 264 87 c 1
 321.855404686 87 383.508961855 144.973221454 401.126968998 254.59637701 c 0
EndSplineSet
PickledDataWithLists: "(dp0
Vcom.schriftgestaltung.Glyphs.lastChange
p1
V2016-06-09 18:35:33 +0000
p2
s."
EndChar

StartChar: P
Encoding: 80 80 85
GlifName: P_
Width: 575
VWidth: 0
Flags: W
AnchorPoint: "mark-top" 360 700 basechar 0
AnchorPoint: "mark-bottom" 248 0 basechar 0
LayerCount: 2
Fore
SplineSet
157.59533517 693.376642688 m 0
 164.330057785 698.078241495 172.419494482 700 181 700 c 2
 316 700 l 2
 390.386188978 700 448.037228881 683.457649262 489.366069567 654.646751188 c 0
 541.209111739 618.506259969 566 563.698583349 566 502.391304348 c 0
 566 350.361996257 421.268418486 250 247 250 c 2
 180.514151963 250 l 1
 143.847672201 32.202199555 l 2
 141.87953656 21.4895965353 136.934702293 12.343266207 128.40466483 6.62335731227 c 0
 121.669942215 1.92175850547 113.580505518 0 105 0 c 2
 70 0 l 2
 62.2950231806 0 55.2037747859 1.46793691809 49.3465163924 5.50814359662 c 0
 41.7138080629 10.6242633435 38.325 19.0449893523 38.325 27.6358789097 c 0
 38.325 30.3247701241 38.6154387632 33.0442381273 39.1444425718 35.8253190266 c 2
 39.1444425718 35.8253190266 142.123519559 667.332018231 142.152327799 667.499197335 c 0
 144.12046344 678.336857484 149.065297707 687.589960537 157.59533517 693.376642688 c 0
259 347 m 2
 376.198402148 347 460 407.465055148 460 489.456928839 c 0
 460 568.459474182 395.992642952 604 304 604 c 2
 237.555463488 604 l 1
 195.69135199 347 l 1
 259 347 l 2
EndSplineSet
PickledDataWithLists: "(dp0
Vcom.schriftgestaltung.Glyphs.lastChange
p1
V2016-06-09 18:35:33 +0000
p2
s."
EndChar

StartChar: Phi
Encoding: 934 934 86
GlifName: P_hi
Width: 575
VWidth: 0
Flags: W
AnchorPoint: "mark-top" 360 700 basechar 0
LayerCount: 2
Fore
SplineSet
626.903573387 637.600676617 m 2
 624.238518474 616.82482624 608.289910911 604 588 604 c 2
 397.624543296 604 l 1
 389.394781221 550.733261725 l 1
 494.648652476 536.29195836 559 476.791450952 559 384.636363636 c 0
 559 256.194393524 459.512456687 167.058849999 322.676089035 148.938236358 c 1
 313.75353462 96 l 1
 501 96 l 2
 508.522546594 96 515.578100122 94.4319042544 521.403898735 90.3609235816 c 0
 528.942865767 85.0928065188 532.621463857 76.434283282 532.621463857 67.2608142618 c 0
 532.621463857 64.6538113083 532.356089313 62.0121606003 531.859955663 59.3171614096 c 2
 527.908890693 33.6352391026 l 2
 525.489350608 13.7058941533 511.294804861 0 489 0 c 2
 7 0 l 2
 -0.93923403122 0 -8.22059865166 1.5772926041 -14.0799955638 6.0132627806 c 0
 -21.6654703917 11.7559937503 -24.3693374609 20.6956485538 -24.3693374609 29.4516354425 c 0
 -24.3693374609 31.681307948 -24.2110719536 33.9412813645 -23.9223940016 36.2507049809 c 0
 -22.8857164572 45.1120740071 -21.4715091976 54.08941478 -19.8286572734 62.8512917091 c 0
 -18.2643758622 71.194125902 -15.1719500402 78.7768408449 -9.75664257288 84.7328953675 c 0
 -2.86066635037 92.3174712418 6.98817217174 96 18 96 c 2
 208.489708623 96 l 1
 217.471182101 149.287807917 l 1
 112.247265478 163.821422414 48 224.184225411 48 315.363636364 c 0
 48 444.675374693 146.493813696 532.966114509 283.316385436 550.150311519 c 1
 292.27154623 604 l 1
 105 604 l 2
 97.3646815508 604 90.2358763058 605.639082214 84.5458068555 610.126972012 c 0
 77.2299720638 615.897140657 74.628817458 624.707475245 74.628817458 633.412916197 c 0
 74.628817458 635.650887344 74.7867880561 637.924161442 75.0776059984 640.250704981 c 0
 76.1142835428 649.112074007 77.5284908024 658.08941478 79.1713427266 666.851291709 c 0
 80.7347460616 675.189442829 83.8412257198 682.832383812 89.4089116067 688.817449263 c 0
 96.4949993233 696.43474299 106.586231654 700 118 700 c 2
 600 700 l 2
 607.346394927 700 614.311838272 698.68206353 620.208369124 694.765349043 c 0
 627.929759009 689.636489314 631.621463857 680.895430723 631.621463857 671.569942486 c 0
 631.621463857 668.899430545 631.357763906 666.176382353 630.86749871 663.366191217 c 2
 626.903573387 637.600676617 l 2
154 329 m 0
 154 283.289986961 180.610106898 252.042019733 233.725803253 239.863339045 c 1
 267.883914853 459.194371423 l 1
 196.667860815 441.591456868 154 392.346071251 154 329 c 0
339.116085147 240.805628577 m 1
 410.332139185 258.408543133 453 307.653928749 453 371 c 0
 453 416.566403408 425.589593686 447.883876871 373.268754184 460.101713974 c 1
 339.116085147 240.805628577 l 1
EndSplineSet
PickledDataWithLists: "(dp0
Vcom.schriftgestaltung.Glyphs.lastChange
p1
V2015-12-22 12:22:42 +0000
p2
s."
EndChar

StartChar: Pi
Encoding: 928 928 87
GlifName: P_i
Width: 575
VWidth: 0
Flags: W
AnchorPoint: "mark-top" 360 700 basechar 0
LayerCount: 2
Fore
SplineSet
157.59533517 693.376642688 m 0
 164.330057785 698.078241495 172.419494482 700 181 700 c 2
 536 700 l 2
 543.541504747 700 550.533173788 698.771159083 556.454822479 694.891821229 c 0
 564.269088472 689.917248003 567.675 681.416717882 567.675 672.691368923 c 0
 567.675 669.940042126 567.386379704 667.137596513 566.863392948 664.234043376 c 2
 463.90070161 32.8280638113 l 2
 462.51669951 22.3546389178 457.801409296 12.9997199979 449.258153689 7.03244622983 c 0
 442.47947997 2.16002731343 434.116938086 0 425 0 c 2
 390 0 l 2
 382.24594172 0 375.005421498 1.69033884321 369.18366008 6.14330752159 c 0
 361.691666645 11.6883128125 358.666666667 20.3357087643 358.666666667 29.1587380595 c 0
 358.666666667 31.2131676753 358.825645112 33.325690187 359.097999026 35.4339928055 c 2
 452.287789219 604 l 1
 237.540257525 604 l 1
 143.900612698 32.7168998744 l 2
 142.51649757 22.2886082861 137.801226358 12.9740323004 129.258153689 7.03244622983 c 0
 122.47947997 2.16002731343 114.116938086 0 105 0 c 2
 70 0 l 2
 62.2459417201 0 55.0054214977 1.69033884321 49.1836600799 6.14330752159 c 0
 41.6916666446 11.7117548944 38.6666666667 20.3957086048 38.6666666667 29.2560381665 c 0
 38.6666666667 31.3189599918 38.8255843989 33.4400976635 39.0979164932 35.5571835781 c 2
 142.152327799 667.499873059 l 2
 144.12046344 678.33725021 149.065297707 687.590111641 157.59533517 693.376642688 c 0
EndSplineSet
PickledDataWithLists: "(dp0
Vcom.schriftgestaltung.Glyphs.lastChange
p1
V2015-12-22 12:20:26 +0000
p2
s."
EndChar

StartChar: Psi
Encoding: 936 936 88
GlifName: P_si
Width: 575
VWidth: 0
Flags: W
AnchorPoint: "mark-top" 360 700 basechar 0
LayerCount: 2
Fore
SplineSet
492.167037764 666.851967695 m 2
 495.891700803 686.716837235 510.308662975 700 531 700 c 2
 566 700 l 2
 573.541504747 700 580.533173788 698.771159083 586.454822479 694.891821229 c 0
 594.269088472 689.917248003 597.675 681.416717882 597.675 672.691368923 c 0
 597.675 669.942240429 597.386840733 667.142074773 596.864646094 664.241002975 c 2
 558.872141834 429.125446436 l 2
 538.647430553 307.275121262 462.185136128 231.978368987 334.655155975 216.806658092 c 1
 303.898103138 32.8084307421 l 2
 302.510804891 22.342948552 297.796070657 12.995991077 289.258153689 7.03244622983 c 0
 282.47947997 2.16002731343 274.116938086 0 265 0 c 2
 230 0 l 2
 222.24594172 0 215.005421498 1.69033884321 209.18366008 6.14330752159 c 0
 201.691666645 11.7132584762 198.666666667 20.3995570115 198.666666667 29.2622790229 c 0
 198.666666667 31.3314251996 198.827482938 33.4622679624 199.100314385 35.5837685679 c 2
 229.469116239 217.303736681 l 1
 185.411729135 223.448242339 149.817179614 237.329176719 123.366688336 259.130350022 c 0
 87.5749537971 288.630815602 70 331.718027813 70 385.077452195 c 0
 70 400.05350835 71.0180164995 416.150429696 74.1439298613 432.417704849 c 2
 112.167037764 667.780670407 l 2
 115.891700803 687.088989318 130.308662975 700 151 700 c 2
 186 700 l 2
 193.346394927 700 200.311838272 698.68206353 206.208369124 694.765349043 c 0
 213.929759009 689.636489314 217.621463857 680.895430723 217.621463857 671.569942486 c 0
 217.621463857 668.894382725 217.356766069 666.166087915 216.864716174 663.350254753 c 0
 204.176003025 582.579643698 191.507134667 501.789187851 178.805875941 421.031122372 c 0
 177.072876241 412.366123872 177 401.977930097 177 393 c 0
 177 370.413381279 181.834570748 351.83236686 191.441332158 337.393404462 c 0
 202.040186817 321.463325909 218.999379305 309.521435765 244.770056156 303.012145131 c 1
 302.167242808 666.851938488 l 2
 305.891905847 686.716808027 320.308662975 700 341 700 c 2
 376 700 l 2
 383.704976819 700 390.796225214 698.532063082 396.653483608 694.491856403 c 0
 404.286191937 689.226983813 407.675 680.561422461 407.675 671.72075 c 0
 407.675 668.95481992 407.384800821 666.157449977 406.856212008 663.296741191 c 2
 350.147837833 303.823318459 l 1
 411.026649386 319.345897525 444.367494937 362.491021977 454.121342847 424.560963222 c 2
 492.167037764 666.851967695 l 2
EndSplineSet
PickledDataWithLists: "(dp0
Vcom.schriftgestaltung.Glyphs.lastChange
p1
V2015-12-22 12:24:48 +0000
p2
s."
EndChar

StartChar: Q
Encoding: 81 81 89
GlifName: Q_
Width: 575
VWidth: 0
Flags: W
AnchorPoint: "mark-top" 360 700 basechar 0
LayerCount: 2
Fore
SplineSet
464.043656428 -199.529850898 m 0
 430.360394296 -211.060841521 355.766978554 -220.10274268 352.729762655 -220.10274268 c 0
 250.18659334 -219.99889659 189.326990205 -161.673230444 189.326990205 -52.2351480611 c 0
 189.326990205 -14.4753671784 197.832507712 28.2929926528 203.498957891 63 c 1
 309.766348231 63 l 1
 306.470313963 42.8117315917 303.174165873 22.6235770055 299.878079253 2.43536094917 c 0
 296.969979651 -16.0396247569 295.615913208 -31.9749541378 295.615913208 -45.5675173646 c 0
 295.615913208 -81.4588555476 304.825408117 -100.119057682 318.18517763 -110.125454977 c 0
 329.11747999 -118.313692108 344.80018199 -122 365 -122 c 0
 388.865245555 -122 411.503725228 -118.263446567 438.569956342 -108.604413175 c 0
 443.771905401 -106.661088998 448.831225611 -105.524782486 453.905311681 -105.524782204 c 0
 468.047604586 -105.524782204 479.018179143 -115.880383957 482.657339511 -129.397265325 c 0
 485.01888676 -138.168726535 487.380434009 -146.940187745 489.741981258 -155.711648955 c 0
 490.402662363 -159.01505448 490.819079927 -162.413067382 490.819079927 -165.762292605 c 0
 490.819079927 -181.246926365 481.381057251 -194.343787886 464.043656428 -199.529850898 c 0
EndSplineSet
Refer: 74 79 N 1 0 0 1 0 0 2
PickledDataWithLists: "(dp0
Vcom.schriftgestaltung.Glyphs.lastChange
p1
V2016-06-09 18:35:33 +0000
p2
s."
EndChar

StartChar: R
Encoding: 82 82 90
GlifName: R_
Width: 575
VWidth: 0
Flags: W
AnchorPoint: "mark-top" 360 700 basechar 0
AnchorPoint: "mark-bottom" 248 0 basechar 0
LayerCount: 2
Fore
SplineSet
157.59533517 693.376642688 m 0
 164.330057785 698.078241495 172.419494482 700 181 700 c 2
 339 700 l 2
 401.361316072 700 450.70483667 686.459878986 486.556857136 662.2732976 c 0
 531.566284808 631.908922834 554 585.274958857 554 531.805555556 c 0
 554 449.922095888 500.588989133 367.96295334 423.367564689 330.362771588 c 1
 525.489418962 41.961706299 l 2
 526.950594249 37.6999450455 527.736739241 33.4837647785 527.736739241 29.3198376832 c 0
 527.736739241 10.7519223089 511.692560416 0 493 0 c 2
 451 0 l 2
 431.861240927 0 420.321419735 10.0738848574 415.529921541 23.9876584574 c 2
 317.836707862 302 l 1
 188.52610976 302 l 1
 143.847672201 32.3811651362 l 2
 141.87953656 21.5936100445 136.934702293 12.3832862677 128.40466483 6.62335731227 c 0
 121.669942215 1.92175850547 113.580505518 0 105 0 c 2
 70 0 l 2
 62.2950231806 0 55.2037747859 1.46793691809 49.3465163924 5.50814359662 c 0
 41.7138080629 10.6242633435 38.325 19.0449893523 38.325 27.6358789097 c 0
 38.325 30.3247701241 38.6154387632 33.0442381273 39.1444425718 35.8253190266 c 2
 39.1444425718 35.8253190266 142.123519559 667.332018231 142.152327799 667.499197335 c 0
 144.12046344 678.336857484 149.065297707 687.589960537 157.59533517 693.376642688 c 0
203.698894771 399 m 1
 290 399 l 2
 379.651729381 399 447 450.996061672 447 514.372093023 c 0
 447 561.11870513 412.826211064 604 327 604 c 2
 237.549958601 604 l 1
 203.698894771 399 l 1
EndSplineSet
PickledDataWithLists: "(dp0
Vcom.schriftgestaltung.Glyphs.lastChange
p1
V2016-06-09 18:35:33 +0000
p2
s."
EndChar

StartChar: S
Encoding: 83 83 94
GlifName: S_
Width: 575
VWidth: 0
Flags: W
AnchorPoint: "mark-top" 360 700 basechar 0
AnchorPoint: "mark-bottom" 248 0 basechar 0
LayerCount: 2
Back
SplineSet
531 652 m 258
 517 625 l 258
 510 610 498 605 484 611 c 256
 451 624 415 634 377 634 c 259
 294 634 210 586 210 511 c 259
 210 463 242 419 316 403 c 256
 446 375 507 307 507 220 c 259
 507 78 363 -10 209 -10 c 259
 161 -10 107 0 65 20 c 256
 51 26 48 38 57 53 c 258
 72 78 l 258
 80 93 92 98 106 92 c 264
 150.201684494 73.0564209313 192 69 226 69 c 259
 323 69 419 118 419 204 c 259
 419 256 382 299 295 318 c 256
 171 345 122 415 122 493 c 259
 122 623 248 710 389 710 c 259
 432 710 486 701 525 683 c 256
 538 676 538 668 531 652 c 258
EndSplineSet
Fore
SplineSet
63.2951103742 92.9282405418 m 2
 70.1574284069 105.653878469 81.1305930899 114.475217796 94.8996616773 114.475217796 c 0
 100.003356978 114.475217796 105.040668019 113.292406638 109.931953191 111.196141564 c 0
 152.504560362 92.9507384913 192.811096846 89 226 89 c 0
 321.336903965 89 409 135.479669817 409 210.099843994 c 0
 409 275.505301931 354.535617322 292.479519313 285.09544313 313.329025112 c 0
 206.187019801 337.021385463 112 365.55931067 112 490.082683307 c 0
 112 623.32799078 244.711397934 710 389 710 c 0
 433.480176918 710 488.503246512 700.859690843 529.460377665 681.956399542 c 0
 538.642571833 677.012141144 545.671370738 669.255070044 545.671370738 658.546809244 c 0
 545.671370738 651.668904359 543.413997986 644.215606397 539.883575383 637.406934235 c 2
 525.974194441 610.581699561 l 2
 519.817992024 597.534337737 508.87606823 588.524782204 495.07926922 588.524782204 c 0
 490.038587525 588.524782204 485.057678411 589.684642267 480.212014954 591.742437678 c 0
 447.907338208 604.457590944 413.161068665 614 377 614 c 0
 296.291421588 614 220 568.837522173 220 504.50931677 c 0
 220 437.491431361 275.519379742 419.702831925 345.475555511 398.046887292 c 0
 423.941296208 373.756683925 517 344.752612856 517 222.546583851 c 0
 517 77.1368052114 365.672052779 -10 209 -10 c 0
 159.699548272 -10 104.616566038 0.0988329393271 60.8763574193 20.8866104522 c 0
 49.7717807379 25.7151329547 41.8834900668 35.2072402006 41.883489572 47.3255276991 c 0
 41.883489572 54.4471205063 44.357763329 61.3659954664 48.4187120361 68.1342433115 c 2
 63.2951103742 92.9282405418 l 2
EndSplineSet
PickledDataWithLists: "(dp0
Vcom.schriftgestaltung.Glyphs.lastChange
p1
V2016-06-09 18:35:33 +0000
p2
s."
EndChar

StartChar: T
Encoding: 84 84 100
GlifName: T_
Width: 575
VWidth: 0
Flags: W
AnchorPoint: "mark-top" 360 700 basechar 0
AnchorPoint: "mark-bottom" 248 0 basechar 0
LayerCount: 2
Fore
SplineSet
94.5953351698 693.376642688 m 0
 101.330057785 698.078241495 109.419494482 700 118 700 c 2
 600 700 l 2
 607.704976819 700 614.796225214 698.532063082 620.653483608 694.491856403 c 0
 628.286191937 689.226983813 631.675 680.561422461 631.675 671.72075 c 0
 631.675 668.961130965 631.38612361 666.170215377 630.85982654 663.31632211 c 0
 629.524410415 654.6361173 628.373356528 645.89874231 626.847672201 637.253197792 c 0
 624.87953656 626.100429155 619.934702293 616.578289126 611.40466483 610.623357312 c 0
 604.669942215 605.921758505 596.580505518 604 588 604 c 2
 397.540257525 604 l 1
 303.847672201 32.3905205013 l 2
 301.87953656 21.5990473154 296.934702293 12.3853783028 288.40466483 6.62335731227 c 0
 281.669942215 1.92175850547 273.580505518 0 265 0 c 2
 230 0 l 2
 222.295023181 0 215.203774786 1.46793691809 209.346516392 5.50814359662 c 0
 201.713808063 10.6027674587 198.325 18.9881129515 198.325 27.5429070339 c 0
 198.325 30.2207130871 198.615484861 32.9289722904 199.144568515 35.6985977079 c 2
 292.287789219 604 l 1
 106 604 l 2
 98.2950231806 604 91.2037747859 605.467936918 85.3465163924 609.508143597 c 0
 77.7138080629 614.773016187 74.325 623.438577539 74.325 632.27925 c 0
 74.325 635.038869035 74.6138763902 637.829784623 75.1401734602 640.68367789 c 0
 76.4755895848 649.3638827 77.6266434719 658.10125769 79.1523277986 666.746802208 c 0
 81.1204634404 677.899570845 86.065297707 687.421710874 94.5953351698 693.376642688 c 0
EndSplineSet
PickledDataWithLists: "(dp0
Vcom.schriftgestaltung.Glyphs.lastChange
p1
V2016-06-09 18:35:33 +0000
p2
s."
EndChar

StartChar: Theta
Encoding: 920 920 104
GlifName: T_heta
Width: 575
VWidth: 0
Flags: W
AnchorPoint: "mark-top" 360 700 basechar 0
LayerCount: 2
Fore
SplineSet
349.882803362 345.440960494 m 1
 347.15667203 324.759118037 331.237866321 312 311 312 c 2
 282 312 l 2
 274.24594172 312 267.005421498 313.690338843 261.18366008 318.143307522 c 0
 253.691666645 323.873808948 250.666666667 332.810484791 250.666666667 341.92866941 c 0
 250.666666667 344.147628114 250.760148938 346.630981927 251.16726679 348.829418329 c 2
 256.117196638 375.559039506 l 1
 258.84332797 396.240881963 274.762133679 409 295 409 c 2
 324 409 l 2
 331.75405828 409 338.994578502 407.309661157 344.81633992 402.856692478 c 0
 352.308333355 397.126191052 355.333333333 388.189515209 355.333333333 379.07133059 c 0
 355.333333333 376.852371886 355.239851062 374.369018073 354.83273321 372.170581671 c 2
 349.882803362 345.440960494 l 1
EndSplineSet
Refer: 74 79 N 1 0 0 1 0 0 2
PickledDataWithLists: "(dp0
Vcom.schriftgestaltung.Glyphs.lastChange
p1
V2016-05-30 08:32:14 +0000
p2
s."
EndChar

StartChar: Thorn
Encoding: 222 222 105
GlifName: T_horn
Width: 575
VWidth: 0
Flags: W
LayerCount: 2
Fore
SplineSet
105 0 m 2
 70 0 l 2
 62.2459417201 0 55.0054214977 1.69033884321 49.1836600799 6.14330752159 c 0
 41.6916666446 11.7132584762 38.6666666667 20.3995570115 38.6666666667 29.2622790229 c 0
 38.6666666667 31.3257568751 38.825579887 33.4474700979 39.0979168681 35.5651258002 c 2
 142.167436907 667.780614942 l 2
 145.892099946 687.088933853 160.308662975 700 181 700 c 2
 216 700 l 2
 223.522546594 700 230.578100122 698.431904254 236.403898735 694.360923582 c 0
 243.942865767 689.240298267 247.621463857 680.824188156 247.621463857 671.907549226 c 0
 247.621463857 669.367145108 247.354749333 666.792893218 246.856198233 664.166478545 c 2
 242.901479524 639.821156341 l 1
 273.803668797 642.626936553 319.557807534 643.465989482 321 643.465951506 c 0
 383.316785041 643.464310553 431.581378636 633.472941035 466.318270729 608.354564742 c 0
 510.106373662 576.691224116 529 523.115294086 529 445.177350135 c 0
 529 360.211472874 512.874906007 286.268201722 476.212531383 229.852032471 c 0
 430.148692263 158.968862169 352.15742507 117.612356695 239 117.612356695 c 0
 220.360611661 117.612356695 192.485649687 118.440360672 158.400177165 121.603471937 c 1
 143.900564965 32.6372065631 l 2
 141.226537994 12.4564069522 125.282290483 0 105 0 c 2
393.07587223 284.537126998 m 0
 413.925673171 323.085376994 423 375.062589629 423 435 c 0
 423 477.699730723 416.199886612 505.852409042 402.918270684 523.545418831 c 0
 386.628483605 545.245742334 358.076053523 555 309 555 c 0
 292.241508826 555 263.567598338 552.588033185 227.635589808 552.588033185 c 1
 173.573002977 211.14011636 l 1
 205.704895357 208.804195173 250.281647858 208.000285428 251 208 c 0
 323.543562239 207.971175753 367.274336443 236.833839343 393.07587223 284.537126998 c 0
EndSplineSet
PickledDataWithLists: "(dp0
Vcom.schriftgestaltung.Glyphs.lastChange
p1
V2016-06-09 18:35:33 +0000
p2
s."
EndChar

StartChar: U
Encoding: 85 85 106
GlifName: U_
Width: 575
VWidth: 0
Flags: W
AnchorPoint: "mark-top" 360 700 basechar 0
AnchorPoint: "mark-bottom" 248 0 basechar 0
AnchorPoint: "mark-ogonek" 326 5 basechar 0
LayerCount: 2
Fore
SplineSet
429.672493325 52.6412818872 m 0
 385.721790189 7.38533164927 326.263600069 -10 259 -10 c 0
 142.810765722 -10 57 41.6364317284 57 157.244524364 c 0
 57 176.416580306 58.5911942643 196.352518986 62.0898550162 217.882058604 c 2
 135.152327799 667.483067078 l 2
 137.12046344 678.327482694 142.065297707 687.586353509 150.59533517 693.376642688 c 0
 157.330057785 698.078241495 165.419494482 700 174 700 c 2
 209 700 l 2
 216.704976819 700 223.796225214 698.532063082 229.653483608 694.491856403 c 0
 237.286191937 689.394523696 240.675 681.004719659 240.675 672.445376936 c 0
 240.675 669.767067054 240.384714595 667.058308752 239.855976422 664.288204378 c 2
 166.888720188 217.190698743 l 2
 163.920367964 197.06400776 162.004312065 167.623405842 162 166.358756549 c 0
 161.883190746 132.100755614 175.489570511 112.325281556 197.81686978 100.347545876 c 0
 216.053510409 90.5642909228 241.319561269 86 271 86 c 0
 316.116847142 86 343.272797873 96.2855089047 362.317689672 121.210961598 c 0
 377.86797435 141.562764549 388.664763306 173.433279195 396.122831474 220.152958519 c 2
 396.122831474 220.152958519 469.122831474 667.424963609 469.152327799 667.59572895 c 0
 471.12046344 678.392960965 476.065297707 687.611546817 484.59533517 693.376642688 c 0
 491.330057785 698.078241495 499.419494482 700 508 700 c 2
 543 700 l 2
 550.704976819 700 557.796225214 698.532063082 563.653483608 694.491856403 c 0
 571.286191937 689.372323545 574.675 680.945979826 574.675 672.349359037 c 0
 574.675 669.659384362 574.384714576 666.938828654 573.855976371 664.156659692 c 2
 500.880665198 215.062521845 l 2
 489.124286864 141.634953537 464.735388619 88.7454743441 429.672493325 52.6412818872 c 0
EndSplineSet
PickledDataWithLists: "(dp0
Vcom.schriftgestaltung.Glyphs.lastChange
p1
V2016-06-09 18:35:33 +0000
p2
s."
EndChar

StartChar: V
Encoding: 86 86 117
GlifName: V_
Width: 575
VWidth: 0
Flags: W
AnchorPoint: "mark-top" 360 700 basechar 0
AnchorPoint: "mark-bottom" 248 0 basechar 0
LayerCount: 2
Fore
SplineSet
233.984416136 103.003137307 m 0
 234.567644056 92.8393738756 244.613726391 86 259 86 c 0
 272.954982538 86 287.369700859 93.3937640899 292.738482264 106.120360558 c 2
 531.711130431 672.600578412 l 2
 538.929739066 690.077809096 553.137761125 700 572 700 c 2
 608 700 l 2
 623.544799664 700 638.119474479 691.272393486 638.119474479 674.881982245 c 0
 638.119474479 669.650712395 636.689723066 664.425078964 634.169394027 659.149236214 c 2
 392.299807011 82.7078832654 l 2
 367.853510143 22.7496637896 315.808929515 -10 253 -10 c 0
 190.824006963 -10 134.72222197 22.5783132221 128.041543729 85.3960264913 c 0
 110.035045688 277.752888284 92.0160443109 470.097589296 74.0174595381 662.462147554 c 0
 73.9561449193 663.47593858 73.9248745289 664.48276917 73.9248745289 665.482864609 c 0
 73.9248745289 673.855399962 76.1432207606 681.818608799 81.3755238553 688.141874791 c 0
 88.0258733662 696.178857385 98.3764826712 700 110 700 c 2
 145 700 l 2
 153.011511605 700 160.613849138 698.379763901 166.951864337 693.991258037 c 0
 175.068193091 688.550407783 179.247971409 679.624481174 179.968358294 669.611548488 c 0
 197.971723119 480.740153612 215.991330037 291.884483557 233.984416136 103.003137307 c 0
EndSplineSet
PickledDataWithLists: "(dp0
Vcom.schriftgestaltung.Glyphs.lastChange
p1
V2016-06-09 18:35:33 +0000
p2
s."
EndChar

StartChar: X
Encoding: 88 88 123
GlifName: X_
Width: 575
VWidth: 0
Flags: W
AnchorPoint: "mark-top" 360 700 basechar 0
AnchorPoint: "mark-bottom" 248 0 basechar 0
LayerCount: 2
Fore
SplineSet
509.63653395 41.6588775688 m 0
 510.759387191 37.7298794958 511.362981551 33.8642169574 511.362981551 30.0546359022 c 0
 511.362981551 20.5905954791 507.270064483 11.7500723926 499.304300223 6.28171659102 c 0
 493.092685479 1.89461684842 485.403624368 0 477 0 c 2
 446 0 l 2
 428.723057221 0 414.907707008 8.38236142579 409.527673343 24.0258439274 c 2
 315.558443818 292.416237879 l 2
 308.505814589 311.946595745 302.175395304 315 300 315 c 0
 295.186576684 315 285.113942077 309.268801171 273.469487523 290.458517201 c 2
 90.3264698285 21.7719286124 l 2
 80.8918768741 8.05548193251 67.3403554908 0 50 0 c 2
 19 0 l 2
 12.1876180615 0 5.93488511712 1.1855410111 0.580714969432 4.37767804249 c 0
 -6.41157074465 8.42994599384 -10.4820726765 15.720860314 -10.4820726765 23.5299644537 c 0
 -10.4820726765 30.4580172783 -8.01241649473 37.3166280645 -3.54150449303 44.0643032387 c 2
 186.533563432 330.933026348 l 2
 193.120284049 341.295139365 203.868120879 350.868073808 216.110598679 357.971042532 c 1
 206.539604792 365.306990105 198.804069728 374.802454746 195.433948533 386.099857773 c 2
 104.521736566 658.983047659 l 2
 103.004485508 663.198725634 102.166647171 667.408836451 102.166647171 671.608660861 c 0
 102.166647171 689.610963799 117.977083266 700 137 700 c 2
 168 700 l 2
 175.248719542 700 182.070396164 698.891213788 188.134547895 695.520404651 c 0
 195.853839471 691.370015674 200.795448132 684.194381869 203.506190131 675.782019646 c 2
 294.541485639 421.291613591 l 2
 300.444904933 403.209331792 306.461321414 400 310 400 c 0
 313.963670947 400 324.00112533 404.879415628 336.624779872 423.673938519 c 2
 508.552954478 678.083784288 l 2
 518.386222002 693.460083626 533.374609344 700 550 700 c 2
 581 700 l 2
 595.961259317 700 610.482072677 692.459143658 610.482072677 676.877597103 c 0
 610.482072677 670.001215766 607.793577069 663.419885253 603.426724247 656.860228575 c 2
 423.417956581 383.72120386 l 2
 416.223439364 372.843342961 405.627571108 363.478361709 393.334125712 356.27450961 c 1
 403.232262816 348.779553651 410.441940102 339.116877943 414.43633197 329.022482004 c 0
 446.1676408 233.232580647 477.916023768 137.459274971 509.63653395 41.6588775688 c 0
EndSplineSet
PickledDataWithLists: "(dp0
Vcom.schriftgestaltung.Glyphs.lastChange
p1
V2016-06-09 18:35:33 +0000
p2
s."
EndChar

StartChar: Xi
Encoding: 926 926 124
GlifName: X_i
Width: 575
VWidth: 0
Flags: W
AnchorPoint: "mark-top" 360 700 basechar 0
LayerCount: 2
Fore
SplineSet
566.908890693 637.635239103 m 2
 564.489350608 617.705894153 550.294804861 604 528 604 c 2
 165 604 l 2
 157.433614991 604 150.279713864 605.414694319 144.370839192 609.72031054 c 0
 136.678254348 615.325661801 133.666666667 624.360248312 133.666666667 633.665294925 c 0
 133.666666667 635.871926895 133.768096978 638.265180755 134.116591687 640.530396366 c 0
 135.45986188 649.261652619 136.617667408 658.050393327 138.152327799 666.746802208 c 0
 140.12046344 677.899570845 145.065297707 687.421710874 153.59533517 693.376642688 c 0
 160.330057785 698.078241495 168.419494482 700 177 700 c 2
 540 700 l 2
 547.346394927 700 554.311838272 698.68206353 560.208369124 694.765349043 c 0
 567.929759009 689.636489314 571.621463857 680.895430723 571.621463857 671.569942486 c 0
 571.621463857 668.899430545 571.357763906 666.176382353 570.86749871 663.366191217 c 2
 566.908890693 637.635239103 l 2
112.171342727 379.851291709 m 0
 115.896005765 399.716161249 130.308662975 413 151 413 c 2
 472 413 l 2
 479.522546594 413 486.578100122 411.431904254 492.403898735 407.360923582 c 0
 499.942865767 402.092806519 503.621463857 393.434283282 503.621463857 384.260814262 c 0
 503.621463857 381.663081929 503.357973325 379.030947821 502.865239728 376.345910004 c 0
 501.525611146 367.303417071 500.51149008 358.123816594 498.828657273 349.148708291 c 0
 495.103994235 329.283838751 480.691337025 316 460 316 c 2
 139 316 l 2
 131.477453406 316 124.421899878 317.568095746 118.596101265 321.639076418 c 0
 111.057134233 326.907193481 107.378536143 335.565716718 107.378536143 344.739185738 c 0
 107.378536143 347.336918071 107.642026675 349.969052179 108.134760272 352.654089996 c 0
 109.474388854 361.696582929 110.48850992 370.876183406 112.171342727 379.851291709 c 0
18.1171966377 63.5590395061 m 1
 20.8433279701 84.2408819634 36.7621336793 97 57 97 c 2
 464 97 l 2
 471.75405828 97 478.994578502 95.3096611568 484.81633992 90.8566924784 c 0
 492.308333355 85.1261910524 495.333333333 76.1895152092 495.333333333 67.0713305898 c 0
 495.333333333 64.8523718859 495.239851062 62.3690180732 494.83273321 60.1705816706 c 2
 489.882803362 33.4409604939 l 1
 487.15667203 12.7591180366 471.237866321 0 451 0 c 2
 44 0 l 2
 36.2459417201 0 29.0054214977 1.69033884321 23.1836600799 6.14330752159 c 0
 15.6916666446 11.8738089476 12.6666666667 20.8104847908 12.6666666667 29.9286694102 c 0
 12.6666666667 32.1476281141 12.7601489379 34.6309819268 13.1672667902 36.8294183294 c 2
 18.1171966377 63.5590395061 l 1
EndSplineSet
PickledDataWithLists: "(dp0
Vcom.schriftgestaltung.Glyphs.lastChange
p1
V2015-12-22 12:18:54 +0000
p2
s."
EndChar

StartChar: Y
Encoding: 89 89 125
GlifName: Y_
Width: 575
VWidth: 0
Flags: W
AnchorPoint: "mark-top" 360 700 basechar 0
AnchorPoint: "mark-bottom" 248 0 basechar 0
LayerCount: 2
Fore
SplineSet
525.560870108 677.36603027 m 2
 535.394264605 693.245712096 550.379069779 700 567 700 c 2
 603 700 l 2
 618.130255756 700 632.713162824 692.781209048 632.713162824 677.273856474 c 0
 632.713162824 670.215477276 629.812781123 663.449430488 625.366131404 656.769999332 c 2
 434.326469829 373.870106421 l 2
 412.473002089 342.008920088 383.548778753 319.692447255 348.901264996 308.567749198 c 1
 348.901264996 308.567749198 303.876238207 32.6723436557 303.847672201 32.5066120789 c 0
 301.87953656 21.6665189057 296.934702293 12.4113385571 288.40466483 6.62335731227 c 0
 281.669942215 1.92175850547 273.580505518 0 265 0 c 2
 230 0 l 2
 222.295023181 0 215.203774786 1.46793691809 209.346516392 5.50814359662 c 0
 201.713808063 10.625642286 198.325 19.0486379246 198.325 27.6418429757 c 0
 198.325 30.3317084642 198.615492659 33.0521646583 199.144589819 35.8342646721 c 2
 243.829836399 309.659960151 l 1
 214.065158044 321.363813612 191.542273569 344.137434556 181.47745272 376.259274631 c 1
 82.6243902554 658.693808071 l 2
 80.7756846627 663.146451032 79.7627924145 667.624048444 79.7627924145 672.091025054 c 0
 79.7627924145 690.084561296 96.0861604236 700 114 700 c 2
 151 700 l 2
 158.248719542 700 165.070396164 698.891213788 171.134547895 695.520404651 c 0
 178.859256248 691.226561316 183.80238201 683.800712114 186.511893377 675.095789614 c 2
 279.425778446 403.347652639 l 2
 285.330694516 387.410930781 295.696104547 380 309 380 c 0
 322.556777019 380 335.358855446 388.34397447 346.640522728 405.487066653 c 2
 525.560870108 677.36603027 l 2
EndSplineSet
PickledDataWithLists: "(dp0
Vcom.schriftgestaltung.Glyphs.lastChange
p1
V2016-06-09 18:35:33 +0000
p2
s."
EndChar

StartChar: Z
Encoding: 90 90 130
GlifName: Z_
Width: 575
VWidth: 0
Flags: W
AnchorPoint: "mark-top" 360 700 basechar 0
AnchorPoint: "mark-bottom" 248 0 basechar 0
LayerCount: 2
Fore
SplineSet
135.400887331 97 m 1
 458 97 l 2
 465.704976819 97 472.796225214 95.5320630819 478.653483608 91.4918564034 c 0
 486.286191937 86.2269838134 489.675 77.5614224612 489.675 68.72075 c 0
 489.675 65.907128715 489.378783035 63.0828474043 488.83273321 60.1705816706 c 2
 483.847672201 33.2531977922 l 2
 481.87953656 22.100429155 476.934702293 12.5782891259 468.40466483 6.62335731227 c 0
 461.669942215 1.92175850547 453.580505518 0 445 0 c 2
 50 0 l 2
 42.2950231806 0 35.2037747859 1.46793691809 29.3465163924 5.50814359662 c 0
 21.7138080629 10.6027674587 18.325 18.9881129515 18.325 27.5429070339 c 0
 18.325 30.2332945351 18.6182209111 32.9544220218 19.1520418765 35.7376403359 c 2
 24.1272854951 64.622888132 l 2
 38.4400900669 150.690592225 78.4205043537 224.46109516 136.472634284 273.614145146 c 2
 413.475899711 504.888393461 l 2
 438.141209746 525.464009608 458.970874716 559.864937745 470.447781634 604 c 1
 180 604 l 2
 172.295023181 604 165.203774786 605.467936918 159.346516392 609.508143597 c 0
 151.713808063 614.773016187 148.325 623.438577539 148.325 632.27925 c 0
 148.325 635.038869035 148.61387639 637.829784623 149.14017346 640.68367789 c 0
 150.475589585 649.3638827 151.626643472 658.10125769 153.152327799 666.746802208 c 0
 155.12046344 677.899570845 160.065297707 687.421710874 168.59533517 693.376642688 c 0
 175.330057785 698.078241495 183.419494482 700 192 700 c 2
 556 700 l 2
 563.704976819 700 570.796225214 698.532063082 576.653483608 694.491856403 c 0
 584.286191937 689.397508251 587.675 681.012616555 587.675 672.45828544 c 0
 587.675 669.820264576 587.39305219 667.152687147 586.878772211 664.425994384 c 0
 585.545343513 654.749193229 584.502821365 644.975270152 582.867317585 635.348204751 c 0
 570.486229702 562.469410912 531.353284471 494.684376764 472.53887286 445.762204003 c 2
 197.442879442 215.391433931 l 2
 170.068873566 193.042701398 148.528552141 152.022649444 135.400887331 97 c 1
EndSplineSet
PickledDataWithLists: "(dp0
Vcom.schriftgestaltung.Glyphs.lastChange
p1
V2016-06-09 18:35:33 +0000
p2
s."
EndChar

StartChar: a
Encoding: 97 97 135
GlifName: a
Width: 575
VWidth: 0
Flags: W
AnchorPoint: "mark-top" 327 500 basechar 0
AnchorPoint: "mark-bottom" 248 0 basechar 0
AnchorPoint: "mark-ogonek" 417 0 basechar 0
LayerCount: 2
Fore
SplineSet
99.8133083212 45.5867967409 m 0
 78.7168851983 77.7693736091 67 124.738726368 67 191.259259259 c 0
 67 379.595881702 159.011875484 510 357 510 c 0
 386.44290987 510 441.093617879 507.94317993 502.582348754 499.879084077 c 0
 519.573515195 496.815801319 532.621463857 485.856335138 532.621463857 468.573968828 c 0
 532.621463857 466.041345632 532.357792561 463.478318158 531.859660414 460.876085064 c 2
 463.903619356 37.1156877688 l 2
 461.594864935 19.7251276272 450.223287202 0 427 0 c 2
 390 0 l 2
 382.477453406 0 375.421899878 1.5680957456 369.596101265 5.63907641837 c 0
 362.057134233 10.9071934812 358.378536143 19.565716718 358.378536143 28.7391857382 c 0
 358.378536143 35.4386112864 359.974703756 41.9656053316 360.949041202 48.1364091605 c 1
 312.093161524 10.1280537422 259.435118921 -10 212 -10 c 0
 167.476638145 -10 126.470290472 4.92159145279 99.8133083212 45.5867967409 c 0
421.392598555 411.024710236 m 1
 388.43565754 413.238763451 360.937624382 414 345 414 c 0
 272.740370492 414 228.822086729 384.685232569 202.909278853 339.864096678 c 0
 182.014494517 303.722588098 173 256.726254443 173 206.643678161 c 0
 173 161.319671228 179.399496226 131.936324286 189.330340821 114.109743692 c 0
 201.355687827 92.5233805656 218.305194491 86 242 86 c 0
 278.010903425 86 328.233912445 110.591711514 378.610999452 161.022813871 c 1
 421.392598555 411.024710236 l 1
EndSplineSet
PickledDataWithLists: "(dp0
Vcom.schriftgestaltung.Glyphs.lastChange
p1
V2016-06-09 18:35:33 +0000
p2
s."
EndChar

StartChar: a.hex
Encoding: 65543 -1 136
GlifName: a.hex
Width: 575
VWidth: 0
Flags: W
LayerCount: 2
Fore
SplineSet
212.299505596 892.614380323 m 0
 220.429383125 886.024900642 224 875.92286565 224 865 c 2
 224 819 l 2
 224 807.680679758 220.49077603 797.434582054 212.147103874 790.935300585 c 0
 205.638298075 785.865283436 197.538455695 784 189 784 c 2
 154 784 l 2
 142.680679758 784 132.434582054 787.50922397 125.935300585 795.852896126 c 0
 120.865283436 802.361701925 119 810.461544305 119 819 c 2
 119 865 l 2
 119 875.92286565 122.570616875 886.024900642 130.700494404 892.614380323 c 0
 137.096746819 897.798711228 145.246618748 900 154 900 c 2
 189 900 l 2
 197.753381252 900 205.903253181 897.798711228 212.299505596 892.614380323 c 0
504.614380323 888.299505596 m 0
 509.798711228 881.903253181 512 873.753381252 512 865 c 2
 512 819 l 2
 512 807.680679758 508.49077603 797.434582054 500.147103874 790.935300585 c 0
 493.638298075 785.865283436 485.538455695 784 477 784 c 2
 442 784 l 2
 430.680679758 784 420.434582054 787.50922397 413.935300585 795.852896126 c 0
 408.865283436 802.361701925 407 810.461544305 407 819 c 2
 407 865 l 2
 407 873.753381252 409.201288772 881.903253181 414.385619677 888.299505596 c 0
 420.975099358 896.429383125 431.07713435 900 442 900 c 2
 477 900 l 2
 487.92286565 900 498.024900642 896.429383125 504.614380323 888.299505596 c 0
EndSplineSet
Refer: 135 97 N 1 0 0 1 0 0 2
PickledDataWithLists: "(dp0
Vcom.schriftgestaltung.Glyphs.lastChange
p1
V2016-06-09 18:35:34 +0000
p2
s."
EndChar

StartChar: acute
Encoding: 180 180 140
GlifName: acute
Width: 575
VWidth: 0
GlyphClass: 2
Flags: HMW
LayerCount: 2
Fore
SplineSet
215.254566495 569.104512767 m 0
 215.254566495 585.078704619 225.22015341 597.262659176 240.927906913 604.134801334 c 2
 466.856881592 705.103059929 l 2
 472.541534022 707.746418847 478.231361332 709.340909091 484.038880541 709.340909091 c 0
 497.234159191 709.340909091 507.929243539 699.797276666 511.624549196 686.721579725 c 2
 524.565861088 640.929245339 l 2
 525.869620317 636.947712411 526.581072487 632.926798575 526.581072487 628.899294072 c 0
 526.581072487 612.881094809 514.960094638 601.196646226 498.955940177 596.443986183 c 2
 266.982563126 521.453091617 l 2
 261.878720679 519.858140852 256.922862041 518.937618775 252.00980345 518.937618775 c 0
 238.37617183 518.937618775 227.0089516 527.34427612 222.510581038 540.839387807 c 0
 220.445489316 547.034662971 218.380397595 553.229938135 216.315305874 559.425213299 c 0
 215.685420495 562.574640194 215.254566495 565.899423123 215.254566495 569.104512767 c 0
EndSplineSet
PickledDataWithLists: "(dp0
Vcom.schriftgestaltung.Glyphs.lastChange
p1
V2015-12-22 16:32:39 +0000
p2
s."
EndChar

StartChar: ae
Encoding: 230 230 142
GlifName: ae
Width: 575
VWidth: 0
Flags: W
AnchorPoint: "mark-top" 327 500 basechar 0
LayerCount: 2
Fore
SplineSet
143.068674006 460.334734353 m 2
 142.841410937 462.105620974 142.724190395 463.857094108 142.724190395 465.590536188 c 0
 142.724190395 483.883652643 156.567362491 495.657057208 174.224552117 498.842573889 c 0
 213.799376032 505.945747412 256.257894547 510 293 510 c 0
 357.203363045 510 405.911982171 496.159617284 440.34605741 470.105374672 c 0
 483.58576713 437.388425554 502.216765439 386.820334558 502.216765439 326.609158247 c 0
 502.216765439 307.604985464 500.384850962 287.592739126 496.895801807 266.708462397 c 0
 495.884041518 259.203478609 495.266463017 251.491778135 493.828657273 244.072451528 c 0
 490.103994235 224.852545285 475.691337025 212 455 212 c 2
 329.51760953 212 l 1
 307.847027099 83.7262097264 l 1
 329.316048286 85.0295050225 355.168993352 87.6480947998 382.377156007 91.5807276357 c 0
 385.489798295 92.099707966 391.586242343 92.4170894078 391.768121327 92.4170611197 c 0
 400.358103444 92.4157250963 408.831872586 89.7594700386 414.411275079 83.065753941 c 0
 418.711731968 77.9064133945 420.51805493 71.5342186467 420.975524299 64.6942567379 c 2
 422.953019893 40.1508677236 l 2
 423.16561361 38.4544360265 423.2750242 36.7708363275 423.2750242 35.1004287745 c 0
 423.2750242 16.9371862513 409.646251721 4.33668477905 390.766757189 1.15587022267 c 0
 335.123405221 -8.7804426287 318.412378052 -9.05523316525 249 -10 c 0
 182.623124695 -10 133.834425294 -1.5471731597 99.2994123375 16.0722052776 c 0
 55.5000476632 38.4181526347 36.7347021485 75.5777043515 36.7347021485 122.533305006 c 0
 36.7347021485 132.553751784 37.5511069249 143.010260065 39.0914836124 153.9144437 c 0
 39.1014901542 153.988876926 39.1127528575 154.062101497 39.125218135 154.134168973 c 0
 54.6623819231 247.818156799 126.510374975 295.513179534 239.333319056 304.972352719 c 1
 257.23146475 415.6804899 l 1
 236.27354595 414.576118397 210.734268089 412.596243301 184.646208915 408.678538351 c 0
 181.377961364 408.128273239 178.234668077 407.827343735 175.166666667 407.827343374 c 0
 166.64691874 407.827343374 158.307532984 410.392600662 152.70967078 416.873274219 c 0
 148.402545258 421.859655351 146.524829891 428.062533702 146.038502043 434.617110334 c 2
 143.068674006 460.334734353 l 2
397.634900919 309 m 1
 397.798710762 312.482848124 397.886599454 315.971103765 397.886599454 319.443383592 c 0
 397.886599454 356.110411358 388.64067577 388.053057435 359.033404696 401.547303568 c 1
 344.672616211 309 l 1
 397.634900919 309 l 1
142.87412954 138.410473561 m 0
 142.345369232 135.237911709 142.088139149 132.177011483 142.088139149 129.35364678 c 0
 142.088139149 103.588345724 163.57596124 85.0957992528 202.650719777 78.310741953 c 1
 223.048989252 208.349709858 l 1
 175.546783752 200.6848993 149.416487616 179.300211537 142.87412954 138.410473561 c 0
EndSplineSet
PickledDataWithLists: "(dp0
Vcom.schriftgestaltung.Glyphs.lastChange
p1
V2016-06-09 18:35:33 +0000
p2
s."
EndChar

StartChar: alpha
Encoding: 945 945 144
GlifName: alpha
Width: 575
VWidth: 0
Flags: W
AnchorPoint: "mark-top" 327 500 basechar 0
LayerCount: 2
Fore
SplineSet
493.400492059 248.587293781 m 1
 503.199400399 192.161052247 505.33984375 137.703634587 505.33984375 97.8850141375 c 0
 505.33984375 70.103917984 504.092541826 56.2013795078 504.000554074 37.9354456089 c 0
 504.041911327 37.0271221614 504.062866411 36.1309949438 504.062866483 35.2461701952 c 0
 504.062866483 23.0758039662 499.726438431 12.6673254379 490.486527277 6.51272980453 c 0
 483.376101498 1.583017992 474.857987134 0 466 0 c 2
 439 0 l 2
 429.791547383 0 420.253359918 1.64638253553 413.865670832 9.55193833555 c 0
 407.803037585 17.0551973039 406.792893219 26.3603674674 406.792893219 38.2027192024 c 0
 406.792893219 58.5738922007 408.004178396 77.046955703 408.177424397 101.51142639 c 1
 356.953538999 37.8853241999 292.048506493 -10 211 -10 c 0
 173.701296334 -10 133.668213218 -2.78949417429 100.300063929 19.2181479444 c 0
 58.2563211804 46.9476943371 29 97.2616035433 29 179.703703704 c 0
 29 345.318402341 110.729525187 510 293 510 c 0
 374.483857547 510 425.557625934 461.139400901 456.736026844 396.881489401 c 1
 468.445437847 432.84159321 473.087421547 453.014055571 479.561338466 471.345639509 c 0
 485.643533098 488.568020154 496.724394788 500 519 500 c 2
 546 500 l 2
 552.865244304 500 559.280615247 499.137054002 564.999162956 495.935137068 c 0
 572.688023282 491.799026986 576.67386604 483.912067922 576.67386604 475.537083931 c 0
 576.67386604 470.441431256 575.584591526 464.684209053 573.366839753 459.002389037 c 0
 572.462146004 456.684588139 570.462078709 450.102964988 567.762105156 441.031669827 c 0
 557.181484648 405.48319879 534.400466973 328.866648349 493.400492059 248.587293781 c 1
198.044310435 378.263820564 m 0
 154.640869575 335.009946919 135 257.583706682 135 196.294797688 c 0
 135 143.772163963 152.02220406 116.547839464 171.74647493 102.30746261 c 0
 187.708480918 90.783336718 206.793952076 87 223 87 c 0
 254.607539109 87 284.033004214 101.719224129 312.470310204 126.88028182 c 0
 347.111366504 157.530358742 379.331957727 203.11136196 410.189542423 251.344906312 c 1
 382.967726757 340.563315461 349.882932614 412.999999526 281 413 c 0
 246.643186877 413 219.613778144 399.758960405 198.044310435 378.263820564 c 0
EndSplineSet
PickledDataWithLists: "(dp0
Vcom.schriftgestaltung.Glyphs.lastChange
p1
V2015-12-22 12:26:38 +0000
p2
s."
EndChar

StartChar: ampersand
Encoding: 38 38 146
GlifName: ampersand
Width: 575
VWidth: 0
Flags: HMW
LayerCount: 2
Fore
SplineSet
463 -10 m 2
 431 -10 l 2
 420.986824095 -10 411.985450515 -7.14634516973 405.799169805 -0.124080579552 c 0
 401.072304048 5.2415508195 398.19675608 12.2680327818 397.110962199 19.5066586544 c 0
 394.862426566 34.4968962055 390.821856733 50.2312195768 384.925704019 67.1931177396 c 1
 329.332212089 15.6181796162 202.166077276 -18.649254959 190.551131837 -18.649254959 c 0
 189.989376686 -18.649254959 189.697914162 -18.5690979746 189.697914162 -18.4068652763 c 0
 189.697914162 -18.1485597372 190.436793254 -17.6821861828 192 -17 c 1
 146.697974442 -17 109.051123352 -5.05840992491 81.170835192 17.4836055766 c 0
 46.2092124878 45.751083891 28 89.6460973327 28 143 c 0
 28 241.798074612 87.2718856176 326.047396451 170.401766232 382.360940475 c 1
 134.947287271 428.664255898 117 474.778303424 117 519 c 0
 117 622.34036218 212.111676399 707 319 707 c 0
 409.766941073 707 473 645.810134862 473 564 c 0
 473 502.853091719 444.514235443 447.163804218 397.580255169 407.470473587 c 0
 391.803325188 402.259142355 375.663847201 397.525006282 374.452020135 397.544772475 c 0
 374.452020135 397.573984753 374.558619568 397.635927709 374.785694036 397.732930994 c 1
 365.409938416 397.732930994 355.590422751 402.756576517 349.187582466 410.760126874 c 2
 333.24710187 430.685727619 l 2
 327.719063394 437.346518957 324.181818182 444.949774284 324.181818182 453.175807663 c 0
 324.181818182 463.218376865 329.561007961 471.982436743 337.604287487 478.685169681 c 0
 359.227831555 496.704789738 371 524.163948465 371 547 c 0
 371 581.250474 345.07902164 608 305 608 c 0
 260.231032662 608 223 572.124467825 223 529 c 0
 223 503.16040712 234.555616159 472.367428101 266.64561887 434.442879442 c 0
 316.383755265 375.493977048 363.633550536 314.815489828 401.498580493 257.635704966 c 1
 405.852147463 267.31681903 409.388239211 277.440151129 413.728033558 287.781313356 c 0
 420.138404432 303.056388586 432.753723972 313.681906597 449.424010694 313.681906597 c 0
 452.231495467 313.681906597 455.059731288 313.383832774 457.9068206 312.818245606 c 2
 489.851291709 306.828657273 l 2
 504.677029637 304.048831412 515.454545455 293.721234887 515.454545455 278.914350113 c 0
 515.454545455 273.790109978 514.355288522 268.273584152 512.241832558 263.176425651 c 0
 495.857057546 223.660203563 477.634592288 188.723223923 459.317810944 158.365490619 c 1
 480.41210934 112.418470982 493.956737954 70.0211645702 499.958011435 28.0122502033 c 0
 500.018136798 26.9901190352 500.062940954 25.9200028535 500.062940954 24.88985333 c 0
 500.062940954 3.27151270823 483.496964941 -10 463 -10 c 2
204 79 m 0
 241.940722151 79 292.420636698 100.598995172 339.790033277 157.81386443 c 1
 312.554143124 202.043267758 275.888231963 252.527416905 229.824409907 310.666215977 c 1
 169.320249487 269.984885278 132 210.160946803 132 153 c 0
 132 130.203137706 137.694399126 113.318924972 147.174810368 101.629799242 c 0
 158.921006529 87.1470136065 177.724982113 79 204 79 c 0
EndSplineSet
PickledDataWithLists: "(dp0
Vcom.schriftgestaltung.Glyphs.lastChange
p1
V2015-12-22 14:24:01 +0000
p2
s."
EndChar

StartChar: asciicircum
Encoding: 94 94 150
GlifName: asciicircum
Width: 575
VWidth: 0
Flags: HMW
LayerCount: 2
Fore
SplineSet
362 729 m 0
 396.634009901 729 415.821911777 707.687359936 432.278989022 688.864577837 c 2
 592.457365859 505.66055933 l 2
 598.176025686 499.386307818 601.676597683 491.91857466 601.676597683 483.907306427 c 0
 601.676597683 472.330862109 594.777864761 462.68171875 585.239873126 455.187582466 c 2
 560.17074583 435.132776091 l 2
 552.337538519 428.978113204 543.987285291 424.870922628 534.892199005 424.870922628 c 0
 525.176624687 424.870922628 516.642174965 430.012429795 510.244256593 437.689931842 c 0
 458.731270416 500.958244174 407.132192142 564.14046441 355.673530171 627.463100949 c 0
 354.06234401 629.879880191 352.967828892 631.094332365 352.51756277 631.460512645 c 0
 352.120531807 631.783399271 352.241916537 632 350 632 c 0
 348.156806167 632 342.471434493 628.332071993 339.848948322 625.709585822 c 2
 125.694654154 436.573316674 l 2
 118.004465736 429.49864014 109.424509203 424.870922628 99.9922000336 424.870922628 c 0
 90.905429977 424.870922628 82.9383464492 429.383356906 76.7716779472 436.088959553 c 2
 56.93031875 455.93031875 l 2
 50.6934355434 462.167201957 46.8598595058 469.931587496 46.8598595058 478.346485153 c 0
 46.8598595058 489.200120671 52.88560537 498.654747028 61.3949478788 506.509524729 c 0
 134.393081168 567.769412623 207.351208571 629.069306403 280.374551781 690.303984376 c 0
 304.791532799 709.839174461 328.09712881 729 362 729 c 0
EndSplineSet
PickledDataWithLists: "(dp0
Vcom.schriftgestaltung.Glyphs.lastChange
p1
V2015-12-22 14:26:04 +0000
p2
s."
EndChar

StartChar: asciitilde
Encoding: 126 126 151
GlifName: asciitilde
Width: 575
VWidth: 0
Flags: HMW
LayerCount: 2
Fore
SplineSet
533 378 m 2
 540.114764759 378 546.943833537 376.420270569 552.504057579 372.171150577 c 0
 559.663454202 366.699943824 562.681906597 358.105424481 562.681906597 349.207959007 c 0
 562.681906597 346.324202155 562.394785193 343.372551018 561.859309448 340.31934573 c 0
 546.291331603 244.960613019 490.305835279 190.000000014 404 190 c 0
 355.556642053 190 304.368569711 221.340548395 258.378056726 276.529163976 c 0
 224.80817105 316.023147125 195.399544922 334 178 334 c 0
 153.935892841 334 136.593401843 316.633699443 128.872766464 273.393972762 c 0
 127.396443773 263.383607174 122.245888005 254.442962879 113.498204007 249.047565909 c 0
 106.612326869 244.800494296 98.2983133768 243 89 243 c 2
 61 243 l 2
 53.7705031932 243 46.8274282841 244.628138308 41.1350020424 248.857605478 c 0
 33.8054491925 254.303456128 30.3758238161 263.027181149 30.3758238161 272.336532691 c 0
 30.3758238161 275.054309966 30.6407917904 277.83103626 31.1421949596 280.689211654 c 0
 46.7280728885 375.134370712 103.728144257 431 191 431 c 0
 238.630467666 431 289.720668397 398.552669681 335.636507871 343.453662313 c 0
 368.250987367 304.909277454 397.659041712 286 416 286 c 0
 438.861410828 286 457.381261813 304.318932613 464.110424617 347.490897639 c 0
 466.96205418 367.212323429 483.773885513 377.999999999 504 378 c 2
 533 378 l 2
EndSplineSet
PickledDataWithLists: "(dp0
Vcom.schriftgestaltung.Glyphs.lastChange
p1
V2015-12-22 16:32:54 +0000
p2
s."
EndChar

StartChar: asterisk
Encoding: 42 42 152
GlifName: asterisk
Width: 575
VWidth: 0
Flags: HMW
LayerCount: 2
Fore
SplineSet
564.333333333 356.150891632 m 0
 564.333333333 339.019859675 553.316849753 325.870117768 535.94995672 320.442963695 c 2
 398.743751323 278.084000955 l 1
 470.81090484 148.730582111 l 0
 473.7848302 143.207577871 475.408303154 137.316681242 475.408303154 131.350666734 c 0
 475.408303154 119.138153903 468.255330664 107.367441593 457.289404988 100.513738046 c 2
 425.40955068 80.5888291035 l 2
 418.052137987 75.7067583986 410.493219227 72.6757100522 402.608202644 72.6757100522 c 0
 391.320862572 72.6757100522 382.237024773 79.4097934829 376.372620887 88.9394497986 c 2
 292.202325998 238.781073666 l 1
 247.819791551 188.169141558 203.477830369 137.516636186 159.06968125 86.93031875 c 0
 150.42659095 78.2872284496 140.758995311 72.4772727273 129.795736289 72.4772727273 c 0
 122.277723047 72.4772727273 114.436603676 75.4155836572 108.574017865 80.3401557381 c 2
 83.7698492719 101.175657357 l 2
 76.0442874672 107.067325066 71.3709277575 115.423058152 71.3709277575 124.609960861 c 0
 71.3709277575 134.064690951 75.6529479603 142.881121926 82.3615661055 150.455368219 c 2
 196.575593483 279.406689451 l 1
 76.6399014862 320.579442745 l 0
 64.7498547435 324.82588801 55.1820140289 334.317228126 55.1820140289 347.754140033 c 0
 55.1820140289 353.737428623 56.971588676 359.631349987 60.0475348659 365.464030287 c 2
 75.932800815 399.220100334 l 2
 82.431711436 413.146337379 94.2163309129 422.728783283 109.515057524 422.728783283 c 0
 114.022547888 422.728783283 118.60031281 421.916361607 123.148211806 420.495143171 c 2
 260.046145534 372.395869158 l 1
 285.096578816 526.409644151 l 2
 287.531135492 546.313496634 301.720786228 560 324 560 c 2
 359 560 l 2
 366.566385009 560 373.720286136 558.585305681 379.629160808 554.27968946 c 0
 387.321745652 548.674338199 390.333333333 539.639751688 390.333333333 530.334705075 c 0
 390.333333333 528.149195652 390.172666211 525.87436242 389.905366954 523.602318729 c 2
 365.472983755 373.388407213 l 1
 516.017436874 420.546908383 l 2
 520.489241412 421.944347301 524.844823958 422.728783283 529.16151632 422.728783283 c 0
 544.672932908 422.728783283 554.898279749 411.506858586 557.828031024 396.858102216 c 0
 559.85347086 385.346856281 561.899180096 373.855879745 563.911904203 362.33191808 c 0
 564.188336467 360.258676096 564.333333333 358.198650357 564.333333333 356.150891632 c 0
EndSplineSet
PickledDataWithLists: "(dp0
Vcom.schriftgestaltung.Glyphs.lastChange
p1
V2015-12-22 20:53:16 +0000
p2
s."
EndChar

StartChar: at
Encoding: 64 64 153
GlifName: at
Width: 575
VWidth: 0
Flags: HMW
LayerCount: 2
Fore
SplineSet
361 720 m 0
 421.843588887 720 470.564752269 707.760548363 506.21886533 682.056693543 c 0
 551.082972396 649.713146176 573 597.261212917 573 528 c 0
 573 507.681622383 571.981578452 486.054593898 567.864324869 462.348819277 c 2
 567.864324869 462.348819277 511.875521217 110.419196325 511.847672201 110.253197792 c 0
 509.87953656 99.100429155 504.934702293 89.5782891259 496.40466483 83.6233573123 c 0
 489.669942215 78.9217585055 481.580505518 77 473 77 c 2
 413 77 l 2
 370.051404378 77 336.193320785 84.483573986 311.4612314 102.332382594 c 0
 280.170398252 124.914546331 266.486382017 162.367327723 266.486382017 213.222236757 c 0
 266.486382017 232.530308502 268.414148034 253.90553257 272.120878015 277.558000062 c 0
 281.598331113 338.033176976 298.170320532 383.816057223 325.050092094 416.324824312 c 0
 357.40055363 455.449919437 403.613177009 473.38529772 464.458237196 474.895405228 c 1
 466.339949976 487.983499816 467 499.914320172 467 512 c 0
 467 555.119332948 454.484277723 584.132680604 431.295809772 601.839141437 c 0
 412.556681297 616.148135248 385.408532691 624 349 624 c 0
 295.012446289 624 254.775409835 607.330360209 226.329427949 574.814297171 c 0
 203.459116965 548.67167792 187.679095845 511.408304897 179.874781865 462.41455602 c 2
 179.874781865 462.41455602 119.874781865 86.41455602 119.847672201 86.2531977922 c 0
 116.967581941 69.9326863145 116 54.514650619 116 41 c 0
 116 -2.7073482021 128.536260867 -31.9482733166 151.871626824 -49.7482733956 c 0
 170.73344319 -64.1358914603 198.126852149 -72 235 -72 c 0
 266.66996913 -72 293.239926993 -66.3642960345 327.631546765 -54.5814403609 c 0
 332.81181866 -52.6520970658 337.843553512 -51.5247836529 342.884242578 -51.5247822044 c 0
 357.365628297 -51.5247822044 367.085905522 -62.0052016451 370.680957278 -75.48664573 c 2
 377.663480659 -102.420184476 l 2
 378.611355725 -105.974715976 379.109646549 -109.528826791 379.109646549 -113.056171074 c 0
 379.109646549 -128.987693481 368.483894177 -141.381658301 353.160612193 -146.489418962 c 0
 310.347948881 -160.760306733 270.05077404 -168 223 -168 c 0
 161.698861937 -168 112.720654869 -155.554685017 76.9333252565 -129.625751864 c 0
 31.9103301983 -97.0053177084 10 -44.260532059 10 25 c 0
 10 45.6787914175 11.5503540643 67.1829624781 15.0895261298 89.3617740808 c 2
 75.1251182255 465.584817752 l 2
 86.894722553 539.371183344 112.295961201 598.038005118 151.786113671 640.471843757 c 0
 201.259001885 693.632554066 271.825589555 720 361 720 c 0
EndSplineSet
PickledDataWithLists: "(dp0
Vcom.schriftgestaltung.Glyphs.lastChange
p1
V2016-02-01 22:12:54 +0000
p2
s."
EndChar

StartChar: b
Encoding: 98 98 155
GlifName: b
Width: 575
VWidth: 0
Flags: W
AnchorPoint: "mark-bottom" 248 0 basechar 0
LayerCount: 2
Fore
SplineSet
209.001481104 451.825091608 m 1
 257.871284781 489.858354118 310.548867708 510 358 510 c 0
 403.12412324 510 443.85566786 491.695795635 470.258804092 450.173587856 c 0
 491.219020839 417.211046315 503 370.539836659 503 307.777777778 c 0
 503 225.306857155 487.067961319 153.534169313 450.497513347 98.7843146233 c 0
 404.545868294 29.9898089794 326.616164313 -10 213 -10 c 0
 183.55709013 -10 128.906382121 -7.94317992985 67.417651246 0.120915922552 c 0
 59.6440391934 1.5784681824 52.7622948889 4.43746415647 47.3965451511 9.49287998032 c 0
 40.6761751448 15.6491551449 37.6666666667 24.1933698599 37.6666666667 33.2143484255 c 0
 37.6666666667 35.2484956898 37.7417110802 37.3166672048 38.0733785583 39.3992176306 c 2
 145.096802873 711.4026325 l 2
 147.406521212 729.488176869 158.778128163 750 182 750 c 2
 219 750 l 2
 226.522546594 750 233.578100122 748.431904254 239.403898735 744.360923582 c 0
 246.942865767 739.092806519 250.621463857 730.434283282 250.621463857 721.260814262 c 0
 250.621463857 718.649906879 250.355293831 716.004247883 249.857724977 713.305052396 c 2
 209.001481104 451.825091608 l 1
367.13973101 140.458554294 m 0
 387.943873617 177.73091636 397 227.773381438 397 285 c 0
 397 328.983134708 390.680260653 359.958365214 380.587771899 380.048973978 c 0
 368.195169298 404.718303468 350.695197147 414 328 414 c 0
 291.989096575 414 241.766087555 387.908793882 191.389000548 334.402624307 c 1
 148.607401445 69.1567098716 l 1
 181.56434246 66.807653412 224.34198896 66.0002439034 225 66 c 0
 297.635357232 65.9730764193 341.394354911 94.3335590167 367.13973101 140.458554294 c 0
EndSplineSet
EndChar

StartChar: b.hex
Encoding: 65545 -1 156
GlifName: b.hex
Width: 575
VWidth: 0
Flags: W
LayerCount: 2
Fore
SplineSet
212.299505596 892.614380323 m 0
 220.429383125 886.024900642 224 875.92286565 224 865 c 2
 224 819 l 2
 224 807.680679758 220.49077603 797.434582054 212.147103874 790.935300585 c 0
 205.638298075 785.865283436 197.538455695 784 189 784 c 2
 154 784 l 2
 142.680679758 784 132.434582054 787.50922397 125.935300585 795.852896126 c 0
 120.865283436 802.361701925 119 810.461544305 119 819 c 2
 119 865 l 2
 119 875.92286565 122.570616875 886.024900642 130.700494404 892.614380323 c 0
 137.096746819 897.798711228 145.246618748 900 154 900 c 2
 189 900 l 2
 197.753381252 900 205.903253181 897.798711228 212.299505596 892.614380323 c 0
504.614380323 888.299505596 m 0
 509.798711228 881.903253181 512 873.753381252 512 865 c 2
 512 819 l 2
 512 807.680679758 508.49077603 797.434582054 500.147103874 790.935300585 c 0
 493.638298075 785.865283436 485.538455695 784 477 784 c 2
 442 784 l 2
 430.680679758 784 420.434582054 787.50922397 413.935300585 795.852896126 c 0
 408.865283436 802.361701925 407 810.461544305 407 819 c 2
 407 865 l 2
 407 873.753381252 409.201288772 881.903253181 414.385619677 888.299505596 c 0
 420.975099358 896.429383125 431.07713435 900 442 900 c 2
 477 900 l 2
 487.92286565 900 498.024900642 896.429383125 504.614380323 888.299505596 c 0
648.614380323 888.299505596 m 0
 653.798711228 881.903253181 656 873.753381252 656 865 c 2
 656 819 l 2
 656 807.680679758 652.49077603 797.434582054 644.147103874 790.935300585 c 0
 637.638298075 785.865283436 629.538455695 784 621 784 c 2
 586 784 l 2
 574.680679758 784 564.434582054 787.50922397 557.935300585 795.852896126 c 0
 552.865283436 802.361701925 551 810.461544305 551 819 c 2
 551 865 l 2
 551 875.92286565 554.570616875 886.024900642 562.700494404 892.614380323 c 0
 569.096746819 897.798711228 577.246618748 900 586 900 c 2
 621 900 l 2
 631.92286565 900 642.024900642 896.429383125 648.614380323 888.299505596 c 0
EndSplineSet
Refer: 155 98 N 1 0 0 1 0 0 2
PickledDataWithLists: "(dp0
Vcom.schriftgestaltung.Glyphs.lastChange
p1
V2016-06-09 18:35:34 +0000
p2
s."
EndChar

StartChar: backslash
Encoding: 92 92 157
GlifName: backslash
Width: 575
VWidth: 0
Flags: HMW
LayerCount: 2
Back
SplineSet
146 669 m 262
 141 684 146 695 161 700 c 262
 192 711 l 262
 207 716 218 710 223 695 c 262
 474 -33 l 262
 479 -48 474 -59 459 -64 c 262
 428 -75 l 262
 413 -80 402 -74 397 -59 c 262
 146 669 l 262
EndSplineSet
Fore
SplineSet
158.783499855 670.299435274 m 0
 158.783499855 685.058489313 167.811975526 697.342710783 181.671066983 704.01560667 c 2
 208.607429392 716.984966348 l 2
 214.129112993 719.736018566 219.74805313 721.373841463 225.489512193 721.373841463 c 0
 238.410748362 721.373841463 248.031929999 712.294568414 251.593045088 699.830665603 c 2
 464.616760031 -22.2510091631 l 2
 465.66413739 -25.9168299206 466.216500145 -29.6133645795 466.216500145 -33.2994352736 c 0
 466.216500145 -47.8935960354 457.014634961 -60.6626148367 443.202440369 -67.0754194691 c 2
 415.327175256 -80.0175068428 l 2
 409.887956306 -82.7194797044 404.410576865 -84.3738414631 398.755975611 -84.3738414631 c 0
 385.769242553 -84.3738414631 376.841557423 -74.8517743932 373.406954912 -62.8306656026 c 2
 160.383239969 659.251009163 l 2
 159.33586261 662.916829921 158.783499855 666.613364579 158.783499855 670.299435274 c 0
EndSplineSet
PickledDataWithLists: "(dp0
Vcom.schriftgestaltung.Glyphs.lastChange
p1
V2015-12-22 16:32:37 +0000
p2
s."
EndChar

StartChar: bar
Encoding: 124 124 158
GlifName: bar
Width: 575
VWidth: 0
Flags: HMW
LayerCount: 2
Fore
SplineSet
349 760 m 2
 384 760 l 2
 391.704976819 760 398.796225214 758.532063082 404.653483608 754.491856403 c 0
 412.286191937 749.226983813 415.675 740.561422461 415.675 731.72075 c 0
 415.675 728.953479994 415.384519585 726.154739657 414.855443632 723.292583625 c 2
 293.849160225 -39.7470381854 l 2
 291.881024583 -50.8998068226 286.934702293 -60.4217108741 278.40466483 -66.3766426877 c 0
 271.669942215 -71.0782414945 263.580505518 -73 255 -73 c 2
 220 -73 l 2
 212.295023181 -73 205.203774786 -71.5320630819 199.346516392 -67.4918564034 c 0
 191.713808063 -62.2269838134 188.325 -53.5614224612 188.325 -44.72075 c 0
 188.325 -41.9534799939 188.615480415 -39.1547396566 189.144556368 -36.2925836249 c 2
 310.137277167 726.661515296 l 2
 312.12046344 737.899570845 317.065297707 747.421710874 325.59533517 753.376642688 c 0
 332.330057785 758.078241495 340.419494482 760 349 760 c 2
EndSplineSet
PickledDataWithLists: "(dp0
Vcom.schriftgestaltung.Glyphs.lastChange
p1
V2015-12-22 16:32:56 +0000
p2
s."
EndChar

StartChar: beta
Encoding: 946 946 159
GlifName: beta
Width: 575
VWidth: 0
Flags: W
AnchorPoint: "mark-top" 360 700 basechar 0
LayerCount: 2
Fore
SplineSet
194.856358347 633.03574114 m 0
 235.952368015 677.872364848 294.036629292 700 365 700 c 0
 411.998594558 700 450.047880132 691.163178885 478.269675711 672.94864725 c 0
 513.892336623 649.957548676 532 612.575957499 532 565 c 0
 532 501.695616556 500.897288423 459.541979003 463.770278601 415.904012699 c 0
 454.673034863 404.917105151 444.118502407 392.593621955 437.822055012 381.883972351 c 0
 433.358875231 374.292534106 431 367.473213501 431 362.072776876 c 0
 431 348.199593919 444.619060851 333.925432304 461.064404952 318.704294637 c 0
 484.679618895 296.847209311 516 268.09463019 516 218.091080469 c 0
 516 87.3817669984 388.513514687 -8.82616950736 256.999817666 -8.82616950736 c 0
 223.674819024 -8.82616950736 189.959752016 -2.45999549238 157.824372515 11.360091193 c 1
 129.832949927 -166.851965948 l 2
 128.269546592 -175.190117068 125.15877428 -182.832383812 119.591088393 -188.817449263 c 0
 112.505000677 -196.43474299 102.413768346 -200 91 -200 c 2
 56 -200 l 2
 48.4774534059 -200 41.4218998784 -198.431904254 35.5961012651 -194.360923582 c 0
 28.0571342332 -189.092806519 24.3785361429 -180.434283282 24.3785361429 -171.260814262 c 0
 24.3785361429 -168.646344094 24.6454330837 -165.997027405 25.1443132288 -163.294002313 c 2
 131.115761698 489.138990714 l 2
 140.660719434 549.882880492 162.063596918 598.134686302 194.856358347 633.03574114 c 0
396.705045241 473.472213844 m 0
 417.996021066 499.485230124 430 514.285040186 430 542 c 0
 430 565.682603114 422.033964801 581.221293665 407.195328411 591.125023553 c 0
 395.059162299 599.225047564 377.081842742 604 353 604 c 0
 317.059267749 604 289.383994648 591.869558283 269.295575371 567.637785882 c 0
 253.111457492 548.115599712 241.485358253 519.9589464 235.889867719 482.512202057 c 2
 172.06578414 81.8904377571 l 1
 203.96598385 67.6313261681 258.785737584 62.4697368751 265.047592299 61.0674113139 c 1
 349.872265003 61.0674113139 415 114.761615168 415 199 c 0
 415 226.580726478 395.334055821 242.556021096 373.653767847 261.270077223 c 0
 351.122625176 278.900724558 324 299.752379164 324 339 c 0
 324 389.089624363 361.592009207 430.732554412 389.277507407 464.350659368 c 0
 391.866439266 467.560934874 394.304016275 470.538670257 396.705045241 473.472213844 c 0
EndSplineSet
PickledDataWithLists: "(dp0
Vcom.schriftgestaltung.Glyphs.lastChange
p1
V2015-12-22 12:27:37 +0000
p2
s."
EndChar

StartChar: block
Encoding: 9608 9608 160
GlifName: block
Width: 575
VWidth: 0
Flags: HMW
LayerCount: 2
Fore
SplineSet
-10 -260 m 1
 -10 910 l 1
 585 910 l 1
 585 -260 l 1
 -10 -260 l 1
EndSplineSet
PickledDataWithLists: "(dp0
Vcom.schriftgestaltung.Glyphs.lastChange
p1
V2016-06-10 08:26:49 +0000
p2
s."
EndChar

StartChar: braceleft
Encoding: 123 123 161
GlifName: braceleft
Width: 575
VWidth: 0
Flags: HMW
LayerCount: 2
Fore
SplineSet
558 664 m 2
 477 664 l 2
 445.32330212 664 426.756048746 656.068720641 414.295407071 640.880519153 c 0
 404.110025033 628.465618005 397.187923562 609.72485063 392.875521217 583.419196325 c 2
 364.883846292 407.471525366 l 2
 357.441761099 357.277345056 342.749370397 314.856015233 290.691523456 285.280222611 c 1
 320.393905572 264.186906622 329.828876538 235.080990974 329.828876547 204.25121695 c 0
 329.828876547 190.560222538 328.141155905 176.579486385 325.876890045 162.427824758 c 2
 297.876071462 -14.5773410675 l 2
 296.170912159 -25.3198446756 295.310807757 -34.7952323419 295.310807757 -42.9654483212 c 0
 295.310807757 -64.3215881886 300.775238725 -75.8274126221 310.961089719 -82.7281042987 c 0
 319.498341727 -88.5119061533 333.375981949 -92 354 -92 c 2
 435 -92 l 2
 442.704976819 -92 449.796225214 -93.4679369181 455.653483608 -97.5081435966 c 0
 463.286191937 -102.773016187 466.675 -111.438577539 466.675 -120.27925 c 0
 466.675 -123.038869035 466.38612361 -125.829784623 465.85982654 -128.68367789 c 0
 464.524410415 -137.3638827 463.373356528 -146.10125769 461.847672201 -154.746802208 c 0
 459.87953656 -165.899570845 454.934702293 -175.421710874 446.40466483 -181.376642688 c 0
 439.669942215 -186.078241495 431.580505518 -188 423 -188 c 2
 342 -188 l 2
 296.693316046 -188 261.560342727 -181.382968697 235.867528459 -165.228930522 c 0
 203.182203605 -144.678438079 188.81971072 -109.774649888 188.81971072 -62.3652806772 c 0
 188.81971072 -46.8730934905 190.303949263 -29.9089892972 193.123109955 -11.4278247583 c 2
 193.123109955 -11.4278247583 221.123109955 165.572175242 221.140830861 165.680337752 c 0
 222.837647072 175.691553398 223.689192243 184.52131141 223.689192243 192.11656105 c 0
 223.689192243 211.924009262 218.414337878 222.538470764 208.231190568 229.100923449 c 0
 199.652565446 234.629353881 185.655568783 238 165 238 c 2
 85 238 l 2
 77.2950231806 238 70.2037747859 239.467936918 64.3465163924 243.508143597 c 0
 56.7138080629 248.773016187 53.325 257.438577539 53.325 266.27925 c 0
 53.325 269.038869035 53.6138763902 271.829784623 54.1401734602 274.68367789 c 0
 55.4755895848 283.3638827 56.6266434719 292.10125769 58.1523277986 300.746802208 c 0
 60.1204634404 311.899570845 65.065297707 321.421710874 73.5953351698 327.376642688 c 0
 80.3300577849 332.078241495 88.4194944819 334 97 334 c 2
 177 334 l 2
 208.258289463 334 227.004480144 341.469740015 239.363267618 355.800007649 c 0
 249.433885055 367.477095179 256.264126122 385.274047341 260.124478783 410.580803675 c 2
 288.125355046 586.586301718 l 2
 306.600412775 702.298505387 360.629328879 760 489 760 c 2
 570 760 l 2
 577.704976819 760 584.796225214 758.532063082 590.653483608 754.491856403 c 0
 598.286191937 749.226983813 601.675 740.561422461 601.675 731.72075 c 0
 601.675 728.961130965 601.38612361 726.170215377 600.85982654 723.31632211 c 0
 599.524410415 714.6361173 598.373356528 705.89874231 596.847672201 697.253197792 c 0
 594.87953656 686.100429155 589.934702293 676.578289126 581.40466483 670.623357312 c 0
 574.669942215 665.921758505 566.580505518 664 558 664 c 2
EndSplineSet
PickledDataWithLists: "(dp0
Vcom.schriftgestaltung.Glyphs.lastChange
p1
V2016-04-11 09:42:36 +0000
p2
s."
EndChar

StartChar: bracketleft
Encoding: 91 91 163
GlifName: bracketleft
Width: 575
VWidth: 0
Flags: HMW
LayerCount: 2
Fore
SplineSet
394 -92 m 2
 401.704976819 -92 408.796225214 -93.4679369181 414.653483608 -97.5081435966 c 0
 422.286191937 -102.773016187 425.675 -111.438577539 425.675 -120.27925 c 0
 425.675 -123.038869035 425.38612361 -125.829784623 424.85982654 -128.68367789 c 0
 423.524410415 -137.3638827 422.373356528 -146.10125769 420.847672201 -154.746802208 c 0
 418.87953656 -165.899570845 413.934702293 -175.421710874 405.40466483 -181.376642688 c 0
 398.669942215 -186.078241495 390.580505518 -188 382 -188 c 2
 107 -188 l 2
 99.2950231806 -188 92.2037747859 -186.532063082 86.3465163924 -182.491856403 c 0
 78.7138080629 -177.226983813 75.325 -168.561422461 75.325 -159.72075 c 0
 75.325 -156.953915843 75.61538892 -154.155621268 76.1443063951 -151.293936003 c 2
 76.1443063951 -151.293936003 215.123295731 726.573349158 215.152327799 726.746802208 c 0
 217.12046344 737.899570845 222.065297707 747.421710874 230.59533517 753.376642688 c 0
 237.330057785 758.078241495 245.419494482 760 254 760 c 2
 529 760 l 2
 536.704976819 760 543.796225214 758.532063082 549.653483608 754.491856403 c 0
 557.286191937 749.226983813 560.675 740.561422461 560.675 731.72075 c 0
 560.675 728.961130965 560.38612361 726.170215377 559.85982654 723.31632211 c 0
 558.524410415 714.6361173 557.373356528 705.89874231 555.847672201 697.253197792 c 0
 553.87953656 686.100429155 548.934702293 676.578289126 540.40466483 670.623357312 c 0
 533.669942215 665.921758505 525.580505518 664 517 664 c 2
 310.541036848 664 l 1
 190.711139941 -92 l 1
 394 -92 l 2
EndSplineSet
PickledDataWithLists: "(dp0
Vcom.schriftgestaltung.Glyphs.lastChange
p1
V2015-12-22 13:51:23 +0000
p2
s."
EndChar

StartChar: breve
Encoding: 728 728 165
GlifName: breve
Width: 575
VWidth: 0
GlyphClass: 2
Flags: HMW
LayerCount: 2
Fore
SplineSet
548.346938776 674.221574344 m 0
 548.346938776 668.723019425 546.785973978 663.283201597 544.081731672 657.802576688 c 0
 508.398015949 575.148389075 433.249074126 528.000000276 334 528 c 0
 234.364400449 528 170.774587795 576.243042285 160.039595782 661.049479181 c 1
 160.019695153 661.36788925 l 2
 159.956824303 662.373822845 159.924748106 663.373248257 159.924748106 664.366538913 c 0
 159.924748106 684.270465151 173.825045292 697.41909637 193.291800075 700.854406038 c 2
 222.167991039 705.833059652 l 2
 224.928315701 706.377451601 227.635140431 706.678413548 230.32512836 706.678413548 c 0
 238.951904167 706.678413548 247.049131555 703.105497994 252.181024657 696.129059824 c 0
 256.093052616 690.810940246 258.005669289 684.43334016 258.89971121 677.430255541 c 0
 263.056023814 651.651718692 273.691382208 633.573770302 289.916459577 622.278574784 c 0
 303.010817458 613.162850661 320.531901446 608 343 608 c 0
 392.079538299 608 430.313460112 633.28797102 451.872891362 680.090275796 c 0
 458.624154118 695.463416543 470.120807971 706.678413548 487.146007779 706.678413548 c 0
 490.010590244 706.678413548 492.883936528 706.385011048 495.829418329 705.83273321 c 2
 495.829418329 705.83273321 522.829418329 700.83273321 522.968877628 700.805875941 c 0
 535.932711254 698.213109216 548.346938776 689.485161826 548.346938776 674.221574344 c 0
EndSplineSet
PickledDataWithLists: "(dp0
Vcom.schriftgestaltung.Glyphs.lastChange
p1
V2015-12-22 16:32:39 +0000
p2
s."
EndChar

StartChar: brokenbar
Encoding: 166 166 166
GlifName: brokenbar
Width: 575
VWidth: 0
Flags: HMW
LayerCount: 2
Fore
SplineSet
237 -188 m 2
 202 -188 l 2
 194.653605073 -188 187.688161728 -186.68206353 181.791630876 -182.765349043 c 0
 174.070240991 -177.636489314 170.378536143 -168.895430723 170.378536143 -159.569942486 c 0
 170.378536143 -156.891442116 170.64381609 -154.160090717 171.136907031 -151.340970103 c 2
 171.136907031 -151.340970103 222.124154669 169.578765026 222.152327799 169.746802208 c 0
 224.12046344 180.899570845 229.065297707 190.421710874 237.59533517 196.376642688 c 0
 244.330057785 201.078241495 252.419494482 203 261 203 c 2
 296 203 l 2
 303.346394927 203 310.311838272 201.68206353 316.208369124 197.765349043 c 0
 323.929759009 192.636489314 327.621463857 183.895430723 327.621463857 174.569942486 c 0
 327.621463857 171.891442116 327.35618391 169.160090717 326.863092969 166.340970103 c 2
 275.900429244 -154.424030987 l 2
 274.516080959 -165.201120255 269.800848959 -174.827180041 261.258153689 -180.96755377 c 0
 254.47947997 -185.839972687 246.116938086 -188 237 -188 c 2
325 369 m 2
 290 369 l 2
 282.24594172 369 275.005421498 370.690338843 269.18366008 375.143307522 c 0
 261.691666645 380.873808948 258.666666667 389.810484791 258.666666667 398.92866941 c 0
 258.666666667 401.052237618 258.825779668 403.236094337 259.098168517 405.41520513 c 2
 310.167549062 726.851894441 l 2
 313.8922121 746.716763981 328.308662975 760 349 760 c 2
 384 760 l 2
 391.541504747 760 398.533173788 758.771159083 404.454822479 754.891821229 c 0
 412.269088472 749.772608752 415.675 741.02491968 415.675 732.045875 c 0
 415.675 729.213894987 415.386245856 726.329285446 414.86302915 723.340568424 c 2
 363.900259978 402.574903633 l 2
 361.225325867 381.8142204 345.281519529 369 325 369 c 2
EndSplineSet
PickledDataWithLists: "(dp0
Vcom.schriftgestaltung.Glyphs.lastChange
p1
V2015-12-22 14:22:08 +0000
p2
s."
EndChar

StartChar: bullet
Encoding: 8226 8226 167
GlifName: bullet
Width: 575
VWidth: 0
Flags: HMW
LayerCount: 2
Fore
SplineSet
490 325 m 0
 490 221.668731366 409.60564691 140 308 140 c 0
 205.43910777 140 125 221.64200859 125 325 c 0
 125 428.35799141 205.43910777 510 308 510 c 0
 409.60564691 510 490 428.331268634 490 325 c 0
EndSplineSet
PickledDataWithLists: "(dp0
Vcom.schriftgestaltung.Glyphs.lastChange
p1
V2015-12-22 16:32:38 +0000
p2
s."
EndChar

StartChar: c
Encoding: 99 99 168
GlifName: c
Width: 575
VWidth: 0
Flags: W
AnchorPoint: "mark-top" 327 500 basechar 0
AnchorPoint: "mark-bottom" 248 0 basechar 0
LayerCount: 2
Fore
SplineSet
518.079815367 479.132416988 m 0
 529.207458379 474.309830366 537.116510428 464.808698207 537.116510428 452.674472301 c 0
 537.116510428 445.57222831 534.655663228 438.671602126 530.61435266 431.920926443 c 2
 516.735548116 408.128690082 l 2
 509.875277493 395.372438433 498.889930402 386.524782204 485.100338323 386.524782204 c 0
 480.052118147 386.524782204 475.068846932 387.682019741 470.227596696 389.735824206 c 0
 430.164101281 405.355266528 364.525799797 410.520186469 357 412 c 1
 233.249166304 412 176 317.81554042 176 213.26744186 c 0
 176 157.915351211 192.571703627 126.225751097 217.817603001 108.504918566 c 0
 238.240881714 94.1692240267 266.008856211 88 299 88 c 0
 338.731783969 88 373.312196812 94.6584180802 420.672871269 110.433934883 c 0
 425.838580461 112.353890843 430.856958162 113.475216496 435.884242578 113.475217796 c 0
 450.365628297 113.475217796 460.068428903 103.061259609 463.702242193 89.4297608764 c 0
 465.733475826 81.3048263469 468.1613583 73.1914658344 469.805875941 64.9688776276 c 0
 470.46153735 61.6905705833 470.824949646 58.4208798839 470.824949646 55.1537719517 c 0
 470.824949646 39.8513437824 461.897847259 26.8086450195 445.579793665 20.6605789671 c 0
 397.027855622 1.62921627262 292.814325325 -10.1920182842 286.703652522 -10.1920182842 c 1
 286.784588612 -10.1734545343 286.8832623 -10.0225706276 287 -10 c 1
 236.241306872 -10 187.743202042 0.706922429317 149.207490157 27.1400409558 c 0
 100.763889139 60.3693595518 70 117.573305595 70 203.777777778 c 0
 70 369.661351916 180.754869326 510 369 510 c 0
 421.261662899 510 473.543688054 499.81968534 518.079815367 479.132416988 c 0
EndSplineSet
PickledDataWithLists: "(dp0
Vcom.schriftgestaltung.Glyphs.lastChange
p1
V2016-06-09 18:35:33 +0000
p2
s."
EndChar

StartChar: c.hex
Encoding: 65548 -1 169
GlifName: c.hex
Width: 575
VWidth: 0
Flags: W
LayerCount: 2
Fore
SplineSet
212.299505596 892.614380323 m 0
 220.429383125 886.024900642 224 875.92286565 224 865 c 2
 224 819 l 2
 224 807.680679758 220.49077603 797.434582054 212.147103874 790.935300585 c 0
 205.638298075 785.865283436 197.538455695 784 189 784 c 2
 154 784 l 2
 142.680679758 784 132.434582054 787.50922397 125.935300585 795.852896126 c 0
 120.865283436 802.361701925 119 810.461544305 119 819 c 2
 119 865 l 2
 119 875.92286565 122.570616875 886.024900642 130.700494404 892.614380323 c 0
 137.096746819 897.798711228 145.246618748 900 154 900 c 2
 189 900 l 2
 197.753381252 900 205.903253181 897.798711228 212.299505596 892.614380323 c 0
360.614380323 888.299505596 m 0
 365.798711228 881.903253181 368 873.753381252 368 865 c 2
 368 819 l 2
 368 807.680679758 364.49077603 797.434582054 356.147103874 790.935300585 c 0
 349.638298075 785.865283436 341.538455695 784 333 784 c 2
 298 784 l 2
 286.680679758 784 276.434582054 787.50922397 269.935300585 795.852896126 c 0
 264.865283436 802.361701925 263 810.461544305 263 819 c 2
 263 865 l 2
 263 873.753381252 265.201288772 881.903253181 270.385619677 888.299505596 c 0
 276.975099358 896.429383125 287.07713435 900 298 900 c 2
 333 900 l 2
 343.92286565 900 354.024900642 896.429383125 360.614380323 888.299505596 c 0
EndSplineSet
Refer: 168 99 N 1 0 0 1 0 0 2
PickledDataWithLists: "(dp0
Vcom.schriftgestaltung.Glyphs.lastChange
p1
V2016-06-09 18:35:34 +0000
p2
s."
EndChar

StartChar: caron
Encoding: 711 711 171
GlifName: caron
Width: 575
VWidth: 0
GlyphClass: 2
Flags: HMW
LayerCount: 2
Fore
SplineSet
334 532 m 0
 308.161496345 532 287.848709734 542.409701211 268.263173719 555.810331116 c 2
 174.005563144 621.991206626 l 2
 165.938126671 628.04178398 160.484393038 636.716430534 160.484393038 646.7512616 c 0
 160.484393038 655.794864543 164.732468213 664.244208184 171.545355151 671.664199936 c 0
 178.236321883 679.358811677 184.735663894 687.287339796 191.651303177 694.779282353 c 0
 199.907072708 703.723032677 209.786508466 709.522727273 220.701258452 709.522727273 c 0
 228.203739814 709.522727273 235.278331957 706.659125569 241.228873946 701.821945195 c 0
 271.650940184 678.077142495 302.093059588 654.35239296 332.502473874 630.594938307 c 0
 335.627945369 627.915962739 339.088430043 625.260521339 340.092632001 624.837983281 c 0
 341.140402593 624.397112849 342.59158721 624 346 624 c 0
 351.158177919 624 351.641667689 624.653255165 356.850405091 627.950535027 c 0
 396.437187327 653.010101253 436.226894741 677.677952878 475.864631159 702.5830793 c 0
 482.933362339 706.824318008 490.005459095 709.522727273 497.400826446 709.522727273 c 0
 508.566369715 709.522727273 517.395472044 702.626117428 522.676180867 692.97873606 c 2
 536.522902595 670.230324543 l 2
 539.963927924 664.638658383 542 658.516034198 542 652.148148148 c 0
 542 639.053636361 533.453136377 628.343776257 520.942493313 621.306539534 c 2
 407.009328079 556.344647076 l 2
 384.422435271 543.004735684 359.906392186 532 334 532 c 0
EndSplineSet
PickledDataWithLists: "(dp0
Vcom.schriftgestaltung.Glyphs.lastChange
p1
V2016-05-18 20:16:32 +0000
p2
s."
EndChar

StartChar: cedilla
Encoding: 184 184 175
GlifName: cedilla
Width: 575
VWidth: 0
Flags: HMW
AnchorPoint: "bottom" 202 0 mark 0
LayerCount: 2
Fore
SplineSet
239.343298777 23 m 0
 245.317926353 23 251.29255393 23 257.267181506 23 c 2
 257.533083614 22.9860051522 l 2
 271.991413987 22.2250403957 286.482072677 14.8035990841 286.482072677 -1.306386112 c 0
 286.482072677 -8.39028169514 283.823239533 -15.1934476332 279.551562056 -22.1834653219 c 2
 260.106016222 -54.1745245981 l 1
 274.727952704 -52.0280476254 301.144433289 -50.9999575965 302 -51 c 0
 373.531975111 -51.0035452588 413 -83.5237823637 413 -129 c 0
 413 -156.029259078 398.876212905 -179.405529761 377.697260965 -197.966858427 c 0
 335.450409318 -234.992189084 263.258031944 -256 196 -256 c 0
 169.798624771 -256 144.684513927 -251.73225644 117.159752339 -244.59620714 c 0
 104.311190462 -240.313353181 94.9621692042 -230.454664194 94.9621692042 -217.030958214 c 0
 94.9621692042 -206.032754762 101.639528012 -195.609986456 106.073015471 -187.481926115 c 0
 113.188034549 -172.486364398 126.042165725 -164.168990713 141.066201857 -164.168990713 c 0
 144.355410241 -164.168990713 147.654997673 -164.531348068 150.968877628 -165.194124059 c 0
 170.219083613 -169.044165256 191.812799593 -171 207 -171 c 0
 232.441766842 -171 258.338723238 -166.105635701 275.154376948 -158.308054343 c 0
 289.252221625 -151.770747335 294 -144.689612353 294 -140 c 0
 294 -137.53449194 290.657059617 -129 263 -129 c 0
 255.874330265 -129 246.152865243 -129.935816346 236.260540701 -130.924481313 c 0
 233.039238217 -131.409466046 229.858857305 -131.696938006 226.678190409 -131.696938457 c 0
 215.249398822 -131.696938457 204.335504932 -127.381987863 196.243255101 -117.309317095 c 2
 196.243255101 -117.309317095 172.29296254 -88.3693802502 172.187582466 -88.2398731262 c 0
 167.049213839 -81.8169123433 164 -74.2524617921 164 -66.125 c 0
 164 -58.0558154072 166.887042858 -50.22929331 171.524835831 -42.6928797289 c 2
 198.477097405 0.23032454267 l 2
 207.130190613 14.2916010072 219.743827264 23.1071428571 236.060495627 23.1071428571 c 0
 237.148780297 23.1071428571 238.242840981 23.0708309173 239.343298777 23 c 0
EndSplineSet
PickledDataWithLists: "(dp0
Vcom.schriftgestaltung.Glyphs.lastChange
p1
V2015-12-22 16:32:40 +0000
p2
s."
EndChar

StartChar: cent
Encoding: 162 162 176
GlifName: cent
Width: 575
VWidth: 0
Flags: HMW
LayerCount: 2
Fore
SplineSet
250 -188 m 2
 215 -188 l 2
 207.653605073 -188 200.688161728 -186.68206353 194.791630876 -182.765349043 c 0
 187.070240991 -177.636489314 183.378536143 -168.895430723 183.378536143 -159.569942486 c 0
 183.378536143 -156.893850157 183.643339317 -154.165001784 184.13557768 -151.348573275 c 2
 216.67390263 55.4272336702 l 1
 319.437914286 39.3316654915 l 1
 288.847672201 -154.746802208 l 2
 286.87953656 -165.899570845 281.934702293 -175.421710874 273.40466483 -181.376642688 c 0
 266.669942215 -186.078241495 258.580505518 -188 250 -188 c 2
351 688 m 2
 386 688 l 2
 393.346394927 688 400.311838272 686.68206353 406.208369124 682.765349043 c 0
 413.929759009 677.636489314 417.621463857 668.895430723 417.621463857 659.569942486 c 0
 417.621463857 656.886733679 417.355250439 654.150487869 416.860490498 651.326102404 c 2
 387.705289086 471.188607969 l 1
 279.947949553 455.086960693 l 1
 312.152327799 654.746802208 l 2
 314.12046344 665.899570845 319.065297707 675.421710874 327.59533517 681.376642688 c 0
 334.330057785 686.078241495 342.419494482 688 351 688 c 2
EndSplineSet
Refer: 168 99 N 1 0 0 1 0 0 2
PickledDataWithLists: "(dp0
Vcom.schriftgestaltung.Glyphs.lastChange
p1
V2015-12-22 14:01:47 +0000
p2
s."
EndChar

StartChar: chi
Encoding: 967 967 177
GlifName: chi
Width: 575
VWidth: 0
Flags: W
AnchorPoint: "mark-top" 327 500 basechar 0
LayerCount: 2
Fore
SplineSet
125.406699623 501 m 1
 126 501 l 2
 134.817295364 501 142.823646373 502 152 502 c 0
 188.874407507 502 226.438393994 491.954361637 258.354609559 452.196883809 c 0
 283.496991302 420.877453638 304.982769798 372.150771457 322.440375567 296.575049357 c 1
 469.257111531 480.32581217 l 2
 479.993986982 493.448659944 494.205061558 500 510 500 c 2
 549 500 l 2
 563.312039241 500 577.949500619 493.224327794 577.949500619 478.140108633 c 0
 577.949500619 470.08566906 573.9427336 462.634425267 567.761962507 455.406148688 c 2
 348.841039006 196.126660602 l 1
 367.748533498 116.914005493 l 2
 394.983186581 2.28057025076 422.969193016 -22 448 -22 c 0
 454.92565188 -22 461.649407131 -20.6979693856 468.631583875 -20.6979693856 c 0
 477.567891707 -20.6979693856 486.216633774 -23.7121216073 491.86012915 -30.7994633989 c 0
 496.278920992 -36.3487703456 498.075379283 -43.311432107 498.075379283 -50.6428978209 c 0
 498.075379283 -51.5212200012 498.04988965 -52.4064573918 498 -53.299382429 c 0
 498 -61.2990698171 498 -69.2987572052 498 -77.2984445934 c 2
 497.982540462 -77.5952567402 l 2
 497.465004569 -86.3933669185 495.294662789 -94.454880596 490.327622373 -101.031982736 c 0
 483.845594513 -109.615154148 474.017815038 -113.655939452 462.593300377 -115 c 1
 462 -115 l 2
 453.182704636 -115 445.176353627 -116 436 -116 c 0
 399.125592493 -116 361.561606006 -105.954361637 329.645390441 -66.1968838086 c 0
 304.361551813 -34.7012432424 282.77557798 14.3980748452 265.265345383 90.7031217509 c 2
 263.007592029 100.056671359 l 1
 85.6365078707 -117.453662313 l 0
 77.7401709012 -126.785696913 67.7079881144 -133.1732461 56.2264267758 -133.1732461 c 0
 49.0554734982 -133.1732461 42.1684170046 -130.589505642 36.1324112795 -126.097404699 c 0
 30.4316195325 -122.073316407 24.5895978868 -118.190653514 19.0083990362 -114.004754376 c 0
 10.9304973635 -107.946328121 5.87092262792 -99.291566069 5.87092262792 -89.6078061394 c 0
 5.87092262792 -80.5672636844 9.95653773539 -72.1510621557 16.2761995381 -64.6497266568 c 2
 237.164355707 199.305204518 l 1
 220.251466502 269.619153628 l 2
 193.016813419 383.812619831 165.030806984 408 140 408 c 0
 133.571018862 408 127.900519013 406.916320516 121.233335938 406.916320516 c 0
 113.503062757 406.916320516 106.295780463 408.574380165 100.478862035 412.965914188 c 0
 92.9802523924 418.627055869 89.9166666667 427.511937342 89.9166666667 436.56515775 c 0
 89.9166666667 437.47733049 89.9450539855 438.394861268 90 439.318862928 c 0
 90 447.312056816 90 455.305250705 90 463.298444593 c 2
 90.0174595381 463.59525674 l 2
 90.5349954309 472.393366919 92.7053372108 480.454880596 97.6723776272 487.031982736 c 0
 104.154405487 495.615154148 113.982184962 499.655939452 125.406699623 501 c 1
EndSplineSet
PickledDataWithLists: "(dp0
Vcom.schriftgestaltung.Glyphs.lastChange
p1
V2015-12-22 12:54:05 +0000
p2
s."
EndChar

StartChar: circumflex
Encoding: 710 710 178
GlifName: circumflex
Width: 575
VWidth: 0
GlyphClass: 2
Flags: HMW
LayerCount: 2
Fore
SplineSet
195.602036994 531.406825286 m 0
 184.307381537 531.406825286 175.167956256 537.778118194 168.452969528 546.731433831 c 1
 164.357445468 554.922481951 160.261921408 563.11353007 156.166397348 571.30457819 c 0
 153.032169882 576.869322157 151.215285794 582.742860576 151.215285794 588.772710276 c 0
 151.215285794 602.211604282 160.016335921 612.782921193 172.033077688 619.679486034 c 2
 286.922132408 685.61581309 l 2
 310.48054025 699.943764192 333.28607325 710 359 710 c 0
 385.297890342 710 407.521560375 698.116952042 425.539372816 685.329955545 c 2
 518.68243171 619.227593137 l 2
 527.036863245 613.443755921 532.878751001 605.067373562 532.878751001 595.021609288 c 0
 532.878751001 585.79912478 528.255571024 576.785167983 521.385783164 569.261114613 c 2
 500.508292366 546.395291357 l 2
 492.932282236 537.498628981 483.528427822 531.477272727 472.658809166 531.477272727 c 0
 465.179215484 531.477272727 458.059659187 534.203151266 452.006314401 538.992610877 c 2
 360.987773046 611.00728096 l 2
 359.202640468 612.293287601 357.74371665 613.483748944 356.568670188 614.439350879 c 0
 352.44861853 617.789966763 353.20973504 618 348 618 c 0
 342.539338466 618 341.215743539 617.004752921 335.235936278 613.403386646 c 0
 333.759095207 612.513952355 332.065323809 611.492557757 330.114822259 610.402050094 c 2
 217.397160286 538.582043419 l 2
 210.442053274 534.110903197 203.157492153 531.406825286 195.602036994 531.406825286 c 0
EndSplineSet
PickledDataWithLists: "(dp0
Vcom.schriftgestaltung.Glyphs.lastChange
p1
V2015-12-22 16:32:40 +0000
p2
s."
EndChar

StartChar: colon
Encoding: 58 58 179
GlifName: colon
Width: 575
VWidth: 0
Flags: HMW
LayerCount: 2
Fore
SplineSet
287 560 m 2
 387 560 l 2
 394.704976819 560 401.796225214 558.532063082 407.653483608 554.491856403 c 0
 415.286191937 549.226983813 418.675 540.561422461 418.675 531.72075 c 0
 418.675 528.940457257 418.381779158 526.128397288 417.847958311 523.252171601 c 2
 402.847672201 433.253197792 l 2
 400.87953656 422.100429155 395.934702293 412.578289126 387.40466483 406.623357312 c 0
 380.669942215 401.921758505 372.580505518 400 364 400 c 2
 264 400 l 2
 256.295023181 400 249.203774786 401.467936918 243.346516392 405.508143597 c 0
 235.713808063 410.773016187 232.325 419.438577539 232.325 428.27925 c 0
 232.325 431.059542743 232.618220842 433.871602712 233.152041689 436.747828399 c 2
 248.152327799 526.746802208 l 2
 250.12046344 537.899570845 255.065297707 547.421710874 263.59533517 553.376642688 c 0
 270.330057785 558.078241495 278.419494482 560 287 560 c 2
220 150 m 2
 320 150 l 2
 327.704976819 150 334.796225214 148.532063082 340.653483608 144.491856403 c 0
 348.286191937 139.226983813 351.675 130.561422461 351.675 121.72075 c 0
 351.675 118.940457257 351.381779158 116.128397288 350.847958311 113.252171601 c 2
 335.847672201 23.2531977922 l 2
 333.87953656 12.100429155 328.934702293 2.57828912588 320.40466483 -3.37664268773 c 0
 313.669942215 -8.07824149453 305.580505518 -10 297 -10 c 2
 197 -10 l 2
 189.295023181 -10 182.203774786 -8.53206308191 176.346516392 -4.49185640338 c 0
 168.713808063 0.773016186614 165.325 9.4385775388 165.325 18.27925 c 0
 165.325 21.0595427427 165.618220842 23.8716027116 166.152041689 26.7478283988 c 2
 181.152327799 116.746802208 l 2
 183.12046344 127.899570845 188.065297707 137.421710874 196.59533517 143.376642688 c 0
 203.330057785 148.078241495 211.419494482 150 220 150 c 2
EndSplineSet
PickledDataWithLists: "(dp0
Vcom.schriftgestaltung.Glyphs.lastChange
p1
V2015-12-22 20:53:35 +0000
p2
s."
EndChar

StartChar: comma
Encoding: 44 44 180
GlifName: comma
Width: 575
VWidth: 0
Flags: HMW
LayerCount: 2
Fore
SplineSet
38 -257 m 0
 30.2950231806 -257 23.2037747859 -255.532063082 17.3465163924 -251.491856403 c 0
 9.71380806287 -246.226983813 6.325 -237.561422461 6.325 -228.72075 c 0
 6.325 -225.961130965 6.61387639024 -223.170215377 7.14017346018 -220.31632211 c 0
 8.47558958475 -211.6361173 9.62664347187 -202.89874231 11.1523277986 -194.253197792 c 0
 13.1204634404 -183.100429155 18.065297707 -173.578289126 26.5953351698 -167.623357312 c 0
 33.3300577849 -162.921758505 41.4194944819 -161 50 -161 c 0
 113.720261374 -161 155.110831784 -147.176417487 182.646126437 -116.11945748 c 0
 203.270080375 -92.8577738585 217.144069949 -58.5347350428 225.319235548 -10 c 1
 197 -10 l 2
 189.295023181 -10 182.203774786 -8.53206308191 176.346516392 -4.49185640338 c 0
 168.713808063 0.773016186614 165.325 9.4385775388 165.325 18.27925 c 0
 165.325 21.0595427427 165.618220842 23.8716027116 166.152041689 26.7478283988 c 2
 181.152327799 116.746802208 l 2
 183.12046344 127.899570845 188.065297707 137.421710874 196.59533517 143.376642688 c 0
 203.330057785 148.078241495 211.419494482 150 220 150 c 2
 320 150 l 2
 327.704976819 150 334.796225214 148.532063082 340.653483608 144.491856403 c 0
 348.286191937 139.226983813 351.675 130.561422461 351.675 121.72075 c 0
 351.675 118.94733904 351.383228922 116.142317919 350.851917829 113.273528129 c 2
 331.879561118 -3.55519536731 l 2
 316.154340305 -104.084285565 284.712049671 -171.995079032 226.5320619 -212.007905809 c 0
 180.174143102 -243.890198082 118.55298954 -257 38 -257 c 0
EndSplineSet
PickledDataWithLists: "(dp0
Vcom.schriftgestaltung.Glyphs.lastChange
p1
V2015-12-22 20:53:49 +0000
p2
s."
EndChar

StartChar: copyright
Encoding: 169 169 181
GlifName: copyright
Width: 575
VWidth: 0
Flags: HMW
LayerCount: 2
Fore
SplineSet
432.557070038 488.403004104 m 0
 432.557070038 477.581618114 426.08223752 466.813223042 416.991600964 459.995245624 c 2
 405.218094762 451.165115973 l 2
 397.944897382 445.069575944 390.282253795 441.370081621 381.932143754 441.370081621 c 0
 373.18364253 441.370081621 365.878908047 445.102185042 358.641728972 449.557169627 c 0
 349.420141379 455.425452641 337.213133637 459 324 459 c 2
 323 459 l 2
 303.070742066 459 279.108148096 449.066974938 261.863326348 432.729775387 c 0
 245.658081023 417.424821469 234.510383988 395.228224275 230.851933866 373.277523544 c 0
 230.050851449 368.671299645 229.655484342 364.016673891 229.655484342 359.400391891 c 0
 229.655484342 343.511750207 234.374863418 327.999235855 243.031160158 315.958084447 c 0
 253.980797218 301.716478219 273.151155329 291.935636018 293.228526569 291 c 2
 294 291 l 2
 306.797459665 291 321.519556792 295.483966601 333.304464635 301.829686209 c 0
 341.159687739 306.019138531 348.631221067 309.12994566 356.812697207 309.12994566 c 0
 365.641279256 309.12994566 373.479630978 304.779282934 379.399161437 297.740201063 c 0
 382.391859582 294.747502918 385.553550076 291.854376708 388.400433313 288.722805146 c 0
 394.00322164 282.559737987 397.559792188 274.963431174 397.559792188 266.724492904 c 0
 397.559792188 255.607043723 391.014543072 245.658626186 380.536899051 238.673530171 c 0
 351.863669685 219.558043928 317.187722467 209 285 209 c 2
 281.745831034 209 l 1
 239.176561903 210.064231728 200.142911246 228.188235964 176.043546765 260.941806506 c 0
 156.511297215 285.640172228 145.801994851 316.853802744 145.801994502 349.883253111 c 0
 145.801994502 358.706998641 146.566609918 367.645087075 148.128991329 376.61323965 c 0
 154.530394681 419.078335024 177.645280446 460.921527668 211.288811015 491.410976948 c 0
 244.504523887 521.512716738 287.89880926 540.507308109 330.342795545 540.990554875 c 0
 331.35224067 541.327036583 332.361685795 541.663518292 333.371130919 542 c 2
 335 542 l 2
 367.4095936 542 398.551373612 530.245481229 421.452274269 510.637940082 c 0
 428.443427659 504.787893706 432.557070038 496.86592173 432.557070038 488.403004104 c 0
32.72 334.256 m 0
 32.72 348.303540697 33.8393733587 362.454746446 36.124982177 376.583964595 c 0
 47.5174362182 448.045721763 86.6716136137 517.997961244 144.564520231 568.651856257 c 1
 203.244363541 618.066461149 277.306525168 647 349 647 c 0
 419.661876847 647 487.471347794 618.052267211 529.672242904 567.411193079 c 0
 564.366532205 525.947286354 583.171494776 471.817644014 583.171494776 414.817814769 c 0
 583.171494776 401.130645237 582.082735436 387.264611161 579.871407399 373.393553476 c 0
 568.469538829 302.909275041 528.348351362 232.004137551 469.542824703 182.438582288 c 0
 418.486102007 136.994580878 275.738080526 101.588409722 264.42901589 101.588409722 c 0
 263.959073031 101.588409722 263.716096191 101.649548352 263.716096191 101.773645929 c 0
 263.716096191 101.989235281 264.449415102 102.394838574 266 103 c 1
 194.287497949 103 128.447092667 132.115156658 84.314830319 183.604287487 c 0
 50.6039103227 224.057391482 32.72 278.126659029 32.72 334.256 c 0
499.306881384 405.02187956 m 0
 499.306881384 444.400826725 486.648070842 481.754880768 463.33194705 509.583802712 c 0
 434.427303489 544.082893415 388.221711198 565 339 565 c 0
 289.794256432 565 236.845963941 543.979668405 195.517076335 508.417602326 c 0
 154.249978125 472.908703866 125.476903684 422.827323547 117.883408313 373.469603634 c 0
 116.415280947 363.926775756 115.693118616 354.39224588 115.693118616 344.97812044 c 0
 115.693118616 305.627515172 128.333714066 268.298889353 151.617728587 240.476301411 c 0
 181.558225579 205.894937553 226.717277785 186 276 186 c 0
 325.366353711 186 379.262371615 206.150917564 419.394437939 241.505356944 c 0
 460.661536149 277.014255404 489.523096316 327.172676453 497.116591687 376.530396366 c 0
 498.584719053 386.073224244 499.306881384 395.60775412 499.306881384 405.02187956 c 0
EndSplineSet
PickledDataWithLists: "(dp0
Vcom.schriftgestaltung.Glyphs.lastChange
p1
V2015-12-22 14:24:21 +0000
p2
s."
EndChar

StartChar: currency
Encoding: 164 164 182
GlifName: currency
Width: 575
VWidth: 0
Flags: HMW
LayerCount: 2
Fore
SplineSet
588.058408433 462.011622668 m 0
 588.058408433 451.036968463 581.610593861 441.60916057 572.360949664 434.282824481 c 2
 483.227542353 357.346620276 l 1
 493.718347689 333.274064715 499.282269343 306.931022747 499.282269343 279.623758278 c 0
 499.282269343 269.33703018 498.4865602 258.890602869 496.877341329 248.430680202 c 0
 490.974125725 211.043648048 474.194672707 173.222077469 449.884267837 141.217239094 c 1
 513.685169681 65.3957125134 l 2
 518.785407681 59.275426914 522.179482965 52.1623070382 522.179482965 44.320505295 c 0
 522.179482965 32.9118971753 515.118064574 23.4758175887 505.101151547 16.0753969455 c 2
 505.101151547 16.0753969455 479.276508694 -4.78296843538 479.17074583 -4.86722390918 c 0
 471.342536211 -11.0179600382 463.030343047 -15.1290773721 454.009219077 -15.1290773721 c 0
 444.403661654 -15.1290773721 436.088454996 -9.99921444323 430.169418544 -2.22213370784 c 2
 368.664823569 71.2161886499 l 1
 333.107914688 51.9628187889 293.491916131 41 256 41 c 0
 217.792248783 41 182.21730583 51.933171017 152.704970693 71.3634381587 c 1
 66.5024738735 -3.59493830657 l 2
 58.3437893501 -10.5880964695 49.608925594 -15.1290773721 40.1092201062 -15.1290773721 c 0
 30.9115932395 -15.1290773721 22.8725275744 -10.5843272877 16.6833733908 -3.81473175338 c 0
 9.99413915442 3.20896419477 3.12394910827 10.1003741901 -3.40043331328 17.2771948538 c 0
 -8.86341728983 23.286477228 -12.3242899478 30.5441671213 -12.3242899478 38.4608121863 c 0
 -12.3242899478 49.2642236083 -6.22128192569 58.556081832 2.34407633978 66.4625663848 c 2
 91.7253622971 143.612729001 l 1
 81.5442624667 166.712692382 76.5454545455 192.550315529 76.5454545455 218.84823441 c 0
 76.5454545455 229.735577165 77.3992762421 240.654065214 79.1165916873 251.530396366 c 0
 85.0055917191 289.808896573 100.968204052 326.963845928 125.18856218 359.696195769 c 1
 61.2571115311 435.67418783 l 0
 56.4685855217 441.52683073 53.5438947422 448.5062386 53.5438947422 455.966946197 c 0
 53.5438947422 467.167197299 60.0405586868 477.175431289 69.91080136 484.930621961 c 2
 95.82925417 504.867223909 l 2
 103.846235586 511.166280736 112.346930312 515.25 121.5 515.25 c 0
 130.936012411 515.25 139.168932053 510.577456532 145.563071305 503.543903355 c 2
 206.449817924 429.741786242 l 1
 242.758001746 448.907138873 281.697651571 459 320 459 c 0
 357.048695371 459 393.353279991 449.119573152 422.402569964 429.674538711 c 1
 509.546337687 504.636507871 l 2
 517.330161507 511.222820334 525.873101479 515.379465974 535.044240851 515.379465974 c 0
 543.833857546 515.379465974 552.14018733 511.299992997 558.241260388 504.893866286 c 2
 578.162288877 483.976786372 l 2
 584.220926694 477.880485891 588.058408433 470.30033276 588.058408433 462.011622668 c 0
173.402269688 230.471657542 m 0
 173.402269688 177.493436546 212.805143305 138 269 138 c 0
 331.834919436 138 389.903591761 188.397350423 400.128592601 251.606446524 c 0
 401.140404706 257.861284992 401.625035043 263.964749808 401.625035043 269.876909202 c 0
 401.625035043 323.033087891 362.911351383 363 307 363 c 0
 244.20646661 363 185.093708547 311.58596057 174.871407399 248.393553476 c 0
 173.87760611 242.250054594 173.402269688 236.264245809 173.402269688 230.471657542 c 0
EndSplineSet
PickledDataWithLists: "(dp0
Vcom.schriftgestaltung.Glyphs.lastChange
p1
V2015-12-22 14:02:18 +0000
p2
s."
EndChar

StartChar: d
Encoding: 100 100 183
GlifName: d
Width: 575
VWidth: 0
Flags: W
AnchorPoint: "mark-bottom" 248 0 basechar 0
AnchorPoint: "mark-topright" 560 700 basechar 0
LayerCount: 2
Fore
SplineSet
469.166517852 716.852040776 m 2
 472.891180891 736.716910316 487.308662975 750 508 750 c 2
 543 750 l 2
 550.522546594 750 557.578100122 748.431904254 563.403898735 744.360923582 c 0
 570.942865767 739.092806519 574.621463857 730.434283282 574.621463857 721.260814262 c 0
 574.621463857 718.646623481 574.354623955 715.997593627 573.855846697 713.294868862 c 2
 463.900980883 37.5277968957 l 2
 461.586212418 19.9396351688 450.214453772 1.42108547152e-14 427 0 c 2
 390 0 l 2
 382.477453406 0 375.421899878 1.5680957456 369.596101265 5.63907641837 c 0
 362.057134233 10.9071934812 358.378536143 19.565716718 358.378536143 28.7391857382 c 0
 358.378536143 35.4386112864 359.974703756 41.9656053316 360.949041202 48.1364091605 c 1
 312.093161524 10.1280537422 259.435118921 -10 212 -10 c 0
 166.87587676 -10 126.14433214 8.30420436486 99.7411959085 49.8264121437 c 0
 78.780979161 82.7889536853 67 129.460163341 67 192.222222222 c 0
 67 274.693142845 82.9320386812 346.465830687 119.502486653 401.215685377 c 0
 165.454131706 470.010191021 243.383835687 510 357 510 c 0
 375.570805427 510 404.060117189 509.157758922 436.540759162 506.703771568 c 1
 469.166517852 716.852040776 l 2
421.392598555 411.024710236 m 1
 388.43565754 413.238763451 360.937624382 414 345 414 c 0
 272.364086734 414 228.605645089 387.294806444 202.86026899 343.820672964 c 0
 182.056126383 308.690400673 173 261.523939334 173 207.586206897 c 0
 173 166.130838551 179.319739347 136.935793706 189.412228101 117.99981763 c 0
 201.804830702 94.7482656969 219.304802853 86 242 86 c 0
 278.010903425 86 328.233912445 110.591711514 378.610999452 161.022813871 c 1
 421.392598555 411.024710236 l 1
EndSplineSet
EndChar

StartChar: d.hex
Encoding: 65549 -1 184
GlifName: d.hex
Width: 575
VWidth: 0
Flags: W
LayerCount: 2
Fore
SplineSet
212.299505596 892.614380323 m 0
 220.429383125 886.024900642 224 875.92286565 224 865 c 2
 224 819 l 2
 224 807.680679758 220.49077603 797.434582054 212.147103874 790.935300585 c 0
 205.638298075 785.865283436 197.538455695 784 189 784 c 2
 154 784 l 2
 142.680679758 784 132.434582054 787.50922397 125.935300585 795.852896126 c 0
 120.865283436 802.361701925 119 810.461544305 119 819 c 2
 119 865 l 2
 119 875.92286565 122.570616875 886.024900642 130.700494404 892.614380323 c 0
 137.096746819 897.798711228 145.246618748 900 154 900 c 2
 189 900 l 2
 197.753381252 900 205.903253181 897.798711228 212.299505596 892.614380323 c 0
360.614380323 888.299505596 m 0
 365.798711228 881.903253181 368 873.753381252 368 865 c 2
 368 819 l 2
 368 807.680679758 364.49077603 797.434582054 356.147103874 790.935300585 c 0
 349.638298075 785.865283436 341.538455695 784 333 784 c 2
 298 784 l 2
 286.680679758 784 276.434582054 787.50922397 269.935300585 795.852896126 c 0
 264.865283436 802.361701925 263 810.461544305 263 819 c 2
 263 865 l 2
 263 873.753381252 265.201288772 881.903253181 270.385619677 888.299505596 c 0
 276.975099358 896.429383125 287.07713435 900 298 900 c 2
 333 900 l 2
 343.92286565 900 354.024900642 896.429383125 360.614380323 888.299505596 c 0
648.614380323 888.299505596 m 0
 653.798711228 881.903253181 656 873.753381252 656 865 c 2
 656 819 l 2
 656 807.680679758 652.49077603 797.434582054 644.147103874 790.935300585 c 0
 637.638298075 785.865283436 629.538455695 784 621 784 c 2
 586 784 l 2
 574.680679758 784 564.434582054 787.50922397 557.935300585 795.852896126 c 0
 552.865283436 802.361701925 551 810.461544305 551 819 c 2
 551 865 l 2
 551 875.92286565 554.570616875 886.024900642 562.700494404 892.614380323 c 0
 569.096746819 897.798711228 577.246618748 900 586 900 c 2
 621 900 l 2
 631.92286565 900 642.024900642 896.429383125 648.614380323 888.299505596 c 0
EndSplineSet
Refer: 183 100 N 1 0 0 1 0 0 2
PickledDataWithLists: "(dp0
Vcom.schriftgestaltung.Glyphs.lastChange
p1
V2016-06-09 18:35:34 +0000
p2
s."
EndChar

StartChar: dagger
Encoding: 8224 8224 185
GlifName: dagger
Width: 575
VWidth: 0
Flags: HMW
LayerCount: 2
Fore
SplineSet
553 599 m 2
 560.939234031 599 568.220598652 597.422707396 574.079995564 592.986737219 c 0
 581.665470392 587.24400625 584.369337461 578.304351446 584.369337461 569.548364557 c 0
 584.369337461 567.177099842 584.269483095 564.529031049 583.83273321 562.170581671 c 2
 578.883150938 535.442837402 l 2
 577.477166706 524.71962877 572.765656872 515.147524363 564.258153689 509.03244623 c 0
 557.47947997 504.160027313 549.116938086 502 540 502 c 2
 379.551764785 502 l 1
 280.832903257 -125.851959317 l 2
 279.269499923 -134.190110436 276.15877428 -141.832383812 270.591088393 -147.817449263 c 0
 263.505000677 -155.43474299 253.413768346 -159 242 -159 c 2
 207 -159 l 2
 199.477453406 -159 192.421899878 -157.431904254 186.596101265 -153.360923582 c 0
 179.057134233 -148.092806519 175.378536143 -139.434283282 175.378536143 -130.260814262 c 0
 175.378536143 -127.648311866 175.645031477 -125.001015384 176.143187182 -122.300105491 c 2
 274.303581127 502 l 1
 117 502 l 2
 109.24594172 502 102.005421498 503.690338843 96.1836600799 508.143307522 c 0
 88.6916666446 513.873808948 85.6666666667 522.810484791 85.6666666667 531.92866941 c 0
 85.6666666667 534.164618559 85.756601339 536.695203418 86.1799513859 538.896623662 c 2
 91.1152111377 564.559974371 l 1
 93.805713355 586.006616721 109.635322956 599 130 599 c 2
 290.444218538 599 l 1
 318.166961122 775.851978555 l 2
 321.891624161 795.716848095 336.308662975 809 357 809 c 2
 392 809 l 2
 399.541504747 809 406.533173788 807.771159083 412.454822479 803.891821229 c 0
 420.269088472 798.772608752 423.675 790.02491968 423.675 781.045875 c 0
 423.675 778.217236506 423.38692687 775.336092609 422.864880238 772.35114736 c 2
 395.690916598 599 l 1
 553 599 l 2
EndSplineSet
PickledDataWithLists: "(dp0
Vcom.schriftgestaltung.Glyphs.lastChange
p1
V2015-12-22 14:26:24 +0000
p2
s."
EndChar

StartChar: daggerdbl
Encoding: 8225 8225 186
GlifName: daggerdbl
Width: 575
VWidth: 0
Flags: HMW
LayerCount: 2
Fore
SplineSet
540 502 m 2
 379.547367809 502 l 1
 323.702448023 148 l 1
 481 148 l 2
 488.541504747 148 495.533173788 146.771159083 501.454822479 142.891821229 c 0
 509.269088472 137.772608752 512.675 129.02491968 512.675 120.045875 c 0
 512.675 117.221825327 512.387860778 114.345440469 511.867419095 111.36567372 c 2
 507.90371316 85.6015851401 l 2
 506.5235497 74.8141341348 501.807616781 65.177684578 493.258153689 59.0324462298 c 0
 486.47947997 54.1600273134 478.116938086 52 469 52 c 2
 308.562899283 52 l 1
 280.847672201 -125.746802208 l 2
 279.304315435 -134.492490549 276.215426533 -142.303059552 270.522472725 -148.301999562 c 0
 263.273940016 -155.940128088 253.134110638 -159 242 -159 c 2
 207 -159 l 2
 199.477453406 -159 192.421899878 -157.431904254 186.596101265 -153.360923582 c 0
 179.057134233 -148.092806519 175.378536143 -139.434283282 175.378536143 -130.260814262 c 0
 175.378536143 -127.650452422 175.644594949 -125.00535349 176.141963155 -122.306744361 c 2
 203.318821147 52 l 1
 46 52 l 2
 38.2459417201 52 31.0054214977 53.6903388432 25.1836600799 58.1433075216 c 0
 17.6916666446 63.8738089476 14.6666666667 72.8104847908 14.6666666667 81.9286694102 c 0
 14.6666666667 84.0021777216 14.809474523 86.1056531779 15.0776059984 88.2507049809 c 0
 16.1057430121 97.039070792 17.7718015266 105.789260322 19.1165916873 114.530396366 c 0
 21.986678772 133.980170579 35.8266815537 148 58 148 c 2
 218.452632191 148 l 1
 274.297551977 502 l 1
 117 502 l 2
 109.24594172 502 102.005421498 503.690338843 96.1836600799 508.143307522 c 0
 88.6916666446 513.873808948 85.6666666667 522.810484791 85.6666666667 531.92866941 c 0
 85.6666666667 534.164618559 85.756601339 536.695203418 86.1799513859 538.896623662 c 2
 91.1152111377 564.559974371 l 1
 93.805713355 586.006616721 109.635322956 599 130 599 c 2
 290.444218538 599 l 1
 318.166961122 775.851978555 l 2
 321.891624161 795.716848095 336.308662975 809 357 809 c 2
 392 809 l 2
 399.541504747 809 406.533173788 807.771159083 412.454822479 803.891821229 c 0
 420.269088472 798.772608752 423.675 790.02491968 423.675 781.045875 c 0
 423.675 778.217236506 423.38692687 775.336092609 422.864880238 772.35114736 c 2
 395.690916598 599 l 1
 553 599 l 2
 560.939234031 599 568.220598652 597.422707396 574.079995564 592.986737219 c 0
 581.665470392 587.24400625 584.369337461 578.304351446 584.369337461 569.548364557 c 0
 584.369337461 567.177099842 584.269483095 564.529031049 583.83273321 562.170581671 c 2
 578.883150938 535.442837402 l 2
 577.477166706 524.71962877 572.765656872 515.147524363 564.258153689 509.03244623 c 0
 557.47947997 504.160027313 549.116938086 502 540 502 c 2
EndSplineSet
PickledDataWithLists: "(dp0
Vcom.schriftgestaltung.Glyphs.lastChange
p1
V2015-12-22 14:32:11 +0000
p2
s."
EndChar

StartChar: degree
Encoding: 176 176 189
GlifName: degree
Width: 575
VWidth: 0
Flags: HMW
LayerCount: 2
Fore
SplineSet
136 498 m 0
 136 620.831565017 240.703945844 720 363 720 c 0
 459.124494422 720 526 653.364062353 526 560 c 0
 526 440.617595974 426.805881872 336 305 336 c 0
 204.055729432 336 136 403.512164238 136 498 c 0
242 509 m 0
 242 463.65781099 269.758175775 433 314 433 c 0
 371.558938493 433 420 487.815560398 420 548 c 0
 420 593.120642667 391.422465874 623 348 623 c 0
 290.19222122 623 242 571.074231985 242 509 c 0
EndSplineSet
PickledDataWithLists: "(dp0
Vcom.schriftgestaltung.Glyphs.lastChange
p1
V2016-05-30 08:37:06 +0000
p2
s."
EndChar

StartChar: delta
Encoding: 948 948 190
GlifName: delta
Width: 575
VWidth: 0
Flags: W
AnchorPoint: "mark-top" 360 700 basechar 0
LayerCount: 2
Fore
SplineSet
308 393 m 0
 212.378380587 393.304741238 154 308.876523996 154 202 c 0
 154 167.436378405 161.634046661 139.81119299 175.163302971 120.105752056 c 0
 191.910240472 95.7137396497 218.216188298 82 255 82 c 0
 363.893520405 82 417 180.066140463 417 298 c 0
 417 325.979908729 412.763995198 355.013593331 405.040453001 383.362296639 c 1
 372.58563273 389.527575855 311.185711124 392.989847301 308 393 c 0
574.907314569 636.62991518 m 2
 572.25347818 615.836859446 556.299427431 603 536 603 c 2
 351.842818593 603 l 1
 465.710314856 511.465975704 522 393.251512621 522 286.250783699 c 0
 522 115.864778141 419.414619716 -15 243 -15 c 0
 175.182821012 -15 121.955908086 7.47887465231 88.385166901 49.4984227077 c 0
 61.629164247 82.988155124 48 127.919296438 48 181.558884309 c 0
 48 345.170387299 150.529948588 474.944805223 320 474.944805223 c 0
 331.378320075 474.944805223 341.91767156 474.639018705 351.950703776 473.832737954 c 1
 317.833898778 519.043025797 272.033441594 560.843644494 213.020096592 595.325582516 c 0
 201.240864767 601.82780177 193.568467562 612.860722767 193.568467562 627.244012088 c 0
 193.568467562 629.596526394 193.75244687 631.985458339 194.120176545 634.553517349 c 0
 195.799635115 645.302052197 197.167608347 656.164708351 199.171342727 666.851291709 c 0
 202.896005765 686.716161249 217.308662975 700 238 700 c 2
 548 700 l 2
 555.522546594 700 562.578100122 698.431904254 568.403898735 694.360923582 c 0
 575.942865767 689.092806519 579.621463857 680.434283282 579.621463857 671.260814262 c 0
 579.621463857 668.663081929 579.357973325 666.030947821 578.865239728 663.345910004 c 2
 574.907314569 636.62991518 l 2
EndSplineSet
PickledDataWithLists: "(dp0
Vcom.schriftgestaltung.Glyphs.lastChange
p1
V2016-05-30 08:32:37 +0000
p2
s."
EndChar

StartChar: dieresis
Encoding: 168 168 191
GlifName: dieresis
Width: 575
VWidth: 0
GlyphClass: 2
Flags: HMW
LayerCount: 2
Fore
SplineSet
238 710 m 2
 273 710 l 2
 280.704976819 710 287.796225214 708.532063082 293.653483608 704.491856403 c 0
 301.286191937 699.226983813 304.675 690.561422461 304.675 681.72075 c 0
 304.675 678.963834735 304.386689393 676.175684214 303.861372794 673.324710339 c 0
 301.52670004 657.9825751 299.54391567 642.531910779 296.847672201 627.253197792 c 0
 295.304315435 618.507509451 292.215426533 610.696940448 286.522472725 604.698000438 c 0
 279.273940016 597.059871912 269.134110638 594 258 594 c 2
 223 594 l 2
 215.477453406 594 208.421899878 595.568095746 202.596101265 599.639076418 c 0
 195.057134233 604.907193481 191.378536143 613.565716718 191.378536143 622.739185738 c 0
 191.378536143 625.343470246 191.643357538 627.982330288 192.138493064 630.674408153 c 0
 194.476003161 646.035188793 196.309464892 661.587943258 199.171342727 676.851291709 c 0
 202.896005765 696.716161249 217.308662975 710 238 710 c 2
445 710 m 2
 480 710 l 2
 487.522546594 710 494.578100122 708.431904254 500.403898735 704.360923582 c 0
 507.942865767 699.092806519 511.621463857 690.434283282 511.621463857 681.260814262 c 0
 511.621463857 678.656529754 511.356642462 676.017669712 510.861506936 673.325591847 c 0
 508.526789511 657.983163054 506.54396727 642.532203183 503.847672201 627.253197792 c 0
 501.87953656 616.100429155 496.934702293 606.578289126 488.40466483 600.623357312 c 0
 481.669942215 595.921758505 473.580505518 594 465 594 c 2
 430 594 l 2
 422.295023181 594 415.203774786 595.467936918 409.346516392 599.508143597 c 0
 401.713808063 604.773016187 398.325 613.438577539 398.325 622.27925 c 0
 398.325 625.036165265 398.613310607 627.824315786 399.138627206 630.675289661 c 0
 401.476092679 646.035777058 403.309519551 661.588234772 406.171342727 676.851291709 c 0
 409.896005765 696.716161249 424.308662975 710 445 710 c 2
EndSplineSet
PickledDataWithLists: "(dp0
Vcom.schriftgestaltung.Glyphs.lastChange
p1
V2015-12-22 16:32:41 +0000
p2
s."
EndChar

StartChar: divide
Encoding: 247 247 192
GlifName: divide
Width: 575
VWidth: 0
Flags: HMW
LayerCount: 2
Fore
SplineSet
320 580 m 2
 355 580 l 2
 362.704976819 580 369.796225214 578.532063082 375.653483608 574.491856403 c 0
 383.286191937 569.226983813 386.675 560.561422461 386.675 551.72075 c 0
 386.675 548.963834735 386.386689393 546.175684214 385.861372794 543.324710339 c 0
 383.52670004 527.9825751 381.54391567 512.531910779 378.847672201 497.253197792 c 0
 377.304315435 488.507509451 374.215426533 480.696940448 368.522472725 474.698000438 c 0
 361.273940016 467.059871912 351.134110638 464 340 464 c 2
 305 464 l 2
 297.477453406 464 290.421899878 465.568095746 284.596101265 469.639076418 c 0
 277.057134233 474.907193481 273.378536143 483.565716718 273.378536143 492.739185738 c 0
 273.378536143 495.343470246 273.643357538 497.982330288 274.138493064 500.674408153 c 0
 276.476003161 516.035188793 278.309464892 531.587943258 281.171342727 546.851291709 c 0
 284.896005765 566.716161249 299.308662975 580 320 580 c 2
253 157 m 2
 288 157 l 2
 295.704976819 157 302.796225214 155.532063082 308.653483608 151.491856403 c 0
 316.286191937 146.226983813 319.675 137.561422461 319.675 128.72075 c 0
 319.675 125.969075051 319.387784387 123.186283475 318.864365773 120.34096696 c 0
 316.529611585 104.66476027 314.601124733 88.8560954727 311.847672201 73.2531977922 c 0
 310.304315435 64.507509451 307.215426533 56.6969404479 301.522472725 50.698000438 c 0
 294.273940016 43.0598719121 284.134110638 40 273 40 c 2
 238 40 l 2
 230.653605073 40 223.688161728 41.31793647 217.791630876 45.234650957 c 0
 210.070240991 50.3635106856 206.378536143 59.1045692774 206.378536143 68.4300575137 c 0
 206.378536143 71.0927587881 206.64069582 73.8076894488 207.128205348 76.6091534247 c 0
 209.464452676 92.2953854859 211.800700004 107.981617547 214.136947333 123.667849608 c 0
 217.880289954 143.632343587 232.192199498 157 253 157 c 2
468 262 m 2
 113 262 l 2
 105.477453406 262 98.4218998784 263.568095746 92.5961012651 267.639076418 c 0
 85.0571342332 272.907193481 81.3785361429 281.565716718 81.3785361429 290.739185738 c 0
 81.3785361429 293.346188692 81.6439106868 295.9878394 82.1400443372 298.68283859 c 0
 85.0365914138 317.510394589 85.9646247825 336.076624482 96.7416121742 347.649723117 c 0
 103.925667891 355.364475152 113.999970501 359 125 359 c 2
 480 359 l 2
 487.704976819 359 494.796225214 357.532063082 500.653483608 353.491856403 c 0
 508.286191937 348.226983813 511.675 339.561422461 511.675 330.72075 c 0
 511.675 327.970351536 511.3880508 325.188865308 510.865094053 322.344926694 c 0
 508.069801515 303.476702061 507.436197314 284.840659336 496.591088393 273.182550737 c 0
 489.505000677 265.56525701 479.413768346 262 468 262 c 2
EndSplineSet
PickledDataWithLists: "(dp0
Vcom.schriftgestaltung.Glyphs.lastChange
p1
V2015-12-22 14:06:58 +0000
p2
s."
EndChar

StartChar: dkshade
Encoding: 9619 9619 193
GlifName: dkshade
Width: 575
VWidth: 0
Flags: HMW
LayerCount: 2
Fore
SplineSet
-10 -260 m 1
 -10 -151.637372887 l 1
 44.1813135565 -260 l 1
 -10 -260 l 1
-10 -110.362627113 m 1
 -10 -9.63737288698 l 1
 115.181313557 -260 l 1
 64.8186864435 -260 l 1
 -10 -110.362627113 l 1
-10 31.637372887 m 1
 -10 132.362627113 l 1
 186.181313557 -260 l 1
 135.818686443 -260 l 1
 -10 31.637372887 l 1
-10 173.637372887 m 1
 -10 274.362627113 l 1
 257.181313557 -260 l 1
 206.818686443 -260 l 1
 -10 173.637372887 l 1
-10 315.637372887 m 1
 -10 416.362627113 l 1
 328.181313557 -260 l 1
 312 -260 l 1
 284 -260 l 1
 277.818686443 -260 l 1
 -10 315.637372887 l 1
-10 457.637372887 m 1
 -10 558.362627113 l 1
 399.181313557 -260 l 1
 383 -260 l 1
 355 -260 l 1
 348.818686443 -260 l 1
 -10 457.637372887 l 1
-10 599.637372887 m 1
 -10 700.362627113 l 1
 470.181313557 -260 l 1
 454 -260 l 1
 426 -260 l 1
 419.818686443 -260 l 1
 -10 599.637372887 l 1
-10 741.637372887 m 1
 -10 842.362627113 l 1
 541.181313557 -260 l 1
 525 -260 l 1
 497 -260 l 1
 490.818686443 -260 l 1
 -10 741.637372887 l 1
0 910 m 1
 28 910 l 1
 34.1813135565 910 l 1
 585 -191.637372887 l 1
 585 -292.362627113 l 1
 -16.1813135565 910 l 1
 0 910 l 1
71 910 m 1
 99 910 l 1
 105.181313557 910 l 1
 585 -49.637372887 l 1
 585 -150.362627113 l 1
 54.8186864435 910 l 1
 71 910 l 1
142 910 m 2
 153.393771186 910 164.787542371 910 176.181313557 910 c 1
 585 92.362627113 l 1
 585 -8.36262711302 l 1
 125.818686443 910 l 1
 142 910 l 2
213 910 m 1
 241 910 l 1
 247.181313557 910 l 1
 585 234.362627113 l 1
 585 133.637372887 l 1
 196.818686443 910 l 1
 213 910 l 1
267.818686443 910 m 1
 318.181313557 910 l 1
 585 376.362627113 l 1
 585 275.637372887 l 1
 267.818686443 910 l 1
338.818686443 910 m 1
 389.181313557 910 l 1
 585 518.362627113 l 1
 585 417.637372887 l 1
 338.818686443 910 l 1
409.818686443 910 m 1
 460.181313557 910 l 1
 585 660.362627113 l 1
 585 559.637372887 l 1
 409.818686443 910 l 1
480.818686443 910 m 1
 495.545790962 910 510.272895481 910 525 910 c 2
 531.181313557 910 l 1
 585 802.362627113 l 1
 585 701.637372887 l 1
 480.818686443 910 l 1
EndSplineSet
PickledDataWithLists: "(dp0
Vcom.schriftgestaltung.Glyphs.lastChange
p1
V2016-06-10 08:26:49 +0000
p2
s."
EndChar

StartChar: dnblock
Encoding: 9604 9604 194
GlifName: dnblock
Width: 575
VWidth: 0
Flags: HMW
LayerCount: 2
Fore
SplineSet
-10 -260 m 1
 -10 335 l 1
 585 335 l 1
 585 -260 l 1
 -10 -260 l 1
EndSplineSet
PickledDataWithLists: "(dp0
Vcom.schriftgestaltung.Glyphs.lastChange
p1
V2016-06-10 08:26:49 +0000
p2
s."
EndChar

StartChar: dollar
Encoding: 36 36 195
GlifName: dollar
Width: 575
VWidth: 0
Flags: W
LayerCount: 2
Back
SplineSet
507 187 m 256
 507 78 416 10 289 -6 c 257
 263 -175 l 258
 260 -191 251 -200 234 -200 c 258
 199 -200 l 258
 183 -200 175 -192 178 -175 c 258
 204 -10 l 257
 165 -9 99 -7 43 3 c 256
 27 6 22 17 28 33 c 257
 38 59 l 258
 44 75 55 81 71 79 c 257
 130 68 201 67 230 67 c 256
 333 67 421 103 421 177 c 256
 421 229 375 257 291 266 c 256
 160 280 87 315 87 413 c 256
 87 526 172 594 302 607 c 257
 328 775 l 258
 331 792 341 800 357 800 c 258
 392 800 l 258
 408 800 416 792 413 775 c 258
 387 609 l 257
 422 608 468 605 509 598 c 257
 524 594 530 583 523 567 c 258
 512 541 l 258
 506 526 495 520 479 523 c 256
 430 532 366 534 342 534 c 256
 246 534 174 502 174 431 c 256
 174 372 223 352 303 343 c 256
 436 328 507 280 507 187 c 256
EndSplineSet
Fore
SplineSet
332.525979884 793.427345508 m 0
 339.310770753 798.106541438 347.431866694 800 356 800 c 2
 391 800 l 2
 398.704976819 800 405.796225214 798.532063082 411.653483608 794.491856403 c 0
 419.286191937 789.226983813 422.675 780.561422461 422.675 771.72075 c 0
 422.675 768.958987941 422.385674773 766.165880703 421.858599998 763.309673294 c 2
 393.569167936 581 l 1
 288.327383789 581 l 1
 317.118563237 766.543156445 l 2
 318.876541095 777.872347084 323.911567819 787.486333816 332.525979884 793.427345508 c 0
262.455535433 -158.4147704 m 0
 255.683701304 -163.099657102 247.571047916 -165 239 -165 c 2
 204 -165 l 2
 196.295023181 -165 189.203774786 -163.532063082 183.346516392 -159.491856403 c 0
 175.713808063 -154.226983813 172.325 -145.561422461 172.325 -136.72075 c 0
 172.325 -133.950046117 172.616201771 -131.147793751 173.146527045 -128.281928471 c 2
 201.477551264 48 l 1
 306.736734451 48 l 1
 277.872997885 -131.596583063 l 2
 276.059338494 -142.88006614 271.048161835 -152.470224154 262.455535433 -158.4147704 c 0
63.2951103742 92.9282405418 m 2
 70.1574284069 105.653878469 81.1305930899 114.475217796 94.8996616773 114.475217796 c 0
 100.003356978 114.475217796 105.040668019 113.292406638 109.931953191 111.196141564 c 0
 152.504560362 92.9507384913 192.811096846 89 226 89 c 0
 321.336903965 89 409 136.976599602 409 214 c 0
 409 255.612715319 359.462384456 268.452770482 288.698847155 283.706338212 c 0
 204.041612935 301.954787983 96 324.454868447 96 441 c 0
 96 578.536621722 228.711397934 668 373 668 c 0
 417.480176918 668 472.503246512 658.859690843 513.460377665 639.956399542 c 0
 522.642571833 635.012141144 529.671370738 627.255070044 529.671370738 616.546809244 c 0
 529.671370738 609.668904359 527.413997986 602.215606397 523.883575383 595.406934235 c 2
 509.974194441 568.581699561 l 2
 503.817992024 555.534337737 492.87606823 546.524782204 479.07926922 546.524782204 c 0
 474.038587525 546.524782204 469.057678411 547.684642267 464.212014954 549.742437678 c 0
 431.907338208 562.457590944 397.161068665 572 361 572 c 0
 280.291421588 572 204 525.390006859 204 459 c 0
 204 406.812160368 261.369601022 391.611722009 336.471574391 374.11633026 c 0
 417.794644167 355.17170204 517 333.117752719 517 230 c 0
 517 79.6006541339 357.415076607 -10 201 -10 c 0
 151.649228187 -10 104.222949564 0.27675554179 60.875990849 20.8867685865 c 0
 49.771606878 25.7153405218 41.883489572 35.2073723198 41.883489572 47.3255276991 c 0
 41.883489572 54.4471205063 44.357763329 61.3659954664 48.4187120361 68.1342433115 c 2
 63.2951103742 92.9282405418 l 2
EndSplineSet
PickledDataWithLists: "(dp0
Vcom.schriftgestaltung.Glyphs.lastChange
p1
V2015-12-22 14:03:19 +0000
p2
s."
EndChar

StartChar: dotaccent
Encoding: 729 729 196
GlifName: dotaccent
Width: 575
VWidth: 0
GlyphClass: 2
Flags: HMW
LayerCount: 2
Fore
SplineSet
339 710 m 2
 374 710 l 2
 381.704976819 710 388.796225214 708.532063082 394.653483608 704.491856403 c 0
 402.286191937 699.226983813 405.675 690.561422461 405.675 681.72075 c 0
 405.675 678.963834735 405.386689393 676.175684214 404.861372794 673.324710339 c 0
 402.52670004 657.9825751 400.54391567 642.531910779 397.847672201 627.253197792 c 0
 396.304315435 618.507509451 393.215426533 610.696940448 387.522472725 604.698000438 c 0
 380.273940016 597.059871912 370.134110638 594 359 594 c 2
 324 594 l 2
 316.477453406 594 309.421899878 595.568095746 303.596101265 599.639076418 c 0
 296.057134233 604.907193481 292.378536143 613.565716718 292.378536143 622.739185738 c 0
 292.378536143 625.343470246 292.643357538 627.982330288 293.138493064 630.674408153 c 0
 295.476003161 646.035188793 297.309464892 661.587943258 300.171342727 676.851291709 c 0
 303.896005765 696.716161249 318.308662975 710 339 710 c 2
EndSplineSet
PickledDataWithLists: "(dp0
Vcom.schriftgestaltung.Glyphs.lastChange
p1
V2015-12-22 16:32:41 +0000
p2
s."
EndChar

StartChar: dotlessi
Encoding: 305 305 198
GlifName: dotlessi
Width: 575
VWidth: 0
Flags: W
AnchorPoint: "mark-top" 327 500 basechar 0
AnchorPoint: "mark-bottom" 248 0 basechar 0
AnchorPoint: "mark-ogonek" 423 25 basechar 0
LayerCount: 2
Back
SplineSet
455 57 m 257
 459 31 l 257
 463 16 455 4 437 0 c 256
 399 -9 368 -10 348 -10 c 256
 262 -10 218 25 218 98 c 256
 218 114 220 131 224 150 c 258
 266 350 l 258
 269 363 270 374 270 384 c 256
 270 417 254 432 215 433 c 256
 199 433 175 432 149 426 c 257
 132 423 123 428 120 443 c 257
 116 469 l 257
 112 484 120 496 138 500 c 256
 176 509 207 510 227 510 c 256
 313 510 357 475 357 402 c 256
 357 386 355 369 351 350 c 258
 309 150 l 258
 306 137 305 126 305 116 c 256
 305 83 321 68 360 67 c 256
 376 67 400 68 426 74 c 257
 443 77 452 72 455 57 c 257
EndSplineSet
Fore
SplineSet
256.255596043 348.173313633 m 0
 259.088739467 359.985875585 260 369.757423568 260 378.718138343 c 0
 260 394.755183666 255.786648602 403.202698176 248.183669822 408.425385189 c 0
 241.784334631 412.821257617 231.124458116 415.827300864 214.869158334 416.24286191 c 0
 199.791363647 416.232345601 181.380807667 414.403592408 151.74846556 409.654081746 c 0
 148.356618036 409.047222821 145.059644703 408.708119115 141.812533217 408.70811865 c 0
 133.745877342 408.70811865 125.793096447 410.985836804 119.892025392 416.702269969 c 0
 115.271911233 421.177825941 112.137998215 427.379158331 111.10829854 434.066719838 c 2
 111.10829854 434.066719838 107.10829854 460.045407302 107.088095797 460.183532355 c 0
 106.735707963 462.726469418 106.534311868 465.232339421 106.534311868 467.723454318 c 0
 106.534311868 485.112239243 117.598084973 495.292199011 132.689998409 498.731392891 c 0
 171.661813875 507.961559712 206.339827763 510 227 510 c 0
 266.365782627 510 298.291391397 503.250614328 322.081596397 488.216775591 c 0
 352.216297986 469.173633926 367 437.660672656 367 396.463514048 c 0
 367 380.247483173 364.894545156 363.220268407 360.786727403 344.446207689 c 2
 360.786727403 344.446207689 318.786727403 152.011485737 318.744403957 151.826686367 c 0
 315.911260533 140.014124415 315 130.242576432 315 121.281861657 c 0
 315 105.244816334 319.213351398 96.7973018235 326.816330178 91.5746148115 c 0
 333.215665369 87.1787423835 343.875541884 84.172699136 360.130841667 83.7571380902 c 0
 375.208636353 83.767654399 393.619192333 85.596407592 423.25153444 90.3459182542 c 0
 426.643381964 90.9527771787 429.940355297 91.291880885 433.187466783 91.2918813503 c 0
 441.254122658 91.2918813503 449.206903553 89.0141631964 455.107974608 83.2977300314 c 0
 459.728088767 78.8221740595 462.862001785 72.6208416689 463.89170146 65.9332801616 c 2
 463.89170146 65.9332801616 467.89170146 39.9545926981 467.911904203 39.8164676445 c 0
 468.264298415 37.2734845593 468.465701115 34.7675726437 468.465701115 32.2764143335 c 0
 468.465701115 14.8876215167 457.401838342 4.70794841867 442.310001591 1.26860710868 c 0
 403.338186125 -7.96155971205 368.660172237 -10 348 -10 c 0
 308.634217373 -10 276.708608603 -3.25061432803 252.918403603 11.7832244086 c 0
 222.783702014 30.8263660736 208 62.3393273436 208 103.536485952 c 0
 208 119.752516827 210.105454844 136.779731593 214.213272597 155.553792311 c 2
 214.213272597 155.553792311 256.213272597 347.988514263 256.255596043 348.173313633 c 0
EndSplineSet
PickledDataWithLists: "(dp0
Vcom.schriftgestaltung.Glyphs.lastChange
p1
V2016-06-09 18:35:33 +0000
p2
s."
EndChar

StartChar: e
Encoding: 101 101 199
GlifName: e
Width: 575
VWidth: 0
Flags: W
AnchorPoint: "mark-top" 327 500 basechar 0
AnchorPoint: "mark-bottom" 248 0 basechar 0
AnchorPoint: "mark-ogonek" 429 25 basechar 0
LayerCount: 2
Fore
SplineSet
286.749548979 -10.177139887 m 1
 286.819806103 -10.161727602 286.903220844 -10.0182513762 287 -10 c 1
 155.371979399 -10 63 59.1942622678 63 191.259259259 c 0
 63 353.432808254 175.331317736 510 333 510 c 0
 427.747626395 510 517 446.032299919 517 327.450511945 c 0
 517 306.144404043 513.850469268 288.107943181 508.863703421 259.208528821 c 0
 505.644171346 239.879838967 490.420019988 227 470 227 c 2
 170.787602488 227 l 1
 169.590837037 217.383273549 169.000332349 201.36461637 169 200.879194631 c 0
 168.967178864 152.941297311 187.063414891 124.358671115 214.401091246 107.651237858 c 0
 236.548980266 94.1155454769 266.039880373 88 299 88 c 0
 338.761193828 88 377.481808608 94.7181053056 424.672864554 110.433935345 c 0
 429.500959514 112.228409648 439.436264311 113.494035877 439.925218585 113.494035877 c 1
 439.91545643 113.491512358 439.901833586 113.478734849 439.884242578 113.475217796 c 1
 454.365628297 113.475217796 464.068428903 103.061259609 467.663480659 89.5798155243 c 0
 469.747697457 81.2547925941 472.145272117 73.2718967476 473.805875941 64.9688776276 c 0
 474.46153735 61.6905705833 474.824949646 58.4208798839 474.824949646 55.1537719517 c 0
 474.824949646 39.8513433053 465.897846703 26.8086442063 449.579792013 20.6605787285 c 0
 400.768546911 1.52875469761 293.013730181 -10.177139887 286.749548979 -10.177139887 c 1
413.113555169 324 m 1
 413.408241429 327.12527836 413.549845553 330.155857519 413.549845553 333.092077046 c 0
 413.549845553 387.112888239 365.296560748 414 322 414 c 0
 276.461119472 414 216.04702279 382.803227342 194.275229739 324 c 1
 413.113555169 324 l 1
EndSplineSet
EndChar

StartChar: e.hex
Encoding: 65550 -1 200
GlifName: e.hex
Width: 575
VWidth: 0
Flags: W
LayerCount: 2
Fore
SplineSet
212.299505596 892.614380323 m 0
 220.429383125 886.024900642 224 875.92286565 224 865 c 2
 224 819 l 2
 224 807.680679758 220.49077603 797.434582054 212.147103874 790.935300585 c 0
 205.638298075 785.865283436 197.538455695 784 189 784 c 2
 154 784 l 2
 142.680679758 784 132.434582054 787.50922397 125.935300585 795.852896126 c 0
 120.865283436 802.361701925 119 810.461544305 119 819 c 2
 119 865 l 2
 119 875.92286565 122.570616875 886.024900642 130.700494404 892.614380323 c 0
 137.096746819 897.798711228 145.246618748 900 154 900 c 2
 189 900 l 2
 197.753381252 900 205.903253181 897.798711228 212.299505596 892.614380323 c 0
504.614380323 888.299505596 m 0
 509.798711228 881.903253181 512 873.753381252 512 865 c 2
 512 819 l 2
 512 807.680679758 508.49077603 797.434582054 500.147103874 790.935300585 c 0
 493.638298075 785.865283436 485.538455695 784 477 784 c 2
 442 784 l 2
 430.680679758 784 420.434582054 787.50922397 413.935300585 795.852896126 c 0
 408.865283436 802.361701925 407 810.461544305 407 819 c 2
 407 865 l 2
 407 873.753381252 409.201288772 881.903253181 414.385619677 888.299505596 c 0
 420.975099358 896.429383125 431.07713435 900 442 900 c 2
 477 900 l 2
 487.92286565 900 498.024900642 896.429383125 504.614380323 888.299505596 c 0
360.614380323 888.299505596 m 0
 365.798711228 881.903253181 368 873.753381252 368 865 c 2
 368 819 l 2
 368 807.680679758 364.49077603 797.434582054 356.147103874 790.935300585 c 0
 349.638298075 785.865283436 341.538455695 784 333 784 c 2
 298 784 l 2
 286.680679758 784 276.434582054 787.50922397 269.935300585 795.852896126 c 0
 264.865283436 802.361701925 263 810.461544305 263 819 c 2
 263 865 l 2
 263 873.753381252 265.201288772 881.903253181 270.385619677 888.299505596 c 0
 276.975099358 896.429383125 287.07713435 900 298 900 c 2
 333 900 l 2
 343.92286565 900 354.024900642 896.429383125 360.614380323 888.299505596 c 0
EndSplineSet
Refer: 199 101 N 1 0 0 1 0 0 2
PickledDataWithLists: "(dp0
Vcom.schriftgestaltung.Glyphs.lastChange
p1
V2016-06-09 18:35:34 +0000
p2
s."
EndChar

StartChar: eight
Encoding: 56 56 207
GlifName: eight
Width: 575
VWidth: 0
Flags: W
LayerCount: 2
Fore
SplineSet
113 506.648648649 m 0
 113 631.410571921 229.524868878 710 361 710 c 0
 471.777731075 710 555 655.065448519 555 564.054054054 c 0
 555 477.021657065 486.469622805 406.915997119 408.189244062 358.762929298 c 1
 466.972442929 322.817435987 517.999999977 276.851301437 518 196.27027027 c 0
 518 64.1557435138 392.644069775 -10 247 -10 c 0
 130.604033084 -10 31 48.2820327994 31 147.621621622 c 0
 31 239.606678634 117.99148323 308.866674433 208.792166426 357.335008353 c 1
 157.139979848 389.19139405 113.00000001 432.926481102 113 506.648648649 c 0
447 543 m 0
 447 582.519570408 411.021868904 614 349 614 c 0
 280.668607464 614 220 573.790804917 220 518 c 0
 220 471.555224696 260.116456492 430.589320563 329.559677776 394.4678097 c 1
 361.987770504 414.786911638 394.414337529 442.923344443 416.834268879 472.223832158 c 0
 435.714144825 496.897840436 447 521.983121841 447 543 c 0
176.391679607 246.642057825 m 0
 152.388094657 221.922576481 138 195.42895172 138 167 c 0
 138 117.347089484 183.724169024 87 259 87 c 0
 343.200355591 87 412 126.630130845 412 193 c 0
 412 252.590064798 357.349543793 292.135432981 290.15000233 324.824276516 c 1
 247.615500433 302.73393444 205.327940452 276.44132969 176.391679607 246.642057825 c 0
EndSplineSet
PickledDataWithLists: "(dp0
Vcom.schriftgestaltung.Glyphs.lastChange
p1
V2015-12-22 20:52:45 +0000
p2
s."
EndChar

StartChar: eight.dnom
Encoding: 65551 -1 208
GlifName: eight.dnom
Width: 250
VWidth: 0
Flags: HMW
LayerCount: 2
Fore
SplineSet
162 375 m 0
 192.798602014 375 218.25369878 369.591442212 237.579475752 358.264949087 c 0
 262.074505318 343.908849232 275.329201203 320.07073173 275.329201203 290.448298729 c 0
 275.329201203 284.642894017 274.841811636 278.645926069 273.856020097 272.301188446 c 0
 267.881993378 237.452699249 245.130806102 206.376072182 211.854103873 180.862106216 c 1
 235.952338076 161.688825735 257.116064215 136.353806039 257.116064215 99.3014582296 c 0
 257.116064215 94.1994230687 256.704522122 88.8667632701 255.876071462 83.4226589325 c 0
 244.936099353 14.5008346468 186.988548812 -25 102 -25 c 0
 68.4815151008 -25 40.9161685224 -19.1408939788 20.0802637704 -6.97070364872 c 0
 -6.30525949949 8.44100244113 -20.509123734 33.9597676042 -20.509123734 65.760933822 c 0
 -20.509123734 72.1455887248 -19.9669311786 78.7042023109 -18.8834083127 85.530396366 c 0
 -12.7884211589 125.147812866 14.6018604066 153.647287785 56.046170306 179.81079062 c 1
 35.5669419648 196.78045012 20.2851251525 220.397640133 20.2851251525 253.646965678 c 0
 20.2851251525 260.310222867 20.8868353366 267.290614203 22.1297774763 274.615300249 c 0
 32.0627662066 338.398812836 84.9238770524 375 162 375 c 0
153 297 m 0
 122.100398835 297 111.003407476 287.005445283 108.907932856 271.6386314 c 0
 108.583588899 269.103742514 108.263950828 266.67367615 108.263950828 264.471285606 c 0
 108.263950828 247.581204003 120.680486885 235.880592967 145.170313892 221.1071127 c 1
 168.739012052 240.222242386 184.067682534 258.367224792 187.121562046 274.582204566 c 0
 187.324131359 276.131647331 187.417765951 278.752373034 187.417843087 278.841627297 c 0
 187.423959605 285.919046996 185.368757819 289.38514667 179.593845165 292.40815577 c 0
 174.56609958 295.040043309 165.80791431 297 153 297 c 0
111 54 m 0
 129.107863039 54 142.26078559 56.8940659404 151.065642192 61.5567691839 c 0
 162.181067334 67.4430579908 166.810795697 75.4781203 169.152327799 88.7468022078 c 0
 169.627400169 91.4388789739 169.838847443 93.8871500897 169.838847443 96.1145605594 c 0
 169.838847443 115.167452546 153.423777268 125.849424296 124.142157257 139.86348753 c 1
 87.4005917851 121.033724097 70.8018684738 106.195711993 66.8700902209 86.3596664773 c 0
 66.5717191962 84.1196502419 66.4311375677 82.0447300474 66.4311368515 80.1465994572 c 0
 66.4311368515 69.8975213653 69.7791575484 64.2867373774 77.6899463062 60.0370378436 c 0
 84.4155590508 56.4240184317 95.4389967373 54 111 54 c 0
EndSplineSet
EndChar

StartChar: eight.hex
Encoding: 65552 -1 209
GlifName: eight.hex
Width: 575
VWidth: 0
Flags: HMW
LayerCount: 2
Fore
SplineSet
224 875 m 2
 224 829 l 2
 224 817.680679758 220.49077603 807.434582054 212.147103874 800.935300585 c 0
 205.638298075 795.865283436 197.538455695 794 189 794 c 2
 154 794 l 2
 142.680679758 794 132.434582054 797.50922397 125.935300585 805.852896126 c 0
 120.865283436 812.361701925 119 820.461544305 119 829 c 2
 119 875 l 2
 119 885.92286565 122.570616875 896.024900642 130.700494404 902.614380323 c 0
 137.096746819 907.798711228 145.246618748 910 154 910 c 2
 189 910 l 2
 197.753381252 910 205.903253181 907.798711228 212.299505596 902.614380323 c 0
 220.429383125 896.024900642 224 885.92286565 224 875 c 2
EndSplineSet
Refer: 207 56 N 1 0 0 1 0 0 2
PickledDataWithLists: "(dp0
Vcom.schriftgestaltung.Glyphs.lastChange
p1
V2016-02-10 13:40:53 +0000
p2
s."
EndChar

StartChar: emdash
Encoding: 8212 8212 213
GlifName: emdash
Width: 575
VWidth: 0
Flags: HMW
LayerCount: 2
Fore
SplineSet
544 202 m 2
 19 202 l 2
 11.4774534059 202 4.42189987841 203.568095746 -1.40389873493 207.639076418 c 0
 -8.94286576683 212.907193481 -12.6214638571 221.565716718 -12.6214638571 230.739185738 c 0
 -12.6214638571 233.346188692 -12.3560893132 235.9878394 -11.8599556628 238.68283859 c 0
 -8.96340858618 257.510394589 -8.03537521751 276.076624482 2.74161217416 287.649723117 c 0
 9.92566789118 295.364475152 19.9999705014 299 31 299 c 2
 556 299 l 2
 563.522546594 299 570.578100122 297.431904254 576.403898735 293.360923582 c 0
 583.942865767 288.092806519 587.621463857 279.434283282 587.621463857 270.260814262 c 0
 587.621463857 267.663081929 587.357973325 265.030947821 586.865239728 262.345910004 c 0
 585.525611146 253.303417071 584.51149008 244.123816594 582.828657273 235.148708291 c 0
 579.103994235 215.283838751 564.691337025 202 544 202 c 2
EndSplineSet
PickledDataWithLists: "(dp0
Vcom.schriftgestaltung.Glyphs.lastChange
p1
V2016-05-22 17:00:36 +0000
p2
s."
EndChar

